<?xml version="1.0" standalone="no"?>
<!DOCTYPE svg PUBLIC "-//W3C//DTD SVG 20010904//EN"
 "http://www.w3.org/TR/2001/REC-SVG-20010904/DTD/svg10.dtd">
<svg version="1.0" xmlns="http://www.w3.org/2000/svg"
 width="988.000000pt" height="988.000000pt" viewBox="0 0 988.000000 988.000000"
 preserveAspectRatio="xMidYMid meet">
<metadata>
Created by potrace 1.11, written by Peter Selinger 2001-2013
</metadata>
<g transform="translate(0.000000,988.000000) scale(0.100000,-0.100000)"
fill="#000000" stroke="none">
<path d="M4534 9485 c-661 -62 -1306 -264 -1854 -579 -902 -520 -1589 -1309
-1978 -2276 -144 -357 -248 -775 -297 -1190 -22 -187 -30 -588 -16 -783 59
-806 308 -1550 736 -2204 287 -437 664 -836 1088 -1152 623 -464 1330 -753
2117 -865 367 -53 886 -49 1273 9 1608 242 2956 1308 3565 2820 321 798 403
1651 241 2515 -130 696 -405 1329 -819 1885 -751 1010 -1873 1656 -3140 1811
-184 22 -723 28 -916 9z m1708 -1277 c26 -62 44 -115 40 -119 -4 -3 -710 -287
-1569 -630 -1080 -431 -1558 -626 -1545 -631 9 -5 316 -93 682 -197 1549 -441
2765 -788 3055 -871 171 -49 586 -168 924 -264 l615 -174 399 200 c219 110
400 198 402 196 4 -5 34 -216 45 -323 6 -55 14 -208 17 -340 14 -574 -70
-1081 -268 -1621 -444 -1215 -1417 -2174 -2643 -2606 -527 -185 -982 -257
-1558 -245 -362 8 -615 39 -938 118 -832 203 -1591 647 -2163 1264 -628 676
-1021 1513 -1137 2421 -59 459 -47 904 36 1364 91 500 293 1031 559 1466 91
149 81 142 162 120 60 -15 1091 -307 1266 -357 l67 -20 0 -622 0 -623 -66 -29
c-80 -34 -178 -122 -216 -192 -86 -158 -74 -343 30 -488 l35 -50 -27 -445
c-34 -569 -42 -663 -72 -900 -43 -335 -148 -1006 -229 -1455 -14 -77 -25 -148
-25 -158 0 -16 32 -17 568 -15 l567 3 0 630 c0 509 -4 671 -18 845 -31 389
-53 825 -63 1252 l-7 283 25 41 c109 171 80 403 -68 551 -48 48 -158 113 -192
113 -10 0 -12 135 -10 657 l3 657 1630 652 c897 359 1632 653 1635 653 3 1 27
-50 52 -111z"/>
<path d="M3170 6347 l0 -454 51 -22 c118 -49 238 -161 293 -274 82 -169 72
-384 -25 -542 l-31 -49 9 -204 8 -204 100 -43 c128 -54 479 -175 660 -226 294
-84 858 -206 1205 -263 953 -155 2193 -240 2852 -196 321 22 874 97 889 121
10 17 48 237 69 402 33 259 44 526 31 764 -11 196 -45 510 -57 522 -3 3 -179
-82 -391 -188 l-386 -193 -81 22 c-95 25 -1699 482 -2251 640 -655 188 -1012
290 -1245 355 -227 64 -1649 470 -1682 481 -17 5 -18 -16 -18 -449z"/>
<path d="M5180 3339 c-47 -5 -95 -11 -107 -14 l-23 -5 0 -659 0 -659 23 -6
c45 -14 420 -19 509 -7 304 41 490 152 587 352 58 121 75 199 75 354 0 210
-46 338 -163 456 -107 106 -216 158 -390 184 -105 16 -370 18 -511 4z m395
-229 c121 -18 221 -75 274 -158 83 -132 90 -363 15 -516 -70 -143 -234 -223
-435 -214 l-64 3 0 440 0 440 50 6 c79 9 86 9 160 -1z"/>
<path d="M3988 3098 l-3 -243 -67 -3 -68 -3 0 -69 0 -69 68 -3 67 -3 0 -30 c0
-30 -1 -30 -65 -35 l-65 -5 -3 -67 -3 -67 68 -3 68 -3 3 -252 2 -253 430 0
431 0 -3 128 -3 127 -278 3 -278 2 3 123 3 122 188 3 188 2 -3 68 -3 67 -187
3 -188 2 0 35 0 35 188 2 187 3 3 68 3 67 -191 0 -190 0 0 115 0 115 265 0
265 0 0 130 0 130 -415 0 -415 0 -2 -242z"/>
<path d="M6444 3326 c-3 -8 -4 -214 -2 -458 4 -417 6 -448 26 -521 72 -261
232 -377 517 -377 247 0 403 86 494 272 65 132 71 190 71 679 l0 419 -154 0
-155 0 -3 -463 -3 -462 -34 -69 c-26 -52 -43 -74 -77 -96 -121 -77 -277 -30
-333 100 -34 79 -40 169 -41 593 l0 397 -150 0 c-121 0 -152 -3 -156 -14z"/>
</g>
</svg>
