<svg xmlns="http://www.w3.org/2000/svg" viewBox="0 0 11.36 14.86"><defs><style>.cls-1{fill:#8a9899;}</style></defs><title>Asset 60</title><g id="Layer_2" data-name="Layer 2"><g id="Layer_1-2" data-name="Layer 1"><path class="cls-1" d="M11,5.07,6.29.35a1.78,1.78,0,0,0-1-.35H2.18A2.16,2.16,0,0,0,0,2.18V12.67a2.17,2.17,0,0,0,2.18,2.19h7a2.17,2.17,0,0,0,2.18-2.19V6A1.32,1.32,0,0,0,11,5.07ZM6.12,1.4,10,5.24H7.43A1.34,1.34,0,0,1,6.12,3.93ZM9.18,14h-7A1.35,1.35,0,0,1,.87,12.67V2.18A1.36,1.36,0,0,1,2.18.87H5.24V3.93A2.16,2.16,0,0,0,7.43,6.12h3.06v6.55A1.35,1.35,0,0,1,9.18,14Z"/><path class="cls-1" d="M7.43,8.91H6.12V7.6a.44.44,0,0,0-.88,0V8.91H3.93a.44.44,0,0,0,0,.88H5.24V11.1a.44.44,0,0,0,.88,0V9.79H7.43a.44.44,0,0,0,0-.88Z"/></g></g></svg>