<svg xmlns="http://www.w3.org/2000/svg" xmlns:xlink="http://www.w3.org/1999/xlink" viewBox="0 0 129.92 108.19"><defs><style>.cls-1{fill:#38b87e;}.cls-2{fill:url(#linear-gradient);}.cls-3{fill:url(#linear-gradient-2);}.cls-4,.cls-7{fill:#22bd94;}.cls-5{fill:url(#linear-gradient-3);}.cls-6{fill:url(#linear-gradient-4);}.cls-7{opacity:0.18;isolation:isolate;}.cls-8{fill:#fff;}.cls-9{fill:url(#linear-gradient-5);}</style><linearGradient id="linear-gradient" x1="55.74" y1="-2955.05" x2="40.14" y2="-3259.32" gradientTransform="matrix(1, 0, 0, -1, 0, -2900.72)" gradientUnits="userSpaceOnUse"><stop offset="0" stop-opacity="0"/><stop offset="0.99"/></linearGradient><linearGradient id="linear-gradient-2" x1="54.43" y1="-3014.27" x2="56.76" y2="-2901.1" gradientTransform="matrix(1, 0, 0, -1, 0, -2900.72)" gradientUnits="userSpaceOnUse"><stop offset="0" stop-color="#fff" stop-opacity="0"/><stop offset="0.99" stop-color="#fff"/></linearGradient><linearGradient id="linear-gradient-3" x1="58.3" y1="-3003.4" x2="58.19" y2="-2973.26" xlink:href="#linear-gradient"/><linearGradient id="linear-gradient-4" x1="57.78" y1="-2998.82" x2="58.66" y2="-3022.83" xlink:href="#linear-gradient"/><linearGradient id="linear-gradient-5" x1="-1.12" y1="-2959.77" x2="37.38" y2="-2953.22" xlink:href="#linear-gradient-2"/></defs><title>additional-functionalities</title><g id="Layer_2" data-name="Layer 2"><g id="Layer_1-2" data-name="Layer 1"><rect class="cls-1" y="22.37" width="111.46" height="70.2" rx="5.49"/><rect class="cls-2" x="3.42" y="25.31" width="104.34" height="63.67" rx="5.06"/><rect class="cls-3" x="3.42" y="25.31" width="104.34" height="63.67" rx="5.06"/><rect class="cls-4" x="42.1" y="92.54" width="32.37" height="13.4"/><rect class="cls-5" x="42.1" y="92.54" width="32.37" height="13.4"/><rect class="cls-4" x="27.46" y="102.5" width="59.29" height="5.69"/><rect class="cls-6" x="28.39" y="102.92" width="59.29" height="4.46"/><path class="cls-7" d="M129.92,6.09V30.32a4.86,4.86,0,0,1-4.85,4.84H107.29L99.75,46.41V35.16H87.47a4.85,4.85,0,0,1-4.85-4.84h0V6.09a4.84,4.84,0,0,1,4.84-4.84h37.61A4.85,4.85,0,0,1,129.92,6.09Z"/><path class="cls-8" d="M128,4.84V29.07a4.84,4.84,0,0,1-4.84,4.84H105.42L97.88,45.16V33.93H85.6a4.85,4.85,0,0,1-4.85-4.84V4.84A4.85,4.85,0,0,1,85.6,0h37.6A4.84,4.84,0,0,1,128,4.84Z"/><rect class="cls-9" x="10.2" y="29.52" width="4.4" height="54.46"/><path class="cls-1" d="M94.57,17.34l7.63-3.92v1.13l-6.43,3.21v0L102.2,21v1.14l-7.63-3.93Z"/><path class="cls-1" d="M103.26,22.82l4.58-11.92H109l-4.6,11.92Z"/><path class="cls-1" d="M117.62,18.28,110,22.19V21l6.47-3.22v0L110,14.54V13.42l7.62,3.91Z"/><path class="cls-7" d="M26.49,35.25H52.81c.39,0,.7.5.7,1.11h0c0,.61-.31,1.11-.7,1.11H26.49c-.38,0-.7-.5-.7-1.11h0C25.79,35.75,26.11,35.25,26.49,35.25Z"/><path class="cls-7" d="M34.06,39.8H60.38c.38,0,.7.49.7,1.11h0c0,.61-.32,1.11-.7,1.11H34.06c-.39,0-.7-.5-.7-1.11h0C33.36,40.29,33.67,39.8,34.06,39.8Z"/><path class="cls-7" d="M34.51,44.34h43.1a1.15,1.15,0,0,1,1.15,1.15h0a1.14,1.14,0,0,1-1.15,1.15H34.51a1.14,1.14,0,0,1-1.15-1.15h0A1.15,1.15,0,0,1,34.51,44.34Z"/><path class="cls-7" d="M62.91,39.84H89.23c.39,0,.7.49.7,1.11h0c0,.61-.31,1.1-.7,1.1H62.91c-.39,0-.7-.49-.7-1.1h0C62.21,40.33,62.52,39.84,62.91,39.84Z"/><path class="cls-7" d="M33.62,49h8.6c.12,0,.23.5.23,1.11h0c0,.61-.11,1.11-.23,1.11h-8.6c-.12,0-.23-.5-.23-1.11h0C33.39,49.47,33.5,49,33.62,49Z"/><path class="cls-7" d="M44.24,49H81.85a1.06,1.06,0,0,1,1,1.11h0a1.06,1.06,0,0,1-1,1.11H44.24a1.06,1.06,0,0,1-1-1.11h0A1.06,1.06,0,0,1,44.24,49Z"/><path class="cls-7" d="M26.67,54.92H53c.39,0,.7.49.7,1.1h0c0,.62-.31,1.11-.7,1.11H26.67c-.38,0-.7-.49-.7-1.11h0C26,55.41,26.29,54.92,26.67,54.92Z"/><path class="cls-7" d="M34.24,59.71H60.56c.38,0,.7.5.7,1.11h0c0,.61-.32,1.11-.7,1.11H34.24c-.39,0-.7-.5-.7-1.11h0C33.54,60.21,33.85,59.71,34.24,59.71Z"/><path class="cls-7" d="M63.15,59.74H89.46c.39,0,.7.5.7,1.11h0c0,.61-.31,1.11-.7,1.11H63.15c-.39,0-.71-.5-.71-1.11h0C62.44,60.24,62.76,59.74,63.15,59.74Z"/><path class="cls-7" d="M41.85,64.51H78.41a1.05,1.05,0,0,1,1,1.11h0a1.05,1.05,0,0,1-1,1.11H41.85a1,1,0,0,1-1-1.11h0A1,1,0,0,1,41.85,64.51Z"/><path class="cls-7" d="M80.65,64.51h9.44c.13,0,.25.5.25,1.11h0c0,.61-.12,1.11-.25,1.11H80.65c-.14,0-.25-.5-.25-1.11h0C80.4,65,80.51,64.51,80.65,64.51Z"/><path class="cls-7" d="M42.12,69.31H85.23a1.15,1.15,0,0,1,1.15,1.15h0a1.16,1.16,0,0,1-1.15,1.15H42.12A1.16,1.16,0,0,1,41,70.46h0A1.15,1.15,0,0,1,42.12,69.31Z"/><path class="cls-7" d="M26.58,75.1H52.89c.39,0,.71.49.71,1.1h0c0,.62-.32,1.11-.71,1.11H26.58c-.39,0-.7-.49-.7-1.11h0C25.88,75.59,26.19,75.1,26.58,75.1Z"/><path class="cls-7" d="M34.14,79.68H60.46c.39,0,.7.5.7,1.11h0c0,.61-.31,1.11-.7,1.11H34.14c-.38,0-.7-.5-.7-1.11h0C33.44,80.18,33.76,79.68,34.14,79.68Z"/><path class="cls-7" d="M64.17,79.75h9.44c.14,0,.25.5.25,1.11h0c0,.61-.11,1.11-.25,1.11H64.17c-.14,0-.25-.5-.25-1.11h0C63.92,80.25,64,79.75,64.17,79.75Z"/></g></g></svg>