<svg xmlns="http://www.w3.org/2000/svg" xmlns:xlink="http://www.w3.org/1999/xlink" viewBox="0 0 401.26 285.4"><defs><style>.cls-1,.cls-2{fill:#38b87e;}.cls-1{opacity:0.18;}.cls-1,.cls-18,.cls-19,.cls-20,.cls-6,.cls-8{isolation:isolate;}.cls-3{fill:url(#linear-gradient);}.cls-4{fill:url(#linear-gradient-2);}.cls-5{fill:url(#linear-gradient-3);}.cls-20,.cls-6,.cls-8{opacity:0.19;}.cls-6{fill:url(#linear-gradient-4);}.cls-7{fill:url(#linear-gradient-5);}.cls-8{fill:url(#linear-gradient-6);}.cls-9{fill:url(#linear-gradient-7);}.cls-10{fill:url(#linear-gradient-8);}.cls-11{fill:url(#linear-gradient-9);}.cls-12{fill:url(#linear-gradient-10);}.cls-13{fill:#3f3d56;}.cls-14{fill:url(#linear-gradient-11);}.cls-15{fill:url(#linear-gradient-12);}.cls-16{fill:url(#linear-gradient-13);}.cls-17{fill:url(#linear-gradient-14);}.cls-18,.cls-19{opacity:0.47;}.cls-18{fill:url(#linear-gradient-15);}.cls-19{fill:url(#linear-gradient-16);}.cls-20{fill:url(#linear-gradient-17);}</style><linearGradient id="linear-gradient" x1="194.74" y1="-10196.72" x2="196.29" y2="-10237.64" gradientTransform="matrix(1, 0, 0, -1, 0, -9953.71)" gradientUnits="userSpaceOnUse"><stop offset="0"/><stop offset="0.98" stop-opacity="0"/></linearGradient><linearGradient id="linear-gradient-2" x1="199.58" y1="-9999.9" x2="199.58" y2="-10247.7" gradientTransform="matrix(1, 0, 0, -1, -0.93, -9953.71)" gradientUnits="userSpaceOnUse"><stop offset="0" stop-color="#fff" stop-opacity="0"/><stop offset="0.01" stop-color="#fff" stop-opacity="0.01"/><stop offset="0.38" stop-color="#fff" stop-opacity="0.43"/><stop offset="0.67" stop-color="#fff" stop-opacity="0.74"/><stop offset="0.88" stop-color="#fff" stop-opacity="0.93"/><stop offset="0.98" stop-color="#fff"/></linearGradient><linearGradient id="linear-gradient-3" x1="194.72" y1="-10096.86" x2="201.67" y2="-10204.17" gradientTransform="matrix(1, 0, 0, -1, -0.93, -9953.71)" xlink:href="#linear-gradient"/><linearGradient id="linear-gradient-4" x1="250.21" y1="-10123.3" x2="357.94" y2="-10123.3" gradientTransform="matrix(1, 0, 0, -1, -0.93, -9953.71)" gradientUnits="userSpaceOnUse"><stop offset="0" stop-color="#183866"/><stop offset="1" stop-color="#1a7fc1"/></linearGradient><linearGradient id="linear-gradient-5" x1="299.78" y1="-10148.01" x2="401.59" y2="-10148.01" gradientTransform="matrix(1, 0, 0, -1, -0.93, -9953.71)" gradientUnits="userSpaceOnUse"><stop offset="0" stop-color="#ecc4d7"/><stop offset="0.42" stop-color="#efd4d1"/><stop offset="1" stop-color="#f2eac9"/></linearGradient><linearGradient id="linear-gradient-6" x1="329.78" y1="-10119.82" x2="239.86" y2="-10132.05" xlink:href="#linear-gradient-4"/><linearGradient id="linear-gradient-7" x1="196.4" y1="-10221.9" x2="196.4" y2="-10244.86" xlink:href="#linear-gradient"/><linearGradient id="linear-gradient-8" x1="256.58" y1="-10051.24" x2="283.15" y2="-10051.24" gradientTransform="matrix(1, 0, 0, -1, -0.93, -9953.71)" xlink:href="#linear-gradient"/><linearGradient id="linear-gradient-9" x1="287.91" y1="-10039.42" x2="329.83" y2="-10039.42" gradientTransform="matrix(1, 0, 0, -1, -0.93, -9953.71)" xlink:href="#linear-gradient"/><linearGradient id="linear-gradient-10" x1="272.2" y1="-10031.23" x2="307.25" y2="-10062.33" gradientTransform="matrix(1, 0, 0, -1, -0.93, -9953.71)" xlink:href="#linear-gradient"/><linearGradient id="linear-gradient-11" x1="283.51" y1="-10110.2" x2="317.72" y2="-10110.2" xlink:href="#linear-gradient-5"/><linearGradient id="linear-gradient-12" x1="300" y1="-10115.54" x2="299.58" y2="-10128.85" xlink:href="#linear-gradient-5"/><linearGradient id="linear-gradient-13" x1="302.88" y1="-10128.72" x2="302.88" y2="-10136.43" xlink:href="#linear-gradient-5"/><linearGradient id="linear-gradient-14" x1="304.79" y1="-10133.82" x2="305.21" y2="-10145.17" xlink:href="#linear-gradient-5"/><linearGradient id="linear-gradient-15" x1="210.03" y1="-10022.08" x2="178.02" y2="-10160.59" gradientTransform="matrix(1, 0, 0, -1, -0.93, -9953.71)" xlink:href="#linear-gradient"/><linearGradient id="linear-gradient-16" x1="215.71" y1="-10023.39" x2="183.7" y2="-10161.89" gradientTransform="matrix(1, 0, 0, -1, -0.93, -9953.71)" xlink:href="#linear-gradient"/><linearGradient id="linear-gradient-17" x1="331.81" y1="-10186.16" x2="390.72" y2="-10186.16" xlink:href="#linear-gradient-4"/></defs><title>Asset 81</title><g id="Layer_2" data-name="Layer 2"><g id="Layer_1-2" data-name="Layer 1"><path class="cls-1" d="M330.88,276.89c-10.11,6.22-15.16,6.4-27,6.4q-40.38,0-80.75-.38l5.57-2.14c.32-3.09-3.95-4.22-7.06-4.17L80.79,278.66c-25.11.37-53.81-.82-69.9-20.11C1.94,247.82-1.18,233,.39,219.11s2.85-44.22,43.77-80.53c13.54-12,28.76,3.9,32.18-13.89,5.12-26.63-15.16-53.14-10.51-79.87C68.32,30.5,78.05,18,90.46,10.41S117.68-.18,132.22,0c8.78.12,17.67,1.39,25.6,5.14,7.74,3.66,14.2,9.51,21,14.78,9.9,7.74,20.81,14.47,32.91,17.85,24.21,6.76,49.78-.52,74.76-3.35,21.65-2.44,44.31-1.35,64,7.89s36,27.75,38.25,49.42c2.46,23.65-11.11,49.42.4,70.23,3.23,5.85,9.56,10,11.45,16.42,3.3,11.17-6.71,28.38-1.08,50.33,3.32,12.94-9.26,30.12-22,37.18C371.84,269,355.08,262,330.88,276.89Z"/><rect class="cls-2" x="152.17" y="250.69" width="87" height="33.94"/><rect class="cls-3" x="152.17" y="250.69" width="87" height="33.94"/><path class="cls-2" d="M357,43V232.16A20.85,20.85,0,0,1,336.16,253h-275a20.84,20.84,0,0,1-20.84-20.84V43A20.84,20.84,0,0,1,61.13,22.14h275A20.85,20.85,0,0,1,357,43Z"/><path class="cls-4" d="M357,43V232.16A20.85,20.85,0,0,1,336.16,253h-275a20.84,20.84,0,0,1-20.84-20.84V43A20.84,20.84,0,0,1,61.13,22.14h275A20.85,20.85,0,0,1,357,43Z"/><path class="cls-2" d="M357,203.57v28.57A20.84,20.84,0,0,1,336.18,253h-275a20.84,20.84,0,0,1-20.84-20.84h0V203.57Z"/><path class="cls-5" d="M357,203.57v28.57A20.84,20.84,0,0,1,336.18,253h-275a20.84,20.84,0,0,1-20.84-20.84h0V203.57Z"/><path class="cls-6" d="M357,230.54v1.6a20.84,20.84,0,0,1-9.72,17.63,52.94,52.94,0,0,1-6.67,2.38l-16.95-36.78a102.8,102.8,0,0,0-6.1-11.8,35.37,35.37,0,0,0-7.18-8.43l-.44,8.43c-.13,2.5-.27,5-.4,7.51a7.83,7.83,0,0,1-1,4.2c-1.6,2.22-5.17,2.07-7.34.41s-3.28-4.35-4.26-6.9q-1-2.59-1.95-5.22-3.48-9.48-6.45-19.15c-8.18-1.24-14.43-9.88-13.09-18,.31-1.87,1-3.68,1.31-5.53a35.79,35.79,0,0,0,.32-7.47l-1.1-39.2a64.65,64.65,0,0,1-11.43-1.37,6.64,6.64,0,0,1-12,3,12.65,12.65,0,0,1-1.79-5.68c-.37-2.78-2.74-13.06-.46-15.16,2-1.87,9.43.38,12.47-.36,4-1,7.75-2.86,11.63-4.29A53.84,53.84,0,0,1,294,87.05c4.83.11,9.83.94,13.82,3.69s6.68,7.76,5.54,12.47c-2.3.77-4.07-2.34-6.45-2.85a6.6,6.6,0,0,0-3.52.61q-6.7,2.55-13.44,5.08a4.11,4.11,0,0,0-2.22,1.46,4,4,0,0,0-.24,2.68,40.47,40.47,0,0,0,7,17.15c3.25,4.54,7.44,8.4,10.32,13.19s4.29,11.06,1.5,15.9a2.64,2.64,0,0,0-.44,1c-.08.81.63,1.44,1.27,2,15.14,11.7,26.3,27.36,35.82,44.14C348,212.38,352.56,221.51,357,230.54Z"/><path class="cls-7" d="M389.79,259.6l-.06,0a34.74,34.74,0,0,1-4.38,2.92h0a35.82,35.82,0,0,1-7.8,3.34S335.92,203.65,330.89,199h0c-3.88-3.56-10.83-5.69-14.43-7.09a8.25,8.25,0,0,1-2.13-1c-1.48-1.35-7.45-23-11.57-29.35-4.5-7-4.57-10.42-2.93-12a5.19,5.19,0,0,1,3.3-1.22,20.63,20.63,0,0,1,6.5.9c.8-1.57.58-3.23-.2-5.09-1.19-2.93-3.7-6.34-5.72-10.73-3.3-7.22,2.19-10.63,2.19-10.63s15.42,16.47,24.09,23.33,8.87,27.95,22.14,40.19,47.37,42.52,47.37,42.52C403.4,244.62,396.77,254.17,389.79,259.6Z"/><path class="cls-8" d="M321.43,183.29c1.22,2.18,1.74,10.5-5,8.6-2.11-.59-4.35-.43-6.47-1a5.4,5.4,0,0,1-2-.85c-1.26-1-1.46-2.75-1.75-4.32-1.17-6.75-5-12.79-6.34-19.5-.59-3-.72-6.15-2.33-8.7-1-1.55-2.52-3.24-1.82-4.92a4.41,4.41,0,0,1,1.77-1.76,17,17,0,0,1,2.29-1.36,3.89,3.89,0,0,1,.42-.19c.69-.27,1.41-.44,2.1-.71l.78-.32a20.54,20.54,0,0,1,6.49.9c.81-1.57.59-3.23-.19-5.1,2.38,1.95,10.2,12.43,7.86,22.46C316.91,168.11,313.66,169.36,321.43,183.29Z"/><rect class="cls-2" x="128.13" y="279.83" width="136.53" height="5.57"/><rect class="cls-9" x="128.13" y="279.83" width="136.53" height="5.57"/><path class="cls-2" d="M249.18,92.29l7.57-2.65,1.13,2.12S297.45,75.07,312.6,74.7s20.76,13.26,22.63,22c0,0-13.17-13.65-31.53-8s-42.09,13.77-42.09,13.77l.75,3.41-7.29,2.8Z"/><path class="cls-2" d="M271.26,86,277,101a3.48,3.48,0,0,0,4.13,2.12l11.21-2.89A3.49,3.49,0,0,0,295,96.57l-1.51-17a3.49,3.49,0,0,0-3.79-3.17,3.62,3.62,0,0,0-.73.14l-15.48,4.88a3.49,3.49,0,0,0-2.28,4.38A1.59,1.59,0,0,0,271.26,86Z"/><path class="cls-10" d="M275.75,97.69c-8.22,2.74-14.14,4.78-14.14,4.78l.75,3.41-7.29,2.81-5.89-16.41,7.57-2.65,1.13,2.12s5.66-2.39,13.52-5.36Z"/><path class="cls-11" d="M335.23,96.74s-13.17-13.65-31.53-8c-3,.9-6.05,1.87-9.17,2.86l-1.06-12a3.17,3.17,0,0,0-.17-.8c7.52-2.28,14.59-4,19.3-4.09C327.75,74.32,333.36,88,335.23,96.74Z"/><path class="cls-12" d="M292.37,100.26l-11.21,2.89A3.48,3.48,0,0,1,277,101l-1.28-3.34L271.4,86.38l-.14-.37a3.49,3.49,0,0,1,2-4.51l.21-.08L289,76.55a3.48,3.48,0,0,1,4.35,2.23,3,3,0,0,1,.17.79l1.06,12,.45,5A3.49,3.49,0,0,1,292.37,100.26Z"/><path class="cls-13" d="M281.16,103.15,304.8,214s5.37,9.12,13.31,6.67-.81-32-9.87-59.26-15.79-54.6-15.87-61.1Z"/><path class="cls-14" d="M290.89,148.79s-9.87,2.72-8.1,7.66,18.66,9,27.61,7.36,6.77-5.56,3.84-7.36-22.62-4.25-22.62-4.25Z"/><path class="cls-15" d="M286.32,159.77s-6.5,5-4.11,9.65,26.51,6.36,31,5.05,2.58-5.9,1.29-6.83a52.53,52.53,0,0,1-4.08-3.81S297.94,165.63,286.32,159.77Z"/><path class="cls-16" d="M287.27,181.55s-4.69-6.66,2.51-8.59c0,0,18.76,3,23.4,1.51,0,0,5.45,2.14,4.92,6C317.43,185.47,290.13,186.28,287.27,181.55Z"/><path class="cls-17" d="M297.9,192.82s16.57,1.36,19.24-2.59-2.67-6.94-2.67-6.94-15.73,2.09-20.51.91S288,190.44,297.9,192.82Z"/><path class="cls-18" d="M192.59,104.05l-.06-.19a26.38,26.38,0,0,0-2.24-5.41c-1.55-2.74-3.91-5.61-7.32-6.17a1.48,1.48,0,0,1-1.14-1.78,1.5,1.5,0,0,1,1.63-1.17c8.41,1.4,11.61,12.5,11.93,13.7a19.07,19.07,0,0,1,10.14,0c.39-1.43,3.61-12.27,11.92-13.65a1.48,1.48,0,0,1,1.66,1.32,1.5,1.5,0,0,1-1.17,1.63c-3.39.56-5.77,3.41-7.31,6.16a25.83,25.83,0,0,0-2.24,5.41l0,.12a24.27,24.27,0,0,1,11.88,12.1H180.89A24.21,24.21,0,0,1,192.59,104.05Z"/><path class="cls-19" d="M223.08,130.58a31.89,31.89,0,0,1-.84,6H229a2.23,2.23,0,0,1,2.25,2.23,2.19,2.19,0,0,1-.66,1.6,2.24,2.24,0,0,1-1.59.65h-7a2,2,0,0,1-1.07-.28,27.8,27.8,0,0,1-2.1,4.19h4.43a2.24,2.24,0,1,1,0,4.48h-7a2.4,2.4,0,0,1-.75-.12,19.91,19.91,0,0,1-29.89,0,2.29,2.29,0,0,1-.82.15h-7a2.24,2.24,0,0,1-2.25-2.23h0a2.24,2.24,0,0,1,2.24-2.24h4.54a28.87,28.87,0,0,1-2.11-4.24,2.18,2.18,0,0,1-1.17.33h-7a2.24,2.24,0,1,1,0-4.48h6.86a30.77,30.77,0,0,1-.83-6h-6.92a2.25,2.25,0,0,1-.21-4.49h7.26a30.73,30.73,0,0,1,.9-5h43a31.25,31.25,0,0,1,.9,5.08,2.73,2.73,0,0,1,.49-.06h7a2.26,2.26,0,0,1,2.35,2.15,2.23,2.23,0,0,1-2.14,2.34h-7.23A1.54,1.54,0,0,1,223.08,130.58Z"/><path class="cls-20" d="M389.79,259.6l-.06,0c-.34.24-2.19,1.56-4.38,2.92h0c-2.81,1.73-6.2,3.54-7.8,3.34,0,0-41.57-62.26-46.61-66.92h0a23.4,23.4,0,0,1,12.12,4.59C349.4,208.09,389.79,259.6,389.79,259.6Z"/></g></g></svg>