<svg xmlns="http://www.w3.org/2000/svg" viewBox="0 0 12.65 12.65"><defs><style>.cls-1{fill:#38b87e;stroke:#b3b3b3;stroke-miterlimit:10;stroke-width:0.9px;}.cls-2{fill:#fff;}</style></defs><title>Asset 56</title><g id="Layer_2" data-name="Layer 2"><g id="Layer_1-2" data-name="Layer 1"><rect class="cls-1" x="0.45" y="0.45" width="11.75" height="11.75" rx="1.81"/><path class="cls-2" d="M10.35,3.5l-.23-.2a.94.94,0,0,0-1.31.08L5,8.75,4,7.5c-.38-.33-.91-.94-1.54-.7L2.21,7A1,1,0,0,0,2,7.68a.9.9,0,0,0,.31.65l2.16,2a.9.9,0,0,0,.69.25.91.91,0,0,0,.66-.32l4.66-5.41a.92.92,0,0,0,.23-.69A.93.93,0,0,0,10.35,3.5Z"/></g></g></svg>