<svg xmlns="http://www.w3.org/2000/svg" xmlns:xlink="http://www.w3.org/1999/xlink" viewBox="0 0 110.65 75.07"><defs><style>.cls-1{fill:#1d2741;opacity:0.18;isolation:isolate;}.cls-2{fill:#38b87e;}.cls-3{fill:#fff;}.cls-4{fill:url(#linear-gradient);}.cls-5{fill:#f4d280;}</style><linearGradient id="linear-gradient" x1="55.64" y1="71.62" x2="55.64" y2="-34.38" gradientUnits="userSpaceOnUse"><stop offset="0" stop-color="#fff" stop-opacity="0"/><stop offset="0.2" stop-color="#fff" stop-opacity="0.26"/><stop offset="0.41" stop-color="#fff" stop-opacity="0.52"/><stop offset="0.61" stop-color="#fff" stop-opacity="0.73"/><stop offset="0.78" stop-color="#fff" stop-opacity="0.88"/><stop offset="0.91" stop-color="#fff" stop-opacity="0.97"/><stop offset="1" stop-color="#fff"/></linearGradient></defs><title>Asset 99</title><g id="Layer_2" data-name="Layer 2"><g id="Layer_1-2" data-name="Layer 1"><path class="cls-1" d="M110.3,5.26v.81H1.21V5.26A5.15,5.15,0,0,1,6.36.11h98.78a5.14,5.14,0,0,1,5.15,5.15Z" transform="translate(-0.31)"/><path class="cls-2" d="M110.15,4.8V70.09a4.78,4.78,0,0,1-4.79,4.79H6.24a4.79,4.79,0,0,1-4.81-4.77V4.8A4.79,4.79,0,0,1,6.22,0h99.13a4.79,4.79,0,0,1,4.8,4.79h0Z" transform="translate(-0.31)"/><path class="cls-3" d="M6.72,1.71A1.15,1.15,0,1,1,5.57,2.86,1.15,1.15,0,0,1,6.72,1.71Z" transform="translate(-0.31)"/><path class="cls-3" d="M10.59,1.71A1.15,1.15,0,1,1,9.44,2.86,1.15,1.15,0,0,1,10.59,1.71Z" transform="translate(-0.31)"/><path class="cls-3" d="M14.45,1.71A1.15,1.15,0,1,1,13.3,2.86,1.16,1.16,0,0,1,14.45,1.71Z" transform="translate(-0.31)"/><path class="cls-1" d="M7.67,74.88a6.69,6.69,0,0,1-4.32-.95,5,5,0,0,1-1.93-3.71c0-22.48,0-41.63,0-64.11H7.69Z" transform="translate(-0.31)"/><path class="cls-4" d="M.31,5.82V70.2a4.89,4.89,0,0,0,4.9,4.87H106.08A4.88,4.88,0,0,0,111,70.19V5.82Z" transform="translate(-0.31)"/><path class="cls-5" d="M70,34.07V55.4a2.72,2.72,0,0,1-2.73,2.72H46a2.72,2.72,0,0,1-2.73-2.72V34.07A2.73,2.73,0,0,1,46,31.34H67.3A2.72,2.72,0,0,1,70,34.06Z" transform="translate(-0.31)"/><path class="cls-1" d="M58.82,42.19a2.21,2.21,0,0,1-1.09,2,.53.53,0,0,0-.28.49v4.67a.65.65,0,0,1-.65.65h-.32a.65.65,0,0,1-.65-.65h0V44.64a.55.55,0,0,0-.28-.49,2.18,2.18,0,1,1,3.27-1.95Z" transform="translate(-0.31)"/><path class="cls-3" d="M63.86,31.35H61.54V28.23a4.9,4.9,0,1,0-9.8,0v3.09H49.42V28.17a7.22,7.22,0,0,1,14.44,0Z" transform="translate(-0.31)"/></g></g></svg>