<svg xmlns="http://www.w3.org/2000/svg" xmlns:xlink="http://www.w3.org/1999/xlink" viewBox="0 0 110.3 76.44"><defs><style>.cls-1{fill:#38b87e;}.cls-2{fill:url(#linear-gradient);}.cls-3{fill:#f4d280;}.cls-4{fill:#1d2741;opacity:0.18;isolation:isolate;}.cls-5{fill:#fff;}</style><linearGradient id="linear-gradient" x1="55.14" y1="71.63" x2="55.14" y2="-34.02" gradientUnits="userSpaceOnUse"><stop offset="0" stop-color="#fff" stop-opacity="0"/><stop offset="0.2" stop-color="#fff" stop-opacity="0.26"/><stop offset="0.41" stop-color="#fff" stop-opacity="0.52"/><stop offset="0.61" stop-color="#fff" stop-opacity="0.73"/><stop offset="0.78" stop-color="#fff" stop-opacity="0.88"/><stop offset="0.91" stop-color="#fff" stop-opacity="0.97"/><stop offset="1" stop-color="#fff"/></linearGradient></defs><title>data-protection</title><g id="Layer_2" data-name="Layer 2"><g id="Layer_1-2" data-name="Layer 1"><path class="cls-1" d="M105.14.22H6.37A5.14,5.14,0,0,0,1.21,5.36h0V76.44H110.3V5.37A5.15,5.15,0,0,0,105.14.22Z"/><path class="cls-2" d="M0,6V70.22a4.86,4.86,0,0,0,4.88,4.84H105.42a4.87,4.87,0,0,0,4.87-4.86V6Z"/><path class="cls-3" d="M70,34V55.29A2.73,2.73,0,0,1,67.3,58H46a2.73,2.73,0,0,1-2.73-2.73V34A2.73,2.73,0,0,1,46,31.23H67.3A2.73,2.73,0,0,1,70,34Z"/><path class="cls-4" d="M58.82,42.09A2.19,2.19,0,0,1,57.73,44a.54.54,0,0,0-.28.5v4.67a.66.66,0,0,1-.65.65h-.32a.66.66,0,0,1-.65-.65h0V44.54a.56.56,0,0,0-.28-.5,2.18,2.18,0,1,1,3.27-1.95Z"/><path class="cls-5" d="M63.86,31.24H61.54V28.13a4.9,4.9,0,1,0-9.8,0v3.09H49.42V28.07a7.22,7.22,0,0,1,14.44,0Z"/><path class="cls-4" d="M110.3,5.16V6H1.21v-.8A5.15,5.15,0,0,1,6.36,0h98.78a5.16,5.16,0,0,1,5.15,5.15Z"/><path class="cls-5" d="M6.72,1.61a1.15,1.15,0,1,1,0,2.3,1.15,1.15,0,1,1,0-2.3Z"/><path class="cls-5" d="M10.59,1.61A1.15,1.15,0,1,1,9.44,2.76,1.14,1.14,0,0,1,10.59,1.61Z"/><path class="cls-5" d="M14.45,1.61A1.15,1.15,0,1,1,13.3,2.76,1.15,1.15,0,0,1,14.45,1.61Z"/><rect class="cls-4" x="1.22" y="5.97" width="6.32" height="70.1"/></g></g></svg>