<svg xmlns="http://www.w3.org/2000/svg" xmlns:xlink="http://www.w3.org/1999/xlink" viewBox="0 0 109.09 102.17"><defs><style>.cls-1{fill:#d7f3ec;}.cls-2{fill:#38b87e;}.cls-3{fill:url(#linear-gradient);}</style><linearGradient id="linear-gradient" x1="60.19" y1="72.93" x2="60.37" y2="-24.77" gradientUnits="userSpaceOnUse"><stop offset="0" stop-color="#fff" stop-opacity="0"/><stop offset="1" stop-color="#fff"/></linearGradient></defs><title>Asset 71</title><g id="Layer_2" data-name="Layer 2"><g id="Layer_1-2" data-name="Layer 1"><polygon class="cls-1" points="75.25 78.03 53.26 102.17 30.55 78.51 44.5 78.51 44.5 48.04 63.86 48.04 63.86 78.03 75.25 78.03"/><path class="cls-2" d="M109.09,48.48A14.15,14.15,0,0,1,94.94,62.63H65.67a12.23,12.23,0,0,1-1.92-.13,17.89,17.89,0,0,1-2.31.13H20.2a19.94,19.94,0,1,1-.51-39.88,4.34,4.34,0,0,1,.51,0h8.12a26,26,0,0,1,51.31-1.88h2.52A13.07,13.07,0,0,1,95.22,33.94v.39A14.14,14.14,0,0,1,109.09,48.48Z"/><path class="cls-3" d="M109.09,48.48A14.15,14.15,0,0,1,94.94,62.63H65.67a12.23,12.23,0,0,1-1.92-.13,17.89,17.89,0,0,1-2.31.13h-40a19.94,19.94,0,0,1,10-37.23h8.13A26,26,0,0,1,65.28,2.67h.32a26,26,0,0,1,14,18.2h2.52A13.07,13.07,0,0,1,95.23,33.94v.39A14.15,14.15,0,0,1,109.09,48.48Z"/></g></g></svg>