<svg id="Layer_1" data-name="Layer 1" xmlns="http://www.w3.org/2000/svg" xmlns:xlink="http://www.w3.org/1999/xlink" viewBox="0 0 2856.85 1049.88"><defs><style>.cls-1,.cls-10,.cls-12,.cls-3,.cls-5,.cls-7{fill:none;}.cls-2{fill:#0282a5;}.cls-10,.cls-12,.cls-13,.cls-3{stroke:#fff;}.cls-3,.cls-5,.cls-7{stroke-linecap:round;}.cls-10,.cls-12,.cls-13,.cls-3,.cls-5,.cls-7{stroke-miterlimit:10;}.cls-3,.cls-5{stroke-width:9px;}.cls-4{fill:#7dd1e6;}.cls-5{stroke:#0282a5;}.cls-6{fill:#fff;}.cls-7{stroke:#7dd1e6;stroke-width:7px;stroke-dasharray:15.29 15.29;}.cls-8{clip-path:url(#clip-path);}.cls-9{fill:#231f20;}.cls-10{stroke-width:6.3px;}.cls-11{clip-path:url(#clip-path-2);}.cls-12{stroke-width:10px;}.cls-13{fill:#29a96f;}.cls-14{fill:#f3d180;}.cls-15{fill:#146066;}</style><clipPath id="clip-path" transform="translate(1326.44 729.98)"><path class="cls-1" d="M215.66-535.95a113.8,113.8,0,0,1-113.8,113.8A113.79,113.79,0,0,1-11.93-535.95a113.79,113.79,0,0,1,113.79-113.8A113.8,113.8,0,0,1,215.66-535.95Z"/></clipPath><clipPath id="clip-path-2" transform="translate(1326.44 729.98)"><circle class="cls-1" cx="1146.4" cy="139.3" r="180.6" transform="translate(237.27 851.42) rotate(-45)"/></clipPath></defs><title>EDU Coin</title><path class="cls-2" d="M-1064.25-398.43a3,3,0,0,1-2.75,3.23l-161.71,12.78a3,3,0,0,1-3.22-2.75l-12.79-161.71a3,3,0,0,1,2.76-3.22l161.7-12.79a3,3,0,0,1,3.23,2.76Z" transform="translate(1326.44 729.98)"/><path class="cls-3" d="M-1092.3-486.33A61.19,61.19,0,0,1-1138.19-413a61.2,61.2,0,0,1-73.38-45.89" transform="translate(1326.44 729.98)"/><path class="cls-4" d="M-1091.62-480a63.29,63.29,0,0,1-55.46,70.26,63.29,63.29,0,0,1-70.26-55.46,63.29,63.29,0,0,1,55.46-70.26A63.29,63.29,0,0,1-1091.62-480Z" transform="translate(1326.44 729.98)"/><path class="cls-3" d="M-1152.19-470.52c15.88-9.29,31-12.44,41.9-14.59,8.93-1.76,17.78-3.59,26.08-6.62,4-1.47,16.59-9.7,20.4-12.35" transform="translate(1326.44 729.98)"/><path class="cls-5" d="M-1154.19-473.52c15.88-9.29,31-12.44,41.9-14.59,8.93-1.76,17.78-3.59,26.08-6.62,4-1.47,16.59-9.7,20.4-12.35" transform="translate(1326.44 729.98)"/><path class="cls-2" d="M-1050.48-514.24a5.33,5.33,0,0,1-5.33,5.33,5.33,5.33,0,0,1-5.33-5.33,5.32,5.32,0,0,1,5.33-5.33A5.33,5.33,0,0,1-1050.48-514.24Z" transform="translate(1326.44 729.98)"/><path class="cls-2" d="M-1015.76-526.39a3,3,0,0,1-1.83,3.79l-24.67,8.46a2.38,2.38,0,0,1-3.25-2,17,17,0,0,0-1.81-3.26c-1.73-2.8-1.8-2.84-1.8-2.84a1.89,1.89,0,0,1-.45-3.33L-1026-546.7a1.88,1.88,0,0,1,3.25.82Z" transform="translate(1326.44 729.98)"/><path class="cls-2" d="M-1146-74a3,3,0,0,1-2.76,3.23L-1310.42-58a3,3,0,0,1-3.23-2.75l-12.78-161.71a3,3,0,0,1,2.75-3.22L-1162-238.44a3,3,0,0,1,3.22,2.76Z" transform="translate(1326.44 729.98)"/><path class="cls-3" d="M-1174-161.88a61.19,61.19,0,0,1-45.89,73.37,61.19,61.19,0,0,1-73.37-45.89" transform="translate(1326.44 729.98)"/><path class="cls-4" d="M-1173.34-155.6a63.29,63.29,0,0,1-55.46,70.26,63.29,63.29,0,0,1-70.26-55.46,63.29,63.29,0,0,1,55.46-70.26A63.28,63.28,0,0,1-1173.34-155.6Z" transform="translate(1326.44 729.98)"/><path class="cls-6" d="M-1167.47-171.51c-2.88,1.06-5.83,2-8.86,2.76A62.8,62.8,0,0,1-1174-160c3.29-.87,6.51-1.85,9.66-3,2.41-.88,6.76-3.41,10.9-6l-.8-10.16C-1159.45-175.87-1165.38-172.27-1167.47-171.51Z" transform="translate(1326.44 729.98)"/><path class="cls-5" d="M-1235.91-149.07c15.89-9.29,31-12.44,41.9-14.59,8.94-1.76,17.78-3.59,26.09-6.62,4.05-1.47,16.59-9.7,20.39-12.35" transform="translate(1326.44 729.98)"/><path class="cls-2" d="M-1132.19-189.79a5.34,5.34,0,0,1-5.34,5.33,5.33,5.33,0,0,1-5.33-5.33,5.33,5.33,0,0,1,5.33-5.33A5.33,5.33,0,0,1-1132.19-189.79Z" transform="translate(1326.44 729.98)"/><path class="cls-2" d="M-1097.48-201.94a3,3,0,0,1-1.82,3.79l-24.68,8.46a2.38,2.38,0,0,1-3.25-2,16.12,16.12,0,0,0-1.8-3.26c-1.73-2.8-1.8-2.84-1.8-2.84a1.89,1.89,0,0,1-.46-3.33l23.58-21.13a1.87,1.87,0,0,1,3.24.82Z" transform="translate(1326.44 729.98)"/><path class="cls-2" d="M-716.25-398.43A3,3,0,0,1-719-395.2l-161.71,12.78a3,3,0,0,1-3.22-2.75l-12.79-161.71A3,3,0,0,1-894-550.1l161.7-12.79a3,3,0,0,1,3.23,2.76Z" transform="translate(1326.44 729.98)"/><path class="cls-7" d="M-744.55-485.71a63.29,63.29,0,0,1-48.88,75,63.3,63.3,0,0,1-75-48.88,63.31,63.31,0,0,1,48.88-75A63.3,63.3,0,0,1-744.55-485.71Z" transform="translate(1326.44 729.98)"/><path class="cls-4" d="M-724.2-499.06c-4.87,3.11-10.16,6.3-12.21,7-7.93,2.9-16.27,4.65-25.56,6.48-9.79,1.93-26.16,5.16-43,15a3.5,3.5,0,0,0-1.25,4.79,3.5,3.5,0,0,0,3,1.73,3.41,3.41,0,0,0,1.76-.48c15.81-9.24,30.86-12.21,40.81-14.17,9.23-1.82,18.21-3.71,26.61-6.77a73.44,73.44,0,0,0,10.43-5.74Z" transform="translate(1326.44 729.98)"/><path class="cls-5" d="M-806.19-472.52c15.88-9.29,31-12.44,41.9-14.59,8.93-1.76,17.78-3.59,26.08-6.62,4.05-1.47,16.59-9.7,20.4-12.35" transform="translate(1326.44 729.98)"/><path class="cls-2" d="M-702.48-514.24a5.33,5.33,0,0,1-5.33,5.33,5.33,5.33,0,0,1-5.33-5.33,5.32,5.32,0,0,1,5.33-5.33A5.33,5.33,0,0,1-702.48-514.24Z" transform="translate(1326.44 729.98)"/><path class="cls-2" d="M-667.76-526.39a3,3,0,0,1-1.83,3.79l-24.67,8.46a2.38,2.38,0,0,1-3.25-2,17,17,0,0,0-1.81-3.26c-1.73-2.8-1.8-2.84-1.8-2.84a1.89,1.89,0,0,1-.45-3.33L-678-546.7a1.88,1.88,0,0,1,3.25.82Z" transform="translate(1326.44 729.98)"/><g class="cls-8"><path class="cls-4" d="M176.34-594.12c-35.47,0-90.22-17.71-124.92-19.8v58.81a11.33,11.33,0,0,1,8.51,11,11.28,11.28,0,0,1-2.33,6.87c0,2.14-.33-4.13.19,6.81,24.7,14.7,80,22.34,119,22.34,52.09,0,147-32.89,147-60.49v-40.06C296.81-620.44,223.72-594.12,176.34-594.12Z" transform="translate(1326.44 729.98)"/><path class="cls-9" d="M64-616.92a1.89,1.89,0,0,0-1.89-1.89H60.25a1.89,1.89,0,0,0-1.89,1.89v4.7a1.92,1.92,0,0,0,1.85,1.93c1,0,3.82-.7,3.82-1.73Z" transform="translate(1326.44 729.98)"/><path class="cls-2" d="M336.83-618c.93.44.94,1.18,0,1.63l-145.56,70.3a5.74,5.74,0,0,1-3.52.3L.48-599.2a1.19,1.19,0,0,1-.65-2l100.86-127.9a2.49,2.49,0,0,1,2.88-.66Z" transform="translate(1326.44 729.98)"/></g><path class="cls-6" d="M66.84-487.41c-1.59-18.13-2.34-46.26-2.44-50.33A13.52,13.52,0,0,0,67.19-546,13.56,13.56,0,0,0,57-559.08v-24.29l-6.78-2.06v26.35A13.55,13.55,0,0,0,40.07-546a13.48,13.48,0,0,0,3.83,9.43c-.33,4.86-1.35,20-1.81,28.51-.87,15.91-9,46.1-9,46.1H67.18A251.41,251.41,0,0,0,66.84-487.41Z" transform="translate(1326.44 729.98)"/><circle class="cls-2" cx="1375.03" cy="185.84" r="11.34"/><path class="cls-2" d="M57.63-535.8a1.4,1.4,0,0,0-1.86-1.38,30.15,30.15,0,0,1-6.82.47,32.91,32.91,0,0,1-6.58-.37,1.51,1.51,0,0,0-2,1.41s-1,14.74-1.47,23.26c-.73,13.3-7.18,48.63-7.18,48.63a1.53,1.53,0,0,0,1.55,1.86H58A2,2,0,0,0,60-463.81s.46-22.62-.31-31.37C58.2-511.55,57.63-535.8,57.63-535.8Z" transform="translate(1326.44 729.98)"/><rect class="cls-2" x="1372.2" y="134.01" width="5.67" height="42.69" rx="1.89"/><path class="cls-2" d="M101.86-645.34a108.67,108.67,0,0,1,77.35,32,108.67,108.67,0,0,1,32,77.35,108.67,108.67,0,0,1-32,77.35,108.67,108.67,0,0,1-77.35,32,108.69,108.69,0,0,1-77.35-32,108.66,108.66,0,0,1-32-77.35,108.66,108.66,0,0,1,32-77.35,108.69,108.69,0,0,1,77.35-32m0-4.41A113.79,113.79,0,0,0-11.93-535.95a113.79,113.79,0,0,0,113.79,113.8,113.8,113.8,0,0,0,113.8-113.8,113.8,113.8,0,0,0-113.8-113.8Z" transform="translate(1326.44 729.98)"/><line class="cls-10" x1="1379.11" y1="147.41" x2="1461.09" y2="114.56"/><g class="cls-11"><path d="M1284.59,53c-56.29,0-143.18-28.11-198.24-31.41v93.32a18,18,0,0,1,9.79,28.32c.09,3.39.14,11,1,28.37,42.7,19.24,111.73,36.55,188.23,36.55,129.23,0,233.26-32,233.26-75.83V29.89C1475.78,11.21,1359.78,53,1284.59,53Z" transform="translate(1326.44 729.98)"/><path class="cls-9" d="M1086.35,10.8a3,3,0,0,0-3-3h-3a3,3,0,0,0-3,3v7.46a3,3,0,0,0,2.94,3.06c1.63,0,6.06-1.1,6.06-2.75Z" transform="translate(1326.44 729.98)"/><path class="cls-9" d="M1284.64,128.88a11.84,11.84,0,0,1-3.31-.43L984.13,43.73a6.86,6.86,0,0,1-3.59-11.09l160.07-203a8.91,8.91,0,0,1,7-3.29,8.54,8.54,0,0,1,3.68.82L1521.45,4.49a6.51,6.51,0,0,1,4,5.8,6.48,6.48,0,0,1-3.94,5.81l-231,111.56A13.75,13.75,0,0,1,1284.64,128.88Z" transform="translate(1326.44 729.98)"/><path class="cls-6" d="M1147.58-168.63a3.44,3.44,0,0,1,1.52.33L1519.29,9c1.49.71,1.49,1.88,0,2.6l-231,111.56a8.82,8.82,0,0,1-3.64.72,7.2,7.2,0,0,1-1.94-.24L985.5,38.92a1.87,1.87,0,0,1-1-3.18l160.07-203a3.91,3.91,0,0,1,3-1.39m0-10a13.93,13.93,0,0,0-10.9,5.2l-160.06,203a11.83,11.83,0,0,0,6.14,19L1280,133.26a17.21,17.21,0,0,0,4.69.62,19,19,0,0,0,8-1.71l231-111.56a11.54,11.54,0,0,0,6.77-10.33,11.54,11.54,0,0,0-6.8-10.3l-370.19-177.3a13.56,13.56,0,0,0-5.84-1.31Z" transform="translate(1326.44 729.98)"/></g><path class="cls-6" d="M1114.52,233.13c-2.7-30.76-4-78.51-4.14-85.42a23,23,0,0,0-12.53-36.21V70.27l-11.5-3.5V111.5a23,23,0,0,0-10.77,38.27c-.55,8.25-2.27,34-3.06,48.39-1.48,27-15.23,78.22-15.23,78.22h57.81S1116.08,250.87,1114.52,233.13Z" transform="translate(1326.44 729.98)"/><circle class="cls-9" cx="1081.85" cy="132.3" r="18" transform="translate(1358.16 1154.06) rotate(-22.5)"/><path class="cls-9" d="M1096.19,145.54a2.21,2.21,0,0,0-3-2.18s-2.64.74-10.82.74-10.45-.59-10.45-.59a2.4,2.4,0,0,0-3.1,2.24s-1.6,23.39-2.34,36.91c-1.15,21.11-11.13,58.28-11.13,58.28a2.19,2.19,0,0,0,2.22,2.9h39.21a3.15,3.15,0,0,0,3.12-3,291.66,291.66,0,0,0-.57-30.83C1097.1,184,1096.19,145.54,1096.19,145.54Z" transform="translate(1326.44 729.98)"/><rect class="cls-9" x="2403.79" y="780.03" width="9" height="67.75" rx="3"/><path class="cls-9" d="M1146.39-34.3A173.6,173.6,0,0,1,1320,139.3,173.61,173.61,0,1,1,1023.64,16.54,172.49,172.49,0,0,1,1146.39-34.3m0-7A180.6,180.6,0,1,0,1327,139.3,180.6,180.6,0,0,0,1146.39-41.3Z" transform="translate(1326.44 729.98)"/><line class="cls-12" x1="2414.76" y1="801.3" x2="2544.87" y2="749.17"/><path class="cls-2" d="M85.81-467.25H99.66V-461H78.16v-33.71H99v6.25H85.81Z" transform="translate(1326.44 729.98)"/><path class="cls-2" d="M104.86-494.25a66.64,66.64,0,0,1,10.3-.71c6.4,0,10.55,1.15,13.8,3.61,3.5,2.6,5.7,6.75,5.7,12.7,0,6.45-2.35,10.9-5.6,13.65-3.55,2.95-9,4.35-15.55,4.35a66,66,0,0,1-8.65-.5Zm7.65,27.5a14,14,0,0,0,2.65.15c6.9.05,11.4-3.75,11.4-11.8,0-7-4-10.7-10.6-10.7a16,16,0,0,0-3.45.29Z" transform="translate(1326.44 729.98)"/><path class="cls-2" d="M147.26-494.71v19.41c0,5.8,2.2,8.75,6.1,8.75s6.2-2.8,6.2-8.75v-19.41h7.6v18.91c0,10.4-5.25,15.35-14,15.35-8.5,0-13.5-4.7-13.5-15.45v-18.81Z" transform="translate(1326.44 729.98)"/><polyline class="cls-2" points="1401.17 247.53 1421.65 247.53 1421.65 250.92 1401.17 250.92"/><polyline class="cls-2" points="1401.17 252.91 1421.65 252.91 1421.65 256.3 1401.17 256.3"/><path class="cls-1" d="M236.6,122.8A113.8,113.8,0,1,1,122.8,9,113.8,113.8,0,0,1,236.6,122.8Z" transform="translate(1326.44 729.98)"/><polygon class="cls-6" points="1483.13 774.08 1480.78 768.23 1398.8 801.08 1398.82 801.12 1398.8 801.12 1398.8 815.74 1404.39 815.74 1404.39 805.63 1483.13 774.08"/><path class="cls-13" d="M230.47,103.39l-20,10.06L78,75.66v24A13.53,13.53,0,0,1,85.33,121c0,1.36.14,5.41.33,10.86,27,12.36,76.32,18.76,112.08,18.76a184.72,184.72,0,0,0,31.67-3.18,111,111,0,0,0,1.06-44.06Z" transform="translate(1326.44 729.98)"/><path class="cls-14" d="M229.41,147.45a184.72,184.72,0,0,1-31.67,3.18c-35.76,0-85-6.4-112.08-18.76-.19-5.45-.29-9.5-.33-10.86A13.53,13.53,0,0,0,78,99.67v-24h0L156.69,44.1l-2.35-5.85-82,32.85v0h0v32.51a11.3,11.3,0,0,1,6.17,17.84c.08,3.36.71,26.92,2,42.09.77,8.75.27,33.26.27,33.26H52.36s6.79-37.19,7.51-50.49c.39-7.09,1.24-19.78,1.51-23.85a11.32,11.32,0,0,1,5.31-18.85V72.45l-35.15-10A109.41,109.41,0,0,0,200.15,200.15a108.57,108.57,0,0,0,30.92-61.69C230.64,141.49,230.08,144.49,229.41,147.45Z" transform="translate(1326.44 729.98)"/><path class="cls-14" d="M243.5,100.13a122.85,122.85,0,1,0,2.1,22.67A122.77,122.77,0,0,0,243.5,100.13ZM122.8,236.6A113.8,113.8,0,1,1,234.65,101.79h0A113.83,113.83,0,0,1,122.8,236.6Z" transform="translate(1326.44 729.98)"/><path class="cls-15" d="M106.74,190.5H120.6v6.25H99.09v-33.7H119.9v6.25H106.74Z" transform="translate(1326.44 729.98)"/><path class="cls-15" d="M125.79,163.5a68,68,0,0,1,10.3-.7c6.4,0,10.55,1.15,13.81,3.6,3.5,2.6,5.7,6.75,5.7,12.7,0,6.45-2.35,10.9-5.6,13.65-3.55,2.95-9,4.35-15.56,4.35a66,66,0,0,1-8.65-.5Zm7.65,27.5a14,14,0,0,0,2.65.15c6.91,0,11.41-3.75,11.41-11.8,0-7-4.05-10.7-10.61-10.7a15.85,15.85,0,0,0-3.45.3Z" transform="translate(1326.44 729.98)"/><path class="cls-15" d="M168.19,163.05v19.4c0,5.8,2.2,8.75,6.1,8.75s6.2-2.8,6.2-8.75v-19.4h7.61V182c0,10.4-5.25,15.35-14.06,15.35-8.5,0-13.5-4.7-13.5-15.45v-18.8Z" transform="translate(1326.44 729.98)"/><polyline class="cls-15" points="1422.1 905.28 1442.59 905.28 1442.59 908.67 1422.1 908.67"/><polyline class="cls-15" points="1422.1 910.66 1442.59 910.66 1442.59 914.05 1422.1 914.05"/><path class="cls-15" d="M234.65,101.79h0a113.83,113.83,0,1,0,1.95,21A113.83,113.83,0,0,0,234.65,101.79Zm-5.24,45.66h0a109.42,109.42,0,0,1-183.95,52.7A109.47,109.47,0,0,1,31.54,62.43l35.15,10v31.19a11.32,11.32,0,0,0-5.31,18.85c-.27,4.07-1.12,16.76-1.51,23.85-.72,13.3-7.51,50.49-7.51,50.49H80.84s.5-24.51-.27-33.26c-1.33-15.17-2-38.73-2-42.09a11.3,11.3,0,0,0-6.17-17.84V71.13h0v0l82-32.85,2.35,5.85L78,75.65h0L210.5,113.45l20-10.06a111,111,0,0,1-1.06,44.06Z" transform="translate(1326.44 729.98)"/></svg>