<svg xmlns="http://www.w3.org/2000/svg" viewBox="0 0 17.32 17.32"><defs><style>.cls-1{fill:#b3b3b3;}</style></defs><title>exclamation</title><g id="Layer_2" data-name="Layer 2"><g id="Layer_1-2" data-name="Layer 1"><path class="cls-1" d="M8.66,0a8.66,8.66,0,1,0,8.66,8.66A8.65,8.65,0,0,0,8.66,0Zm0,16.31A7.7,7.7,0,0,1,1,8.66,7.69,7.69,0,0,1,8.66,1a7.7,7.7,0,0,1,7.65,7.64A7.71,7.71,0,0,1,8.66,16.31Z"/><path class="cls-1" d="M8.6,4.38c-.54,0-1,.28-1,.74l0,4.22c0,.46.41.75,1,.75s1-.29,1-.74l0-4.22C9.56,4.68,9.13,4.38,8.6,4.38Zm0,6.66a1,1,0,1,0,.95,1A.95.95,0,0,0,8.56,11Z"/></g></g></svg>