<?xml version="1.0" encoding="utf-8"?>
<!-- Generator: Adobe Illustrator 23.0.1, SVG Export Plug-In . SVG Version: 6.00 Build 0)  -->
<svg version="1.1" id="Layer_1" xmlns="http://www.w3.org/2000/svg" xmlns:xlink="http://www.w3.org/1999/xlink" x="0px" y="0px"
	 viewBox="0 0 163 390" style="enable-background:new 0 0 163 390;" xml:space="preserve">
<style type="text/css">
	.st0{fill:#22BD94;}
	.st1{fill:url(#SVGID_1_);}
	.st2{fill:#FFFFFF;}
	.st3{fill:url(#SVGID_2_);}
	.st4{fill:#E6E6E6;}
	.st5{fill:#3F3D56;}
	.st6{fill:#F4D280;}
	.st7{fill:url(#SVGID_3_);}
	.st8{fill:#14ABA1;}
	.st9{fill:url(#SVGID_4_);}
	.st10{fill:url(#SVGID_5_);}
	.st11{fill:url(#SVGID_6_);}
	.st12{fill:url(#SVGID_7_);}
	.st13{fill:url(#SVGID_8_);}
	.st14{fill:url(#SVGID_9_);}
	.st15{fill:none;}
	.st16{fill:url(#SVGID_10_);}
	.st17{fill:url(#SVGID_11_);}
	.st18{fill:url(#SVGID_12_);}
	.st19{fill:#F2A700;}
	.st20{fill:url(#SVGID_13_);}
	.st21{fill:url(#SVGID_14_);}
	.st22{fill:url(#SVGID_15_);}
</style>
<g>
	<rect x="47.8" y="313.09" class="st0" width="88.22" height="11.53"/>
	
		<linearGradient id="SVGID_1_" gradientUnits="userSpaceOnUse" x1="346.9311" y1="71.9153" x2="350.6211" y2="15.5953" gradientTransform="matrix(1 0 0 -1 -255.29 386.6032)">
		<stop  offset="0" style="stop-color:#000000;stop-opacity:0"/>
		<stop  offset="0.99" style="stop-color:#000000"/>
	</linearGradient>
	<rect x="47.8" y="313.09" class="st1" width="88.22" height="11.53"/>
	<rect x="83.25" y="314.03" class="st2" width="52.7" height="9.78"/>
	<rect x="59.24" y="305.75" class="st0" width="70.71" height="7.4"/>
	
		<linearGradient id="SVGID_2_" gradientUnits="userSpaceOnUse" x1="350.0692" y1="69.2853" x2="349.1891" y2="109.9454" gradientTransform="matrix(1 0 0 -1 -255.3 386.5932)">
		<stop  offset="0" style="stop-color:#000000;stop-opacity:0"/>
		<stop  offset="0.99" style="stop-color:#000000"/>
	</linearGradient>
	<rect x="59.24" y="305.75" class="st3" width="70.71" height="7.4"/>
	<rect x="97.43" y="305.63" class="st2" width="32.53" height="7.52"/>
	<g>
		<rect x="48.13" y="297.67" class="st4" width="88.89" height="8.01"/>
	</g>
	<rect x="104.43" y="299.2" class="st2" width="34.09" height="4.55"/>
	<path class="st5" d="M60.9,247.3c0.11,6.43,5.23,33.44,5.24,39.88c0,4.23-4.76,4.13-7.57,5.72c-1.47,0.83-3.59,3.4-2.14,4.56
		c4.05,0.21,13.62-0.11,17.66,0.1c0.85,0-4-36.52-0.68-46.48c2-6,28.32-24.85,26.2-30.56c-0.6-1.63,4.51-12.19,0.88-12.23
		c-8.54-0.1-17.31,0.9-20.14,1.85C80.35,210.15,60.73,237.81,60.9,247.3z"/>
	<path class="st5" d="M96.12,208.44c-1.4-0.05-2.77,0.38-3.9,1.21c-1.6,1.5-1.18,4.11-0.62,6.23c1.75,6.68,4.42,22,9.76,39.58
		c5.58,18.37,13.83,38.87,14.35,40.39c0.23,0.69,0.16,1.17,0.75,1.6s15.55,0.22,15.68,0c0,0,1.24-3.31-3.52-5.15
		c-1.23-0.48-4.58,0.35-5.14-1.36c-4.81-14.66-6.8-46.62-6.26-52.54c0.68-7.44,3.24-26.45-1.6-30.42
		C110.32,207.76,101.44,208.04,96.12,208.44z"/>
	<path class="st6" d="M75.26,213.35c0.49,4.12,15.81-0.73,17.2-0.82c3.07-0.2,24.26,1,27-0.35c6.47-3.07-10.34-57.55-14.42-60
		c-3.82-2.29-8.48-2.76-12.94-2.65c-9.34,0.24-17.1,4.9-19.71,14.36c-1.08,3.91,0.79,7.93,1.82,11.66
		C75.74,180.92,74.6,207.81,75.26,213.35z"/>
	
		<linearGradient id="SVGID_3_" gradientUnits="userSpaceOnUse" x1="101.124" y1="248.6216" x2="119.9822" y2="248.6216" gradientTransform="matrix(1 0 0 -1 -28.46 386.5932)">
		<stop  offset="0" style="stop-color:#ECC4D7"/>
		<stop  offset="0.42" style="stop-color:#EFD4D1"/>
		<stop  offset="1" style="stop-color:#F2EAC9"/>
	</linearGradient>
	<path class="st7" d="M80.98,147.77c-1.26-2.62-4.72-3.35-6.57-5.6c-1.71-2.05-1.76-5-1.67-7.65c0.12-3.52,0.38-7.18,2.17-10.22
		s5.58-5.17,8.88-4c1.52,0.68,2.87,1.71,3.92,3c1.4,1.35,2.53,2.96,3.3,4.75c1,2.74,0.52,5.8-0.31,8.59s-2,5.52-2.32,8.42
		c-0.22,2.09,0,4.24-0.44,6.3s-1.78,4.16-3.85,4.56C80.49,156.65,81.87,149.73,80.98,147.77z"/>
	<path class="st6" d="M78.61,171.66c0.07,1.39,0.05,3-1,3.92c-0.56,0.44-1.23,0.7-1.94,0.76c-3.89,0.55-44.71-28.12-49.61-49
		c-0.18-0.75,2.66-2.86,4.89-3.55c1.09-0.33,2-0.33,2.43,0.32c15.89,25.63,43,28.6,45.85,29.81c1,0.54,1.62,1.6,1.58,2.74
		C81.27,160.79,78.46,168.3,78.61,171.66z"/>
	<path class="st8" d="M101.89,69.4c-0.04,27.61-22.46,49.97-50.07,49.93S1.85,96.86,1.89,69.25s22.46-49.97,50.07-49.93
		C72.25,19.35,90.5,31.63,98.17,50.4C100.64,56.43,101.9,62.88,101.89,69.4z"/>
	
		<linearGradient id="SVGID_4_" gradientUnits="userSpaceOnUse" x1="121.1147" y1="312.475" x2="-9.2953" y2="95.035" gradientTransform="matrix(1 0 0 -1 -28.46 386.5932)">
		<stop  offset="0" style="stop-color:#000000;stop-opacity:0"/>
		<stop  offset="0.99" style="stop-color:#000000"/>
	</linearGradient>
	<path class="st9" d="M76.36,87.81c0.43,2.35,0.7,4.73,0.79,7.12c-0.06,4.63-2.15,9-5,12.68c-2.99,3.53-6.36,6.73-10.05,9.53
		c3.64,0.8,7.43-0.31,10.81-1.86c8.35-3.85,15.26-10.27,19.69-18.33c0.41-0.58,0.59-1.29,0.51-2c-0.16-0.48-0.43-0.91-0.78-1.26
		c-2.53-3.12-3.59-7.17-5.55-10.68c-1.39-2.47-5.52-7.48-9-5.9C74.54,78.56,75.98,84.99,76.36,87.81z"/>
	<path class="st5" d="M89.51,145.42c0.76,0.06,1.51-0.25,2-0.84c0.51-0.54,0.88-1.2,1.36-1.76c1.1-1.05,2.3-1.98,3.58-2.8
		c1.66-1.32,2.88-3.11,3.5-5.14c0.2-0.51,0.21-1.07,0.03-1.58c-0.27-0.45-0.63-0.84-1.05-1.15c-1.21-1.19-1.39-3-1.6-4.75
		s-0.63-3.57-2.09-4.47c0.23-1.47,0.09-2.97-0.4-4.37c-0.55-1.43-2.05-2.25-3.55-1.94c-0.16,0.07-0.34,0.11-0.52,0.12
		c-0.46,0-0.63-0.61-0.76-1.06c-0.72-2.71-3.51-4.32-6.22-3.6c-0.42,0.11-0.82,0.27-1.19,0.49c-0.4,0.26-0.81,0.49-1.24,0.69
		c-1,0.36-2.09,0.05-3.14,0.14c-1.85,0.15-3.34,1.52-4.61,2.87c-0.27,0.34-0.61,0.62-1,0.82c-0.36,0.12-0.74,0.17-1.12,0.15
		c-1.53,0-3.36,0.54-3.76,2c-0.13,0.56-0.09,1.15,0.11,1.69c0.85,2.54,3.19,4.28,5.87,4.36c1.25,0,2.27-0.87,3.39-1.42
		c0.16-0.1,0.34-0.16,0.53-0.18c0.23,0,0.45,0.06,0.66,0.16c2.15,0.81,4.53,0.44,6.82,0.31c0.49-0.06,1-0.02,1.47,0.14
		c0.47,0.22,0.86,0.57,1.14,1c1.81,2.44,1.36,5.81,0.83,8.81c0.66,0.09,1.33-0.09,1.86-0.5c0.81,1.4,0.34,3.19-1.06,4.01
		c-0.12,0.07-0.25,0.13-0.38,0.18c-0.31,0.06-0.6,0.19-0.86,0.38c-0.18,0.21-0.3,0.46-0.34,0.73
		C87.45,141.22,88.08,143.57,89.51,145.42z"/>
	
		<linearGradient id="SVGID_5_" gradientUnits="userSpaceOnUse" x1="18.2568" y1="334.6593" x2="237.7368" y2="251.4093" gradientTransform="matrix(1 0 0 -1 -28.46 386.5932)">
		<stop  offset="0" style="stop-color:#000000;stop-opacity:0"/>
		<stop  offset="0.99" style="stop-color:#000000"/>
	</linearGradient>
	<path class="st10" d="M44.64,87.3c-0.09,3.06-0.64,6.1-1.63,9c-1.09,2.79-3,5.32-3.3,8.31c-0.14,1.43,0.12,2.88,0,4.31
		c-0.01,1.47-0.8,2.82-2.07,3.55c-1.5,0.48-3.14-0.01-4.13-1.24c-0.94-1.21-1.69-2.56-2.22-4c-1.28-2.76-3.01-5.3-5.12-7.49
		c-1.93-1.76-3.77-3.62-5.52-5.56c-1.61-2-2.75-4.68-2.22-7.25c0.34-1.64,1.34-3.24,1-4.89c-0.28-0.91-0.72-1.77-1.29-2.54
		c-1.72-2.98-1.83-6.62-0.31-9.71c0.92-1.82,2.44-3.52,2.31-5.56c-0.08-0.72-0.27-1.42-0.56-2.09c-0.75-2-1.91-4.24-4-4.38
		c-1.78-0.13-3.17,1.39-4.66,2.37s-4.09,1-4.47-0.72c-0.64-2.64-1.13-5.31-1.46-8c4.63-12.03,13.7-21.83,25.34-27.37
		c1.51,1.3,2.67,2.95,3.38,4.81c-4.54,4.87-4.79,12.5-8.85,17.76c-1.31,1.71-3,3.12-4.16,4.93s-1.7,4.25-0.55,6.06
		c1.94,3.08,6.66,2,10,3.53c2.17,1,3.9,3.09,6.28,3.24c1.27,0.07,2.55-0.45,3.79-0.17c1.77,0.39,2.77,2.24,3.35,4
		C45.62,74.3,45.14,80.89,44.64,87.3z"/>
	<path class="st0" d="M46.04,0.2c4.28,0.01,8.54,0.56,12.68,1.64c1.44,0.25,2.78,0.91,3.87,1.88c1.09,1.03,1.25,2.72,0.37,3.94
		c2.36-0.1,4.36,1.73,4.46,4.09c0.04,0.97-0.24,1.92-0.81,2.7c1.98,0.76,3.57,2.27,4.42,4.21c0.71,1.39,0.68,3.04-0.08,4.4
		c-1.35,2-4.28,1.91-6.69,1.67c-9.94-0.96-19.98-0.32-29.72,1.91c-2.18,0.5-4.95,0.88-6.24-1c-1.45-2.06,0.37-4.78,2.09-6.61
		c-1.59,0.19-2.83-1.67-2.57-3.26c0.42-1.56,1.42-2.91,2.81-3.74c1.37-0.82,2.62-1.83,3.71-3c-1.61-0.13-2.5-2.21-1.88-3.7
		C33.98,1.63,42.7,0.19,46.04,0.2z"/>
	
		<linearGradient id="SVGID_6_" gradientUnits="userSpaceOnUse" x1="76.7054" y1="391.195" x2="79.6153" y2="335.315" gradientTransform="matrix(1 0 0 -1 -28.46 386.5932)">
		<stop  offset="0" style="stop-color:#FFFFFF;stop-opacity:0"/>
		<stop  offset="0.99" style="stop-color:#FFFFFF"/>
	</linearGradient>
	<path class="st11" d="M71.36,22.18c-0.09,0.31-0.23,0.61-0.41,0.88c-1.35,2-4.28,1.91-6.69,1.68c-9.94-0.97-19.98-0.33-29.72,1.9
		c-2.11,0.47-4.76,0.85-6.08-0.77c-0.06-0.05-0.11-0.12-0.16-0.18c-1.44-2.06,0.37-4.79,2.09-6.62c-1.59,0.19-2.83-1.67-2.57-3.26
		c0.42-1.57,1.42-2.91,2.81-3.75c1.37-0.82,2.62-1.83,3.7-3c-1.6-0.13-2.49-2.21-1.87-3.7C34,1.65,42.7,0.21,46.04,0.22
		c4.28,0.01,8.55,0.56,12.69,1.64c1.44,0.25,2.77,0.9,3.86,1.88c1.09,1.03,1.25,2.72,0.37,3.94c2.36-0.11,4.36,1.72,4.47,4.08
		c0.04,0.97-0.24,1.93-0.81,2.71c1.97,0.77,3.55,2.28,4.41,4.21C71.54,19.77,71.66,21.01,71.36,22.18z"/>
	<path class="st6" d="M100.98,124.68c-2.32-10.91-11-19.46-14.1-30.18c-0.13-0.47-1.61-2.81-1.36-3.22c0.54-0.84,7-4.58,7.73-3.94
		c9.13,7.79,12.08,18.15,17.27,29s7.11,41.39,1.2,51.83c-1.43,2.54-2.5-7.64-5.41-7.83c-7.22-0.48-8.95-6.79-7.71-12.26
		C100.33,140.22,102.68,132.8,100.98,124.68z"/>
	
		<linearGradient id="SVGID_7_" gradientUnits="userSpaceOnUse" x1="129.0286" y1="341.9073" x2="-23.8014" y2="256.0373" gradientTransform="matrix(1 0 0 -1 -28.46 386.5932)">
		<stop  offset="0" style="stop-color:#000000;stop-opacity:0"/>
		<stop  offset="0.99" style="stop-color:#000000"/>
	</linearGradient>
	<path class="st12" d="M98.17,50.42c-0.07,0.23-0.13,0.47-0.19,0.71c-0.48,1.51-1.75,2.62-3.31,2.9c-1.53,0.24-3.1,0.2-4.61-0.14
		c-0.37,5,4.42,9.43,3.37,14.29c-0.85,3.89-5.08,6.1-6.76,9.72c-0.56,1.23-0.82,2.59-1.49,3.77c-1.42,2.49-4.34,3.65-7,4.63
		c-0.6,0.28-1.27,0.4-1.93,0.35c-0.81-0.21-1.54-0.68-2.07-1.33c-2.45-2.23-4.61-4.76-6.42-7.54c-1.82-2.81-2.5-6.2-1.91-9.49
		c0.44-1.92,1.44-3.67,2.05-5.54s0.76-4.08-0.38-5.68c-0.52-0.73-1.28-1.27-1.78-2c-0.57-0.73-0.57-1.75,0-2.48
		c0.44-0.33,0.97-0.52,1.52-0.54l7.39-1c1.4-0.06,2.75-0.53,3.88-1.35c1-0.94,1.25-2.86,0.08-3.61c-3.16,2.15-6.75,3.58-10.52,4.21
		c-1.19-2.71-2.39-5.85-1.19-8.57c0.46-0.89,1.04-1.7,1.73-2.43c3.22-3.8,6.44-7.6,9.65-11.4c0.19-0.24,0.43-0.45,0.7-0.6
		C87.6,32.86,94.29,40.93,98.17,50.42z"/>
	
		<linearGradient id="SVGID_8_" gradientUnits="userSpaceOnUse" x1="177.0046" y1="305.0523" x2="186.4729" y2="305.0523" gradientTransform="matrix(1.24 -0.03 0.03 -1.3 -207.3 519.2831)">
		<stop  offset="0" style="stop-color:#ECC4D7"/>
		<stop  offset="0.42" style="stop-color:#EFD4D1"/>
		<stop  offset="1" style="stop-color:#F2EAC9"/>
	</linearGradient>
	<path class="st13" d="M21.3,115.92c0.61,2.87,1.56,5.65,2.82,8.3c0.91,1,1.89,1.94,2.94,2.79c0.91,0.8,2.64-0.61,3.64-1.38
		c2.25-1.74,1.1-7.19,2-10c-1.65-1.09-2.92-0.13-4.51-1.31c-1.14-0.69-2.01-1.75-2.47-3c-0.06-0.4-0.16-0.8-0.3-1.18
		c-0.18-0.34-0.43-0.64-0.72-0.89c-0.42-0.4-1.6-2-2.19-1.86s-1,2-1.08,2.55C20.94,111.9,20.9,113.94,21.3,115.92z"/>
	
		<linearGradient id="SVGID_9_" gradientUnits="userSpaceOnUse" x1="104.6412" y1="303.846" x2="122.4583" y2="303.846" gradientTransform="matrix(1 0 0 -1 -28.46 386.5932)">
		<stop  offset="0" style="stop-color:#ECC4D7"/>
		<stop  offset="0.42" style="stop-color:#EFD4D1"/>
		<stop  offset="1" style="stop-color:#F2EAC9"/>
	</linearGradient>
	<path class="st14" d="M92.9,78.24c-0.21-0.43-0.62-0.91-1.07-0.74c-0.22,0.12-0.39,0.31-0.47,0.55l-1.7,3.34l-2.87-5.24
		c-0.86-1.57-1.91-3.3-3.65-3.73c-0.2-0.08-0.43-0.06-0.61,0.06c-0.23,0.19-0.15,0.55-0.06,0.84l0.71,2.08
		c-1.65-1.3-3.65-2.05-5.74-2.17c-0.39-0.07-0.78,0.04-1.08,0.3c-0.35,0.4-0.13,1,0.1,1.48c0.78,1.55,1.61,3.06,2.5,4.54
		c-0.28-0.57-1.24-0.35-1.5,0.22c-0.19,0.61-0.13,1.27,0.17,1.83c1.6,4.18,4.17,7.93,7.51,10.92c0.42,0.38,1,0.76,1.5,0.54
		c0.33-0.22,0.58-0.54,0.7-0.92c0.69-1.45,1.8-2.65,3.19-3.46C94.29,86.49,94.84,82.2,92.9,78.24z"/>
	<path class="st15" d="M71.47,22.76c-0.08,0.4-0.19,0.79-0.34,1.17c-0.12,0.48-0.09,1-0.18,1.46c-0.46,1.47-1.65,2.6-3.14,3
		c-1.71,0.52-3.49,0.78-5.28,0.78c-3.72,0.2-7.45,0.39-11.17,0.56c-2.53,0.16-5.07,0.19-7.6,0.06c-2.18-0.15-4.34-0.52-6.52-0.48
		c-2.51,0-5.23,0.57-7.32-0.79c-0.69-0.41-1.2-1.06-1.43-1.83c-0.06-0.28-0.06-0.58,0-0.86c1.32,1.62,4,1.24,6.08,0.77
		c9.74-2.23,19.78-2.87,29.72-1.9c2.41,0.23,5.34,0.34,6.69-1.68c0.18-0.27,0.32-0.57,0.41-0.88
		C71.49,22.33,71.51,22.55,71.47,22.76z"/>
	
		<linearGradient id="SVGID_10_" gradientUnits="userSpaceOnUse" x1="56.924" y1="362.9226" x2="99.824" y2="362.9226" gradientTransform="matrix(1 0 0 -1 -28.46 386.5932)">
		<stop  offset="0" style="stop-color:#FFFFFF;stop-opacity:0"/>
		<stop  offset="0.99" style="stop-color:#FFFFFF"/>
	</linearGradient>
	<path class="st16" d="M71.36,22.18c-0.09,0.31-0.23,0.61-0.41,0.88c-1.35,2-4.28,1.91-6.69,1.68c-9.94-0.97-19.98-0.33-29.72,1.9
		c-2.11,0.47-4.76,0.85-6.08-0.77c0.05-0.5,0.32-0.96,0.73-1.26c0.28-0.17,0.58-0.3,0.89-0.38c4.28-1.45,8.66-2.57,13.11-3.34
		c2.13-0.29,4.28-0.47,6.43-0.54c1.78-0.05,3.57-0.05,5.36-0.05c3.11,0.04,6.21,0.21,9.32,0.52c1.53,0.15,3.07,0.34,4.59,0.56
		C69.63,21.46,70.98,21.42,71.36,22.18z"/>
	
		<linearGradient id="SVGID_11_" gradientUnits="userSpaceOnUse" x1="77.1662" y1="385.5779" x2="79.3962" y2="364.9079" gradientTransform="matrix(1 0 0 -1 -28.46 386.5932)">
		<stop  offset="0" style="stop-color:#FFFFFF;stop-opacity:0"/>
		<stop  offset="0.99" style="stop-color:#FFFFFF"/>
	</linearGradient>
	<path class="st17" d="M43.27,8.68h16.58c1.09,0.12,2.19-0.11,3.14-0.66c0.63-0.38,0.87-1.18,0.55-1.84
		c-0.24-0.28-0.56-0.47-0.92-0.56c-4.77-1.7-10-1.67-15-1.37c-2.37,0.05-4.72,0.39-7,1c-1.44,0.44-5.23,1.82-5.44,3.58
		c1.09,0.27,2.73-0.16,3.91-0.2C40.44,8.68,41.86,8.68,43.27,8.68z"/>
	
		<linearGradient id="SVGID_12_" gradientUnits="userSpaceOnUse" x1="76.8185" y1="384.745" x2="77.8385" y2="348.205" gradientTransform="matrix(1 0 0 -1 -28.46 386.5932)">
		<stop  offset="0" style="stop-color:#FFFFFF;stop-opacity:0"/>
		<stop  offset="0.99" style="stop-color:#FFFFFF"/>
	</linearGradient>
	<path class="st18" d="M42.98,15.87c2.53-0.35,5.08-0.46,7.63-0.57c4.52-0.2,9-0.39,13.57-0.34c0.68,0.07,1.37-0.03,2-0.3
		c0.64-0.29,0.97-1,0.77-1.67c-0.29-0.68-1.18-0.82-1.92-0.86c-6.19-0.33-12.4-0.27-18.59,0.19c-1.83,0.1-3.65,0.33-5.45,0.71
		c-3.18,0.86-6.25,2.1-9.14,3.69c-0.73,0.36-2.16,1.27-0.83,1.86c1,0.42,2.84-0.61,3.78-0.88C37.48,16.89,40.22,16.28,42.98,15.87z"
		/>
	<rect x="28.87" y="360.06" class="st19" width="133.33" height="28.44"/>
	<rect x="29.11" y="363.83" class="st2" width="71.66" height="20.88"/>
	<rect x="43.11" y="339.56" class="st0" width="113.88" height="20.65"/>
	
		<linearGradient id="SVGID_13_" gradientUnits="userSpaceOnUse" x1="1644.7656" y1="36.2673" x2="1460.2157" y2="44.7173" gradientTransform="matrix(-1 0 0 -1 1735.14 386.5932)">
		<stop  offset="0" style="stop-color:#000000;stop-opacity:0"/>
		<stop  offset="0.99" style="stop-color:#000000"/>
	</linearGradient>
	<rect x="43.11" y="339.56" class="st20" width="113.88" height="20.65"/>
	<rect x="43.1" y="341.79" class="st2" width="68.68" height="16.44"/>
	<rect x="50.93" y="324.1" class="st0" width="91.28" height="15.5"/>
	
		<linearGradient id="SVGID_14_" gradientUnits="userSpaceOnUse" x1="1638.6318" y1="52.4553" x2="1637.8619" y2="79.2353" gradientTransform="matrix(-1 0 0 -1 1735.14 386.5932)">
		<stop  offset="0" style="stop-color:#000000;stop-opacity:0"/>
		<stop  offset="0.99" style="stop-color:#000000"/>
	</linearGradient>
	<rect x="50.93" y="324.1" class="st21" width="91.28" height="15.5"/>
	<rect x="50.93" y="324.95" class="st2" width="42" height="13.47"/>
	
		<linearGradient id="SVGID_15_" gradientUnits="userSpaceOnUse" x1="92.558" y1="266.2038" x2="-23.292" y2="-10.3262" gradientTransform="matrix(1 0 0 -1 -28.46 386.5932)">
		<stop  offset="0" style="stop-color:#000000;stop-opacity:0"/>
		<stop  offset="0.99" style="stop-color:#000000"/>
	</linearGradient>
	<path class="st22" d="M80.82,156.61c-0.87,0.93-2.5,1.09-3.87,1c-12.34-0.75-23.32-8-32.49-16.32c-3.93-3.55-7.66-7.3-11.2-11.24
		c-1.21-1.34-3.31-2.83-3-4.81c0.08-0.56,0.33-1.09,0.71-1.51c1.09-0.33,2-0.33,2.43,0.32c15.89,25.63,43,28.6,45.85,29.81
		C80.26,154.4,80.87,155.47,80.82,156.61z"/>
</g>
</svg>
