<svg xmlns="http://www.w3.org/2000/svg" xmlns:xlink="http://www.w3.org/1999/xlink" viewBox="0 0 253.4 356.59"><defs><style>.cls-1,.cls-12{fill:#38b87e;}.cls-1{opacity:0.1;}.cls-2{fill:url(#linear-gradient);}.cls-3{fill:#25233a;}.cls-4{fill:#3f3d56;}.cls-5{fill:#22bd94;}.cls-6{fill:#f4d280;}.cls-7{fill:url(#linear-gradient-2);}.cls-8{fill:#222a72;}.cls-9{fill:url(#linear-gradient-3);}.cls-10{fill:url(#linear-gradient-4);}.cls-11{fill:url(#linear-gradient-5);}.cls-13{fill:#14aba1;}.cls-14{fill:#fff;}</style><linearGradient id="linear-gradient" x1="371.35" y1="-8414.03" x2="378.51" y2="-8414.03" gradientTransform="matrix(1, 0, 0, -1, -220.76, -8146.71)" gradientUnits="userSpaceOnUse"><stop offset="0" stop-color="#ecc4d7"/><stop offset="0.42" stop-color="#efd4d1"/><stop offset="1" stop-color="#f2eac9"/></linearGradient><linearGradient id="linear-gradient-2" x1="365.18" y1="-8344.75" x2="360.38" y2="-8356.99" xlink:href="#linear-gradient"/><linearGradient id="linear-gradient-3" x1="353.11" y1="-8344.15" x2="369.78" y2="-8344.15" xlink:href="#linear-gradient"/><linearGradient id="linear-gradient-4" x1="333.8" y1="-8323.5" x2="342.06" y2="-8323.5" xlink:href="#linear-gradient"/><linearGradient id="linear-gradient-5" x1="159.27" y1="-8387.64" x2="123.77" y2="-8401.98" gradientTransform="matrix(1, 0, 0, -1, 0, -8144.43)" gradientUnits="userSpaceOnUse"><stop offset="0" stop-color="#fff"/><stop offset="0" stop-opacity="0"/><stop offset="1"/></linearGradient></defs><title>Asset 79</title><g id="Layer_2" data-name="Layer 2"><g id="Layer_1-2" data-name="Layer 1"><path class="cls-1" d="M72.24,85.05c-13.3,13.87-17.71,34-29,49.58-13.19,18.19-36,30.68-40.77,52.66-5.22,24.2,14.29,46.38,34,61.37,9.47,7.23,19.65,14.19,25.81,24.39,3.86,6.38,5.91,13.66,9,20.44,9.79,21.67,31.45,38.2,55.19,39.4s48-14.48,54.47-37.36c3.14-11.19,2.36-23.71,8.44-33.58,8-12.95,24.69-16.94,36.78-26.14,23.14-17.6,24.41-57.08,2.47-76.15-19.24-16.71-51.43-18.9-62.25-42-2.93-6.26-3.76-13.29-6.33-19.7C146.66,64.66,95.15,61.13,72.24,85.05Z"/><path class="cls-2" d="M157.75,255S157,271.14,156,274.28s.2,4.57-3.07,5.39-2.13-16.82-2.13-16.82l1.11-6.77Z"/><path class="cls-3" d="M123.52,259.66,131.09,304h6.48l1.62-25.54,1.49,32.06h7.11s6.11-35.12,5-41.58a18.76,18.76,0,0,0-2-6.1Z"/><path class="cls-4" d="M128,190.55c-.27-3.43-.08-7.06,1.76-10a9.88,9.88,0,0,1,6.72-4.41c3.94-.6,7.8,1.2,11.39,2.93,5.28,2.59,10.59,5.21,15.23,8.8s8.63,8.3,10.39,13.9a31.86,31.86,0,0,1,1.25,8.4,32.26,32.26,0,0,1-.54,7.91,22.62,22.62,0,0,1-16.09,16.79c-9,2.34-19.24-1-27.38,3.5a3.75,3.75,0,0,1-1.8.66,2.2,2.2,0,0,1-1.9-1.57,5,5,0,0,1,0-2.61,13.88,13.88,0,0,1,3.83-7c2.48-2.43,5.79-3.83,8.5-6a2.69,2.69,0,0,0,1-1.27c.32-1.2-.93-2.19-2.07-2.63s-2.51-.84-3-2a4.62,4.62,0,0,1,.26-2.89c1-4.2-1.2-7-3.51-10.13C129.39,199.43,128.32,194.94,128,190.55Z"/><path class="cls-3" d="M148,191.79A64,64,0,0,0,156.64,203c4.65,4.47,12.56,12.51,7.52,18.62a30.06,30.06,0,0,1-11.25,8.43l-10.24-10.28V203Z"/><path class="cls-5" d="M112.48,185.79l9.76-.73s-2.74,18.95,10.59,25.1,21.52,7.44,22.42,12.18,4.43,32.16,4.43,32.16L153,256.07l-.2-21.2.26,26.74s-14.54,8.15-18.72,6.54-13-2.94-12.76-16.56,6.59-23.27-.34-33.63S112.3,190.7,112.48,185.79Z"/><path class="cls-6" d="M112.48,185.79l9.76-.73s-2.74,18.95,10.59,25.1,21.52,7.44,22.42,12.18,4.43,32.16,4.43,32.16L153,256.07l-.2-21.2.26,26.74s-14.54,8.15-18.72,6.54-13-2.94-12.76-16.56,6.59-23.27-.34-33.63S112.3,190.7,112.48,185.79Z"/><path class="cls-7" d="M135.72,211.49s.37,5.63,4,5.49,3.62-1.94,3.62-1.94l2.31-9.83-9.93.6S136.85,210,135.72,211.49Z"/><path class="cls-8" d="M136.17,208.39s-.45,2.9,1.41,3.73a6.19,6.19,0,0,0,5.6-1l.16,3.93,1.68-7.16Z"/><path class="cls-9" d="M132.62,191.6s-2.1,14.92,5.42,17.93,9.82-5.08,10.8-9S147,182.76,141,184.92A16.14,16.14,0,0,0,132.62,191.6Z"/><path class="cls-10" d="M115,185.61s.7-5.22.72-5.31a2.71,2.71,0,0,0-1.12-2.54c-.72-.54-1.51-1.8-1.51-4.71s3.08-6.05,4.35-4.79,1.28,2.25,2.46,2.44.27,3.18,0,4.19,1.45,10.26,1.45,10.26Z"/><polygon class="cls-11" points="152.77 234.89 156.67 255.2 152.97 256.07 152.77 234.89"/><path class="cls-3" d="M140.68,310.51s-1.68,16.61,1.08,30.1h1.93l4.1-30.1Z"/><path class="cls-3" d="M131.09,304,135,337.86l1.41-.6s2.65-24,2.43-26.3-1.23-7-1.23-7Z"/><path class="cls-3" d="M136.37,337.27a5.3,5.3,0,0,1,.76,2.48c-.07.71-5,6.78-8.46,10.05-3.78,3.54-7.44,2.23-7.44,2.23-1.37-.14-2.07-3.28-1-4.2a29.74,29.74,0,0,1,7.58-4.72c6.26-2.65,7.19-5.28,7.19-5.28Z"/><path class="cls-3" d="M141.76,340.61a9.25,9.25,0,0,0-.4,3.66c.24,1.75,7.79,10.35,7.79,10.35s6.19,4,8.36.56-6.4-8-8.1-9-5.72-5.57-5.72-5.57Z"/><path class="cls-12" d="M98.48,121.13a13.2,13.2,0,0,0,12.28,9.23c3.44,0,7.32-1.57,10.92-5.91,9.59-11.59-9.29-23.11,14.5-47.79S163.68,3,121,.13,71.24,43.76,71.24,43.76l22.91,9s8.75-26.57,23.18-23.2.84,27.24-8.27,36.31C89,85.84,94.8,109.71,98.48,121.13Z"/><circle class="cls-12" cx="114.08" cy="148.93" r="12.9"/><path class="cls-13" d="M46.21,140.43a5.57,5.57,0,0,0,6.24,1.9A6,6,0,0,0,56,138.39c2.15-6-7.06-7.89-1.13-21.2s.3-33.41-17.19-28.37-13.51,24.65-13.51,24.65l10.45.26s-.35-11.89,5.9-12.63,4.29,10.76,2,15.7C37.32,127.7,43.07,136.4,46.21,140.43Z"/><circle class="cls-13" cx="56.47" cy="149.27" r="5.48"/><path class="cls-12" d="M18.41,192.76a5.58,5.58,0,0,0,5.94,2.71,6,6,0,0,0,4-3.45c2.92-5.68-6-8.74,1.66-21.16s4.68-33.09-13.32-30.38S0,163.13,0,163.13l10.32,1.64s1.19-11.83,7.5-11.75,2.84,11.23-.11,15.82C11.24,179,15.83,188.36,18.41,192.76Z"/><circle class="cls-12" cx="27.41" cy="202.89" r="5.48"/><path class="cls-12" d="M185.6,146.3a5.57,5.57,0,0,0,4.19,5,6,6,0,0,0,5.09-1.41c5.07-3.89-1.66-10.45,10.55-18.43s18.36-27.89,1-33.16-24.74,13.38-24.74,13.38l8.64,5.88s6.15-10.19,11.81-7.41-2.24,11.39-6.87,14.26C185,130.78,185.15,141.23,185.6,146.3Z"/><circle class="cls-12" cx="189.41" cy="159.3" r="5.48"/><path class="cls-13" d="M221,198.5a4.17,4.17,0,0,0,1.5,4.62,4.41,4.41,0,0,0,3.89.47c4.59-1.24,1.8-7.66,12.46-9.69s20.53-14,10-22.54-20.79,2.2-20.79,2.2l4.28,6.49s7.11-5.27,10.19-1.76-4.74,7.2-8.75,7.87C225,187.66,222.18,194.88,221,198.5Z"/><circle class="cls-13" cx="220" cy="208.51" r="4.08"/><path class="cls-14" d="M114.43,321.35a.39.39,0,0,1-.21-.06.42.42,0,0,1-.17-.58v0a142.9,142.9,0,0,0,11.06-26.09c4.45-14.12,8.65-35.2,3.36-55.43-10.19-38.94-12.56-62.86-12.59-63.1a.43.43,0,0,1,.85-.08c0,.24,2.4,24.09,12.56,63,5.34,20.43,1.11,41.69-3.38,55.92a144.37,144.37,0,0,1-11.13,26.25A.45.45,0,0,1,114.43,321.35Z"/></g></g></svg>