<svg xmlns="http://www.w3.org/2000/svg" viewBox="0 0 14.78 14.78"><defs><style>.cls-1{fill:#8a9899;}</style></defs><title>Asset 48</title><g id="Layer_2" data-name="Layer 2"><g id="Layer_1-2" data-name="Layer 1"><circle class="cls-1" cx="7.34" cy="10.85" r="0.72"/><path class="cls-1" d="M7.39,0a7.39,7.39,0,1,0,7.39,7.39A7.39,7.39,0,0,0,7.39,0Zm0,13.62a6.24,6.24,0,1,1,6.23-6.23A6.23,6.23,0,0,1,7.39,13.62Z"/><path class="cls-1" d="M7.34,3.68A2.3,2.3,0,0,0,5.05,6,.57.57,0,0,0,6.19,6,1.15,1.15,0,1,1,7.34,7.13a.56.56,0,0,0-.57.57V9.13a.57.57,0,1,0,1.14,0V8.2a2.3,2.3,0,0,0-.57-4.52Z"/></g></g></svg>