<svg xmlns="http://www.w3.org/2000/svg" viewBox="0 0 16.4 15.44"><defs><style>.cls-1{fill:#38b87e;stroke:#38b87e;stroke-miterlimit:10;stroke-width:0.4px;}</style></defs><title>Asset 45</title><g id="Layer_2" data-name="Layer 2"><g id="Layer_1-2" data-name="Layer 1"><path class="cls-1" d="M13.56,7.57A.45.45,0,0,0,13.1,8v6.31H9.83V11.76a.45.45,0,0,0-.44-.45H7a.47.47,0,0,0-.47.45v2.58H3.29V8.24a.45.45,0,0,0-.46-.44.44.44,0,0,0-.44.44V14.8a.44.44,0,0,0,.44.44H7a.45.45,0,0,0,.45-.44V12.22H8.93V14.8a.45.45,0,0,0,.46.44h4.17A.45.45,0,0,0,14,14.8V8A.45.45,0,0,0,13.56,7.57Z"/><path class="cls-1" d="M16.07,7.93,12.43,4.28V1.78A.46.46,0,0,0,12,1.33a.45.45,0,0,0-.44.45V3.36l-3-3A.44.44,0,0,0,8.2.2a.45.45,0,0,0-.32.14L.34,7.88a.44.44,0,0,0,0,.64.44.44,0,0,0,.64,0L8.2,1.31l7.22,7.28a.44.44,0,0,0,.32.11.52.52,0,0,0,.33-.11A.48.48,0,0,0,16.07,7.93Z"/></g></g></svg>