<svg xmlns="http://www.w3.org/2000/svg" viewBox="0 0 16.21 12.2"><defs><style>.cls-1{fill:#8a9899;}</style></defs><title>Asset 46</title><g id="Layer_2" data-name="Layer 2"><g id="Layer_1-2" data-name="Layer 1"><path class="cls-1" d="M15.4,12H4.56a.81.81,0,0,1,0-1.62H15.4a.81.81,0,0,1,0,1.62Z"/><path class="cls-1" d="M15.4,6.91H4.56a.81.81,0,0,1,0-1.62H15.4a.81.81,0,1,1,0,1.62Z"/><path class="cls-1" d="M15.4,1.83H4.56A.81.81,0,0,1,3.75,1,.82.82,0,0,1,4.56.21H15.4a.81.81,0,1,1,0,1.62Z"/><circle class="cls-1" cx="1.09" cy="1.09" r="1.09"/><circle class="cls-1" cx="1.09" cy="6.1" r="1.09"/><circle class="cls-1" cx="1.09" cy="11.12" r="1.09"/></g></g></svg>