<svg xmlns="http://www.w3.org/2000/svg" viewBox="0 0 15.24 15.24"><defs><style>.cls-1{fill:#8a9899;stroke:#8a9899;stroke-miterlimit:10;stroke-width:0.65px;}</style></defs><title>Asset 49</title><g id="Layer_2" data-name="Layer 2"><g id="Layer_1-2" data-name="Layer 1"><path class="cls-1" d="M14,9.85a6.7,6.7,0,0,0,.17-1.47A6.51,6.51,0,0,0,11.05,2.8a.27.27,0,0,0-.35.08.26.26,0,0,0,.08.35,6,6,0,0,1,2.88,5.15,6.29,6.29,0,0,1-.14,1.29,2.2,2.2,0,0,0-.36,0,1.79,1.79,0,1,0,.83.22Zm-.83,2.8a1.26,1.26,0,1,1,1.26-1.25A1.25,1.25,0,0,1,13.16,12.65Z"/><path class="cls-1" d="M9.93,14a6,6,0,0,1-6.59-1.33,1.76,1.76,0,1,0-1.25.53,1.79,1.79,0,0,0,.85-.22,6.54,6.54,0,0,0,4.68,2,6.45,6.45,0,0,0,2.5-.5A.25.25,0,1,0,9.93,14ZM.83,11.4a1.26,1.26,0,1,1,1.26,1.25A1.25,1.25,0,0,1,.83,11.4Z"/><path class="cls-1" d="M1.33,8.18h0A.25.25,0,0,0,1.6,8,6,6,0,0,1,5.93,2.58a1.77,1.77,0,1,0-.07-.5A6.51,6.51,0,0,0,1.1,7.91.25.25,0,0,0,1.33,8.18ZM7.62.83A1.26,1.26,0,1,1,6.36,2.09,1.25,1.25,0,0,1,7.62.83Z"/></g></g></svg>