<svg xmlns="http://www.w3.org/2000/svg" xmlns:xlink="http://www.w3.org/1999/xlink" viewBox="0 0 424.9 450.42"><defs><style>.cls-1,.cls-2{fill:#22bd94;}.cls-1{opacity:0.18;isolation:isolate;}.cls-3{fill:url(#linear-gradient);}.cls-4{fill:#14aba1;}.cls-5{fill:#38b87e;}.cls-6{fill:#3f3d56;}.cls-7{fill:#25233a;}.cls-8{fill:url(#linear-gradient-2);}.cls-9{fill:#f4d280;}.cls-10{fill:url(#linear-gradient-3);}.cls-11{fill:url(#linear-gradient-4);}.cls-12{fill:url(#linear-gradient-5);}.cls-13{fill:url(#linear-gradient-6);}.cls-14{fill:url(#linear-gradient-7);}.cls-15{fill:url(#linear-gradient-8);}.cls-16{fill:url(#linear-gradient-9);}.cls-17{fill:url(#linear-gradient-10);}.cls-18{fill:url(#linear-gradient-11);}.cls-19{fill:url(#linear-gradient-12);}.cls-20{fill:url(#linear-gradient-13);}.cls-21{fill:url(#linear-gradient-14);}.cls-22{fill:url(#linear-gradient-15);}.cls-23{fill:url(#linear-gradient-16);}.cls-24{fill:url(#linear-gradient-17);}.cls-25{fill:url(#linear-gradient-18);}.cls-26{fill:url(#linear-gradient-19);}.cls-27{fill:url(#linear-gradient-20);}.cls-28{fill:url(#linear-gradient-21);}.cls-29{fill:url(#linear-gradient-22);}.cls-30{fill:url(#linear-gradient-23);}.cls-31{fill:url(#linear-gradient-24);}.cls-32{fill:url(#linear-gradient-25);}.cls-33{fill:url(#linear-gradient-26);}.cls-34{fill:url(#linear-gradient-27);}.cls-35{fill:url(#linear-gradient-28);}.cls-36{fill:url(#linear-gradient-29);}.cls-37{fill:url(#linear-gradient-30);}.cls-38{fill:url(#linear-gradient-31);}.cls-39{fill:url(#linear-gradient-32);}</style><linearGradient id="linear-gradient" x1="440.88" y1="-10036.93" x2="431.35" y2="-10072.96" gradientTransform="matrix(1, 0, 0, -1, -151.6, -9876.41)" gradientUnits="userSpaceOnUse"><stop offset="0" stop-color="#fff" stop-opacity="0"/><stop offset="0.06" stop-color="#fff" stop-opacity="0.13"/><stop offset="0.16" stop-color="#fff" stop-opacity="0.33"/><stop offset="0.26" stop-color="#fff" stop-opacity="0.51"/><stop offset="0.37" stop-color="#fff" stop-opacity="0.66"/><stop offset="0.48" stop-color="#fff" stop-opacity="0.79"/><stop offset="0.59" stop-color="#fff" stop-opacity="0.88"/><stop offset="0.71" stop-color="#fff" stop-opacity="0.95"/><stop offset="0.84" stop-color="#fff" stop-opacity="0.99"/><stop offset="1" stop-color="#fff"/></linearGradient><linearGradient id="linear-gradient-2" x1="371.71" y1="-10044.87" x2="383.28" y2="-10044.87" gradientTransform="matrix(1, 0, 0, -1, -151.6, -9876.41)" gradientUnits="userSpaceOnUse"><stop offset="0" stop-color="#ecc4d7"/><stop offset="0.42" stop-color="#efd4d1"/><stop offset="1" stop-color="#f2eac9"/></linearGradient><linearGradient id="linear-gradient-3" x1="404.85" y1="-10232.89" x2="260.88" y2="-10298.79" gradientTransform="matrix(1, 0, 0, -1, -151.6, -9876.41)" gradientUnits="userSpaceOnUse"><stop offset="0" stop-opacity="0.07"/><stop offset="0.08" stop-opacity="0.25"/><stop offset="1"/></linearGradient><linearGradient id="linear-gradient-4" x1="337.52" y1="-10256.67" x2="482.76" y2="-10235.68" xlink:href="#linear-gradient-3"/><linearGradient id="linear-gradient-5" x1="351.47" y1="-10170.92" x2="316.17" y2="-10201.4" xlink:href="#linear-gradient-3"/><linearGradient id="linear-gradient-6" x1="325.21" y1="-10184.62" x2="337.32" y2="-10239.33" gradientTransform="matrix(1, 0, 0, -1, -151.6, -9876.41)" gradientUnits="userSpaceOnUse"><stop offset="0" stop-opacity="0.07"/><stop offset="0.52" stop-opacity="0.83"/><stop offset="0.56" stop-opacity="0.87"/><stop offset="1"/></linearGradient><linearGradient id="linear-gradient-7" x1="345.96" y1="-10109.04" x2="368.78" y2="-10109.04" xlink:href="#linear-gradient-2"/><linearGradient id="linear-gradient-8" x1="357.43" y1="-10108.17" x2="391.51" y2="-10160.93" xlink:href="#linear-gradient-2"/><linearGradient id="linear-gradient-9" x1="496.54" y1="-10071.2" x2="485.23" y2="-10131.25" gradientTransform="matrix(1, 0, 0, -1, -151.6, -9876.41)" gradientUnits="userSpaceOnUse"><stop offset="0.02" stop-color="#fff" stop-opacity="0"/><stop offset="0.06" stop-color="#fff" stop-opacity="0.13"/><stop offset="0.13" stop-color="#fff" stop-opacity="0.33"/><stop offset="0.2" stop-color="#fff" stop-opacity="0.51"/><stop offset="0.27" stop-color="#fff" stop-opacity="0.66"/><stop offset="0.35" stop-color="#fff" stop-opacity="0.79"/><stop offset="0.43" stop-color="#fff" stop-opacity="0.88"/><stop offset="0.51" stop-color="#fff" stop-opacity="0.95"/><stop offset="0.6" stop-color="#fff" stop-opacity="0.99"/><stop offset="0.71" stop-color="#fff"/></linearGradient><linearGradient id="linear-gradient-10" x1="232.79" y1="-10080" x2="233.53" y2="-10135.66" xlink:href="#linear-gradient"/><linearGradient id="linear-gradient-11" x1="320.83" y1="-10187.28" x2="332.51" y2="-10187.28" xlink:href="#linear-gradient-2"/><linearGradient id="linear-gradient-12" x1="65.7" y1="-10340.87" x2="81.07" y2="-10340.87" gradientTransform="matrix(1, 0, 0, -1, -2.14, -9938.28)" xlink:href="#linear-gradient-2"/><linearGradient id="linear-gradient-13" x1="90.55" y1="-10339.32" x2="106.17" y2="-10339.32" gradientTransform="matrix(1, 0, 0, -1, -2.14, -9938.28)" xlink:href="#linear-gradient-2"/><linearGradient id="linear-gradient-14" x1="108.74" y1="-10178.83" x2="171.81" y2="-10178.83" gradientTransform="matrix(1, 0, 0, -1, -2.14, -9938.28)" xlink:href="#linear-gradient-2"/><linearGradient id="linear-gradient-15" x1="2.14" y1="-10184.55" x2="57.82" y2="-10184.55" gradientTransform="matrix(1, 0, 0, -1, -2.14, -9938.28)" xlink:href="#linear-gradient-2"/><linearGradient id="linear-gradient-16" x1="93.72" y1="-10184.55" x2="98.56" y2="-10184.55" gradientTransform="matrix(1, 0, 0, -1, -2.14, -9938.28)" xlink:href="#linear-gradient-2"/><linearGradient id="linear-gradient-17" x1="95.17" y1="-10184.34" x2="105.2" y2="-10188.63" gradientTransform="matrix(1, 0, 0, -1, -2.14, -9938.28)" xlink:href="#linear-gradient-2"/><linearGradient id="linear-gradient-18" x1="65.7" y1="-10219.07" x2="144.21" y2="-10257.66" gradientTransform="matrix(1, 0, 0, -1, -2.14, -9938.28)" gradientUnits="userSpaceOnUse"><stop offset="0" stop-opacity="0"/><stop offset="0.88" stop-opacity="0.8"/><stop offset="0.97"/></linearGradient><linearGradient id="linear-gradient-19" x1="85.7" y1="-10198.41" x2="94.82" y2="-10209.7" gradientTransform="matrix(1, 0, 0, -1, -2.14, -9938.28)" xlink:href="#linear-gradient-2"/><linearGradient id="linear-gradient-20" x1="86.85" y1="-10165.98" x2="81.3" y2="-10194.73" gradientTransform="matrix(1, 0, 0, -1, -2.14, -9938.28)" xlink:href="#linear-gradient-2"/><linearGradient id="linear-gradient-21" x1="72.53" y1="-10204.65" x2="44.91" y2="-10220.78" xlink:href="#linear-gradient-18"/><linearGradient id="linear-gradient-22" x1="74.45" y1="-10290.2" x2="117.86" y2="-10287.5" xlink:href="#linear-gradient-18"/><linearGradient id="linear-gradient-23" x1="358.26" y1="106.3" x2="368.26" y2="106.3" gradientTransform="translate(-0.33 172.8)" xlink:href="#linear-gradient-2"/><linearGradient id="linear-gradient-24" x1="363.57" y1="100.74" x2="361.51" y2="123.86" gradientTransform="translate(-0.33 172.8)" xlink:href="#linear-gradient-2"/><linearGradient id="linear-gradient-25" x1="349.33" y1="92.53" x2="370.53" y2="92.53" gradientTransform="translate(-0.33 172.8)" xlink:href="#linear-gradient-2"/><linearGradient id="linear-gradient-26" x1="396.88" y1="75.01" x2="425.23" y2="75.01" gradientTransform="translate(-0.33 172.8)" xlink:href="#linear-gradient-2"/><linearGradient id="linear-gradient-27" x1="418.71" y1="71.66" x2="415.84" y2="49.4" gradientTransform="translate(-0.33 172.8)" xlink:href="#linear-gradient-2"/><linearGradient id="linear-gradient-28" x1="1546.56" y1="364.75" x2="1574.91" y2="364.75" gradientTransform="matrix(-0.85, -0.53, -0.53, 0.85, 1850.16, 744.62)" xlink:href="#linear-gradient-2"/><linearGradient id="linear-gradient-29" x1="1569.07" y1="361.77" x2="1566.2" y2="339.51" gradientTransform="matrix(-0.85, -0.53, -0.53, 0.85, 1850.16, 744.62)" xlink:href="#linear-gradient-2"/><linearGradient id="linear-gradient-30" x1="286.75" y1="258.34" x2="290.43" y2="273.63" gradientTransform="translate(-0.33 172.8)" gradientUnits="userSpaceOnUse"><stop offset="0" stop-color="#68e1fd"/><stop offset="0.01" stop-color="#67ddf9"/><stop offset="0.12" stop-color="#5cb3ce"/><stop offset="0.24" stop-color="#538ea9"/><stop offset="0.37" stop-color="#4c718b"/><stop offset="0.5" stop-color="#465a73"/><stop offset="0.63" stop-color="#424a63"/><stop offset="0.79" stop-color="#404059"/><stop offset="0.99" stop-color="#3f3d56"/></linearGradient><linearGradient id="linear-gradient-31" x1="377.25" y1="268.64" x2="383.37" y2="277.21" xlink:href="#linear-gradient-30"/><linearGradient id="linear-gradient-32" x1="361.88" y1="-10136.87" x2="429.98" y2="-10287.57" gradientTransform="matrix(1, 0, 0, -1, 0, -9876.41)" gradientUnits="userSpaceOnUse"><stop offset="0" stop-opacity="0"/><stop offset="0.91" stop-opacity="0.8"/><stop offset="1"/></linearGradient></defs><title>Asset 80</title><g id="Layer_2" data-name="Layer 2"><g id="Layer_1-2" data-name="Layer 1"><path class="cls-1" d="M169.43,84c-7,16.89-8.5,36.07-18.19,51.57-14.71,23.53-44.08,32.62-65.54,50.18s-34.88,45-32.75,72.53S74.16,312,100.6,319.81c9.16,2.73,19.1,3.41,27.34,8.24,18.39,10.77,21.17,37.25,37.63,50.78,14.73,12.09,36.37,10.6,54.59,5s35.72-14.62,54.74-15.76c11.34-.68,22.75,1.49,34,.32,14.4-1.5,27.62-8.35,40.28-15.37,22-12.22,45.69-28.57,49.35-53.48,4.2-28.7-20.46-54.73-20.07-83.74.18-13.48,5.84-26.46,6.37-40a54,54,0,0,0-25.09-47.08c-13-8-28.8-10.08-42.37-17.05-18.39-9.46-31-27-46.64-40.51C242.54,46.71,185.79,44.6,169.43,84Z"/><path class="cls-2" d="M289.14,169.84c2.37-3.38,7.35-3.94,11.24-2.54s7,4.29,10.23,6.86,6.94,5,11.07,5a29.14,29.14,0,0,1,4.94-.05,6.61,6.61,0,0,1,5.25,6.54,96.08,96.08,0,0,0-35,4.5c-5.56,1.79-12,4-16.9.83-1.84-1.2-3.25-3.07-5.3-3.83-4.24-1.56-9,2.25-13.28.82-1.85-.63-3.23-2.15-4.87-3.23-5.4-3.59-12.89-2.07-18.6-5.15a3.74,3.74,0,0,1-2.08-2.24c-.3-1.43,1-2.79,2.36-3.2a12.44,12.44,0,0,1,4.35-.07,21.17,21.17,0,0,0,10.81-2.16c1.4-.7,2.86-1.59,4.42-1.37,3.1.44,5.37,5,8.15,3.63-2,1-1.27-5.81-.91-6.47,1.17-2.1,5-3.58,7.17-4.15C278.37,162,285.62,164.38,289.14,169.84Z"/><path class="cls-3" d="M289.14,169.84c2.37-3.38,7.35-3.94,11.24-2.54s7,4.29,10.23,6.86,6.94,5,11.07,5a29.14,29.14,0,0,1,4.94-.05,6.61,6.61,0,0,1,5.25,6.54,96.08,96.08,0,0,0-35,4.5c-5.56,1.79-12,4-16.9.83-1.84-1.2-3.25-3.07-5.3-3.83-4.24-1.56-9,2.25-13.28.82-1.85-.63-3.23-2.15-4.87-3.23-5.4-3.59-12.89-2.07-18.6-5.15a3.74,3.74,0,0,1-2.08-2.24c-.3-1.43,1-2.79,2.36-3.2a12.44,12.44,0,0,1,4.35-.07,21.17,21.17,0,0,0,10.81-2.16c1.4-.7,2.86-1.59,4.42-1.37,3.1.44,5.37,5,8.15,3.63-2,1-1.27-5.81-.91-6.47,1.17-2.1,5-3.58,7.17-4.15C278.37,162,285.62,164.38,289.14,169.84Z"/><polygon class="cls-4" points="245.99 0 165.75 85.48 202.75 85.48 202.75 169.59 284.21 169.59 284.21 84.8 319.31 84.8 245.99 0"/><polygon class="cls-5" points="69.17 163.47 118.68 109.12 169.83 162.41 138.42 162.41 138.42 231.03 94.81 231.03 94.81 163.47 69.17 163.47"/><polygon class="cls-5" points="317.03 135.84 366.55 81.49 417.7 134.78 386.28 134.78 386.28 203.39 342.68 203.39 342.68 135.84 317.03 135.84"/><path class="cls-6" d="M234.17,237.81s.06,67.05-2.92,73.32c-2.34,4.94-22.85,12.2-31.5,15.09-2.34.78-3.83,1.24-3.83,1.24l1.66-32a72.64,72.64,0,0,1-3.19,12.74c-2,5.47-5,10.34-9.3,9-8.93-2.83-11.45-4.49-11.45-4.49l-3.81-13.48s14.31-6.46,14.58-14.3,4.85-31.32,17.27-36.5l2.56-1.07,9.87-4.11s8.24-25.42,6.45-46.75,0-24.53,0-24.53h12.56s.84,21.85,1,28S234.17,237.81,234.17,237.81Z"/><path class="cls-7" d="M224.89,226.13a116.66,116.66,0,0,1-5.75,16.15c-1.12,2.25-1.8,7.16-4.09,8.62-2.44,1.55-6.94-1.75-9.24-2.78-.52-.24-1.05-.49-1.57-.75l9.87-4.11s8.24-25.42,6.45-46.75,0-24.53,0-24.53h1.28a2.63,2.63,0,0,1,.56.38c1.24,1,1.42,2.86,1.5,4.49.28,4.67.56,9.41-.35,14a60,60,0,0,0-1.32,6.51,8.29,8.29,0,0,0,1.66,6.26,13,13,0,0,1,2.1,2.29,6,6,0,0,1,.56,2.59A59.45,59.45,0,0,1,224.89,226.13Z"/><path class="cls-7" d="M203.62,319.46a15.58,15.58,0,0,0-1.5,3.17,7.25,7.25,0,0,1-.47,1.5,4.08,4.08,0,0,1-.83,1l-1.08,1.1c-2.34.78-3.83,1.24-3.83,1.24l1.67-32a73.54,73.54,0,0,1-3.19,12.74c.56-5.58,2.45-13.66,2.53-16.93a48,48,0,0,1,2.42-13.81c1.2.85,1.6,2.42,1.83,3.87.88,5.62.58,11.44,2.24,16.88,1.09,3.56,3,6.93,3.25,10.65S205.42,316.2,203.62,319.46Z"/><path class="cls-5" d="M202.5,301.6l-6.09,5.85a2,2,0,0,1-1.15.55l-36.65,4.5a2,2,0,0,1-2.18-1.41L148,283.72a2,2,0,0,1,1.36-2.53,2.05,2.05,0,0,1,.34-.07l34-3.87a2,2,0,0,1,2.15,1.4l5.55,18.06c.25.85.46,1.43.46,1.43h9.23a2,2,0,0,1,1.38,3.46Z"/><path class="cls-8" d="M220.12,166.09a1.54,1.54,0,0,1,.39-1.36,1.1,1.1,0,0,1,1.28.09,3,3,0,0,1,.82,1.09l1,1.77a3.62,3.62,0,0,0,1,1.28,3.72,3.72,0,0,0,2.34.42l4-.17a1,1,0,0,1,.5.08.8.8,0,0,1,.27.75,4.34,4.34,0,0,1-.46,1.87l-4.5.17c-1.23,0-3.17.49-4.34.12C220.59,171.61,220.2,167.67,220.12,166.09Z"/><path class="cls-9" d="M232.7,385.63c-.42,2.52-4.5,14.18-4.5,14.18l-3.07-2-4-2.6s7.32-33.48,6.67-36.91S222,346,222,346l-3.49,80.57-9,3.47s-14.47-86.93-13.65-102.61l35.33-16.33S241.72,342,243,348.53,233.13,383.1,232.7,385.63Z"/><path class="cls-6" d="M219.51,404.17l15.73,9.94s1.85-3-1.07-6.88-6-7.42-6-7.42l-7.1-4.59Z"/><path class="cls-6" d="M209.58,430.08s-5,9.46-3.16,14.5,6.15-1.12,8.62-4.83c2.1-3.16,4.45-9.67,4.45-9.67l-1-3.47Z"/><path class="cls-10" d="M235.8,353.79l-10.67,44-4-2.6s7.32-33.48,6.67-36.91S222,346,222,346s4.15-7.35,5.63-5.78S235.8,353.79,235.8,353.79Z"/><path class="cls-11" d="M202,324.66l9.45,104.7-1.85.75s-14.45-87.32-13.66-102.61Z"/><path class="cls-12" d="M201.11,298.11l-7.1,6.54-2.58-7.94c.25.85.46,1.43.46,1.43Z"/><path class="cls-13" d="M148,283.75l33.79-3.69a2.54,2.54,0,0,1,2.68,1.69l9.3,26.43-35.21,4.35Z"/><path class="cls-14" d="M213,236.62c-.87,1.93,1.15,6.64,1.15,6.64a15,15,0,0,1,1.44,8.38h0a3.29,3.29,0,0,1-.12.61c-1.1,4.41-15.1-.25-14.68-6.42S194.36,224,194.36,224c4-17.65,17.11-12,18.28-11.11s5.53,14.9,4.34,18.07a9,9,0,0,1-1.45,2.53C214.56,234.67,213.53,235.35,213,236.62Z"/><path class="cls-6" d="M212.64,212.85s2-4.88,0-6.62-5.24-2.2-8.95-2.36-4.87-.79-7.77,2.36-3.87,8.09-5.67,8.94a5.49,5.49,0,0,0-2.42,6.5c.94,2.81,3.31,7.28,3.78,7.43s3.71,3.62,3.86,5.67,4.33,3,4.33,3l-.23-8.09s-.47,2.13-2.44.32.94-3.94,1.17-3.86-2.24-4.15-1.46-6.22S202.15,206.73,212.64,212.85Z"/><path class="cls-15" d="M215.55,251.67h0a2.45,2.45,0,0,1-.55.84,2.72,2.72,0,0,1-2.74.45,5.75,5.75,0,0,1-2.3-1.75,13.84,13.84,0,0,1-3.11-11.71,5.83,5.83,0,0,1,.81-2.12c1-1.43,2.84-1.95,4.46-2.62s2.8-1.75,3.41-1.29c-1,1.21-2,1.9-2.57,3.17-.87,1.93,1.15,6.63,1.15,6.63A15,15,0,0,1,215.55,251.67Z"/><path class="cls-2" d="M289.31,215.34a14.8,14.8,0,0,0,9,16.59c5.43,2,11.44.54,17.23.55,10.13,0,19.75,4.58,29.85,5.24A39.34,39.34,0,0,0,364.85,234c3.5-1.67,6.86-3.89,10.71-4.38,3.22-.41,6.58.44,9.7-.48,5.29-1.58,7.94-8.31,6-13.49s-7.37-8.49-12.88-9c-5.35-.44-10.87,1.38-16-.16-5.75-1.72-9.69-7.28-15.39-9.14-8.36-2.71-16.82,3.27-23.58,8.89a10.78,10.78,0,0,0-9.74-7.15c-4.42-.09-8.79,3.58-12.8,5.24C295.54,206.61,290.73,209.07,289.31,215.34Z"/><path class="cls-16" d="M289.31,215.34a14.8,14.8,0,0,0,9,16.59c5.43,2,11.44.54,17.23.55,10.13,0,19.75,4.58,29.85,5.24A39.34,39.34,0,0,0,364.85,234c3.5-1.67,6.86-3.89,10.71-4.38,3.22-.41,6.58.44,9.7-.48,5.29-1.58,7.94-8.31,6-13.49s-7.37-8.49-12.88-9c-5.35-.44-10.87,1.38-16-.16-5.75-1.72-9.69-7.28-15.39-9.14-8.36-2.71-16.82,3.27-23.58,8.89a10.78,10.78,0,0,0-9.74-7.15c-4.42-.09-8.79,3.58-12.8,5.24C295.54,206.61,290.73,209.07,289.31,215.34Z"/><path class="cls-2" d="M30.39,226.44a14.8,14.8,0,0,0,9,16.59c5.43,2,11.43.53,17.23.55,10.12,0,19.74,4.58,29.85,5.24a39.34,39.34,0,0,0,19.43-3.74c3.5-1.67,6.86-3.89,10.71-4.38,3.22-.4,6.58.45,9.7-.48,5.28-1.57,7.94-8.31,6-13.48s-7.38-8.5-12.88-9c-5.35-.45-10.88,1.37-16-.16-5.76-1.72-9.7-7.29-15.4-9.14-8.35-2.72-16.81,3.27-23.57,8.88a10.77,10.77,0,0,0-9.74-7.14c-4.42-.09-8.79,3.57-12.8,5.24C36.62,217.72,31.83,220.21,30.39,226.44Z"/><path class="cls-17" d="M30.39,226.44a14.8,14.8,0,0,0,9,16.59c5.43,2,11.43.53,17.23.55,10.12,0,19.74,4.58,29.85,5.24a39.34,39.34,0,0,0,19.43-3.74c3.5-1.67,6.86-3.89,10.71-4.38,3.22-.4,6.58.45,9.7-.48,5.28-1.57,7.94-8.31,6-13.48s-7.38-8.5-12.88-9c-5.35-.45-10.88,1.37-16-.16-5.76-1.72-9.7-7.29-15.4-9.14-8.35-2.72-16.81,3.27-23.57,8.88a10.77,10.77,0,0,0-9.74-7.14c-4.42-.09-8.79,3.57-12.8,5.24C36.62,217.72,31.83,220.21,30.39,226.44Z"/><path class="cls-18" d="M170.92,312.45a7.16,7.16,0,0,0,2.31.08l4.18-.29A6.52,6.52,0,0,0,179,312a3,3,0,0,0,1.88-2.08.79.79,0,0,0,0-.43c-.15-.43-.75-.4-1.15-.14s-.67.65-1.11.75a1.65,1.65,0,0,1-.7-.09l-2.36-.6a.94.94,0,0,0-.41,0c-.52.08-.56.8-.48,1.32a1.79,1.79,0,0,0-1.36-.71,1,1,0,0,0-1,1l-.93-.75c-.13-.1-.3-.2-.44-.12a.4.4,0,0,0-.14.22l-.31.8c.08-.21-1.19-.75-1.27,0S170.49,312.34,170.92,312.45Z"/><path class="cls-19" d="M63.56,376.64c.19,0,7.85,51.29,7.85,51.29s5.57,1.34,5.37,0,.77-17.73,1.91-21-2.11-30.32-2.11-30.32Z"/><path class="cls-20" d="M88.41,376.3s1.15,25.9,3.43,32.39S97,428.54,97,428.54h7l-1.3-52.78S94.71,370.44,88.41,376.3Z"/><path class="cls-2" d="M70,424.48c1.75-.23,3.52.52,5.26.33a8.72,8.72,0,0,1,2.22-.22.5.5,0,0,1,.31.14.57.57,0,0,1,.08.34v2.33a5,5,0,0,1-.71,3.22,4.54,4.54,0,0,1-3.19,1.3,2,2,0,0,1-2-.84c-.78-.85-1.37-1.34-1.47-2.49C70.38,428.23,70,424.48,70,424.48Z"/><path class="cls-2" d="M103.47,425.5a.75.75,0,0,1,.89.55.65.65,0,0,1,0,.31,21.3,21.3,0,0,1-.33,5,3.35,3.35,0,0,1-.35,1.27,3.13,3.13,0,0,1-2.65,1.21c-1.54.1-3.29-.19-4.23-1.41a5.82,5.82,0,0,1-.82-2.49c-.16-.91-.49-1.79-.63-2.7s.07-1.16.86-1.28c1.12-.16,2.29-.19,3.42-.26C100.93,425.59,102.21,425.53,103.47,425.5Z"/><path class="cls-7" d="M57.5,444.19a2.47,2.47,0,0,0,.12,1.29A2.92,2.92,0,0,0,59.45,447c2.57.88,10.41-4.47,12.89-5.56A36,36,0,0,0,78.57,438a75.54,75.54,0,0,0-.46-8.09.55.55,0,0,0-.17-.43.66.66,0,0,0-.33-.09c-1.19-.1-2.38,0-3.57,0a15.73,15.73,0,0,1-1.82-.08,7.82,7.82,0,0,0-1.66-.3c-.9.09-2.64,2.92-3.42,3.36C58.21,437.41,57.74,442.51,57.5,444.19Z"/><path class="cls-7" d="M95.28,436.11a6.15,6.15,0,0,0-.17,2.05,4.55,4.55,0,0,0,2,2.48c1.59,1.19,10.22,9.81,15.24,7a1.93,1.93,0,0,0,.7-.87,3.6,3.6,0,0,0,.32-1.28,9.43,9.43,0,0,0-1.2-5.55c-.86-1.48-6-6-6.54-7.62-.32-1-.41-2.19-1.29-2.75a.76.76,0,0,0-.41-.13,1.13,1.13,0,0,0-.6.27c-1.54,1-3.52.76-5.28.51-.52-.08-1.61-.7-2-.42-.63.44-.55,2.18-.58,2.81A28.52,28.52,0,0,1,95.28,436.11Z"/><path class="cls-21" d="M106.6,256.17s23.9-14.88,24.28-15.21,24.53-20,27.28-22.71,4.85-7.43,8.71-5.91,3.93,7.53-1,13c-.58.65-4.4.57-4.55.74-.33.4-1,1.17-3.17,3.52s-15.2,16.53-22.79,20.16-22.29,19.29-22.29,19.29Z"/><path class="cls-22" d="M55.68,258.11c-1,1.13-22.33-10.9-22.33-10.9L8.14,221.58S3.8,217.8.72,223s4.66,10.25,4.66,10.25l5.05.81s12.23,20.35,15.25,21.37,25.18,19,25.39,16.66S55.68,258.11,55.68,258.11Z"/><path class="cls-7" d="M66.17,235.05c-.66,6.7.54,13.92,4.93,19,1,1.21,2.29,2.41,2.48,4a13.14,13.14,0,0,1-.15,2.34,2.85,2.85,0,0,0,.61,2.19,1.31,1.31,0,0,0,1.84,0,1.56,1.56,0,0,0,.16-.2l1.79,3.78a1.7,1.7,0,0,0,.7.88,1.57,1.57,0,0,0,1,0,14.2,14.2,0,0,0,5.56-2.32,1.82,1.82,0,0,1,.7-.37c1.16-.18,1.41,1.8,2.53,2.23.84.33,1.7-.4,2.32-1.07L93,262.91a4.12,4.12,0,0,0,2,2,9.45,9.45,0,0,1,1.09-2.12,10.8,10.8,0,0,0,.41,3.88l1.23-1.52a.58.58,0,0,1,.45-.3.57.57,0,0,1,.33.18l2,1.79c-1-3.08-.58-6.45.15-9.6s1.73-6.34,1.72-9.55c0-4.16-1.66-8.12-3.28-12a20.84,20.84,0,0,0-2.68-5A18.72,18.72,0,0,0,90.17,226a20.14,20.14,0,0,0-6.46-2.39,20.75,20.75,0,0,0-5.34.18c-1.88.22-3.77.46-5.67.7-1.64.23-2.37.33-3.41,1.61A16.77,16.77,0,0,0,66.17,235.05Z"/><path class="cls-23" d="M96.4,244.26a2.63,2.63,0,0,1-.26,1.7,11.05,11.05,0,0,1-1,1.49,8.71,8.71,0,0,1-.93,1.26,2.18,2.18,0,0,1-1.38.71c-2,.06-1.21-3.26-.54-4.3C93.06,243.9,95.8,241.81,96.4,244.26Z"/><path class="cls-24" d="M93.65,245.64a4.42,4.42,0,0,0,.4-.74,1.32,1.32,0,0,1,.55-.64.64.64,0,0,1,.76.1c.23.28.08.71-.1,1-.4.71-.39,1.85-1,2.37a4.86,4.86,0,0,1-1,.53,2.81,2.81,0,0,1-1.41,0c-.19-.14.24-1.09.22-1.33a1.6,1.6,0,0,1,.07-.7c.08-.11.42,0,.56,0A1.47,1.47,0,0,0,93.65,245.64Z"/><path class="cls-9" d="M113.68,267.87a2.32,2.32,0,0,1-.59,1.19,39.86,39.86,0,0,1-3.76,4.45c-2.11,2.05-4.71,3.7-6.11,6.28-2,3.7-.46,37.8-.31,43.88,0,1.74-26.95,2.81-38.77,1.52.15-6.24,3.72-17.11,2.44-23.23-1-4.93-1.82-2.16-4.49-10.19-1.1-3.28-.28-7.24.3-10.65.39-2.31-10-6.47-11.32-9a29.23,29.23,0,0,1,.66-4.92h0a29.69,29.69,0,0,1,3-7.95,2.46,2.46,0,0,1,1-1.13,2.61,2.61,0,0,1,1.61-.06,57.13,57.13,0,0,1,11.88,3.52c3.58,1.5,7.3.86,11.06.35a90.69,90.69,0,0,0,27-8q3.08,6.4,6.14,12.81A2.27,2.27,0,0,1,113.68,267.87Z"/><path class="cls-25" d="M113.68,267.87a2.32,2.32,0,0,1-.59,1.19,39.86,39.86,0,0,1-3.76,4.45c-2.11,2.05-4.71,3.7-6.11,6.28-2,3.7-.46,37.8-.31,43.88,0,1.5-20.2,2.51-33.31,1.92l22-1.68s9.32-32.72,7-41.43c-2.12-7.88,7-17,12.73-20.06l2.06,4.3A2.22,2.22,0,0,1,113.68,267.87Z"/><path class="cls-26" d="M80.15,256.93a5.08,5.08,0,0,1,.28-3,4.52,4.52,0,0,1,2.27-1.6c1.68-.7,3.74-1.37,5.19-.28a4.46,4.46,0,0,1,1.45,2.7,23.71,23.71,0,0,1,.38,6.62c-.12,1.94-.38,4-1.63,5.49a9.87,9.87,0,0,1-3,2.11c-1.51.8-3.48,1.57-4.79.47C76.42,266.23,80.44,261,80.15,256.93Z"/><path class="cls-5" d="M64.14,325.19l-8.83,53.24s9,1.66,29.94-.78a109.37,109.37,0,0,1,25.35-.34,4.18,4.18,0,0,0,4.55-5.19l-12.22-48.45S67.13,320.17,64.14,325.19Z"/><path class="cls-27" d="M73.67,252.46c2,3.75,6.34,6.63,10.47,5.51,3.08-.84,5.23-3.64,6.55-6.54a40.27,40.27,0,0,0,2.5-8.34,20.94,20.94,0,0,0,.61-8.32,11.46,11.46,0,0,0-11.92-8.93C69.64,227,69.25,244.18,73.67,252.46Z"/><path class="cls-7" d="M79.66,217.36c5-1.06,10.56-.16,14.35,3.2s5.54,8.91,9.61,12.12c1.3,1,3,1.82,4.63,1.32a5.57,5.57,0,0,1-4.93,3.19,5.06,5.06,0,0,0,2.49,1.41,5.87,5.87,0,0,1-4.41,2.28,2.21,2.21,0,0,1,.82,1.33,8.48,8.48,0,0,1-5.63.4,11.9,11.9,0,0,1-7.66-5.49c-4-7.09-11-12.28-16.65-3.39-1.74-1.16-3.6-2.5-3.89-4.57C67.57,223,74.51,218.45,79.66,217.36Z"/><path class="cls-28" d="M62.39,281.12c.39-2.3-10-6.46-11.32-9a29.21,29.21,0,0,1,.66-4.93h0s10.94,4.78,11.54,7.56S62.39,281.12,62.39,281.12Z"/><path class="cls-29" d="M110.58,377.31c-2.15-.26-4.85-.47-8.11-.54L94,346.9s-2.76-21.73-2.11-24H92l10.76.79h.14v.05l.19.76,12,47.65a4.17,4.17,0,0,1-4.56,5.21Z"/><path class="cls-5" d="M403.83,267.47s-16.11,20.84-19.16,24.33a63.64,63.64,0,0,0-9.17,14.66l-8.1,34.44-9-2.41-19.67-5.24s7-18.83,3.61-24.54c-4.52-7.62-.61-12.38.42-15.65,1.9-6.06-7.83-17.15-7.83-17.15L328.65,248l9.41-1.26,6.83,22.63,11.7,10.44,8.33.45s6.29,1.29,10.86-.82c4.37-2,19.81-19.44,19.81-19.44l6.3,5.71Z"/><path class="cls-6" d="M376.29,251.42a5.9,5.9,0,0,1,4.08-1.28,4.3,4.3,0,0,1,2.95,1,4.7,4.7,0,0,1,1.15,2.54,14.58,14.58,0,0,1,.26,3.55c-.1,2.18-.67,4.5.28,6.47a4.48,4.48,0,0,0,.89,1.27,2.53,2.53,0,0,0,1.66.83,1.35,1.35,0,0,0,1.36-1.07,5.06,5.06,0,0,1-6.69,2.54h0a5.44,5.44,0,0,1-1.1-.68l.83,1.68a9.28,9.28,0,0,1-2-.75c-2-1.1-3.16-3.33-3.7-5.59-.47-2.07-.57-4.21-1-6.29C374.92,254.06,375,252.58,376.29,251.42Z"/><path class="cls-9" d="M375.68,253.71a3.33,3.33,0,0,1,1.21.19,1.89,1.89,0,0,1,1.17,1.59,1.79,1.79,0,0,1-1,1.7,3.17,3.17,0,0,1-1.29.23c-.4,0-.8,0-1.2,0a.53.53,0,0,1-.56-.4,7.27,7.27,0,0,1-.58-1.64C373.11,253.59,374.29,253.7,375.68,253.71Z"/><path class="cls-30" d="M367.93,270.43s-.08,1.38-.17,3.17c-.08,1.51-.18,3.33-.26,4.84a10.21,10.21,0,0,1-3.08,6.77c-1.08,1.1-3.65,3.15-5.6,2.42-1-.35-1-1.55-.79-2.27a14,14,0,0,0,.73-4.06,14.43,14.43,0,0,0-.3-3.34C357.23,274.9,367.93,270.43,367.93,270.43Z"/><path class="cls-31" d="M367.93,270.43s-.08,1.38-.17,3.17c-.75,1.67-1.46,3-1.84,3.72-.78,1.38-4,3.54-7.15,4a14.43,14.43,0,0,0-.3-3.34C357.23,274.9,367.93,270.43,367.93,270.43Z"/><path class="cls-32" d="M358.62,252.2A10.23,10.23,0,0,0,349,263a5.85,5.85,0,0,0,.07.72,34.78,34.78,0,0,0,3.15,12c3.34,5.72,11.78,1,13.12-1.34s6.47-13,4.32-16C368.19,256.43,364.07,252,358.62,252.2Z"/><path class="cls-6" d="M355.62,246.39a17.8,17.8,0,0,1,10.92.32,13.38,13.38,0,0,1,7.77,7.48,13.64,13.64,0,0,1-.31,9.86,19.25,19.25,0,0,1-6.19,7.82c-.7-2.14,1.46-4.05,2.3-6.14a1.72,1.72,0,0,0,.11-1.24,1.41,1.41,0,0,0-2.12-.36,4,4,0,0,0-1.2,2.15c.64-3.4,1.12-7.4-1.29-9.9a7.92,7.92,0,0,0-5.64-2,13.81,13.81,0,0,0-10.09,4.34c-.76.82-1.84,1.82-2.8,1.25a1.85,1.85,0,0,1-.67-.82C343.56,253.47,351,247.65,355.62,246.39Z"/><path class="cls-6" d="M360.22,252.68a18.8,18.8,0,0,0-7.47-1.9,9.24,9.24,0,0,0-7,2.82,9.73,9.73,0,0,0-1.9,3.7,6.7,6.7,0,0,0-.34,2.63,12.42,12.42,0,0,0,.48,1.91c.45,1.54.64,3.33-.34,4.63a2.06,2.06,0,0,1-1.59.88,1.29,1.29,0,0,1-1.3-1.11,2.8,2.8,0,0,0,1.35,3.2,4.49,4.49,0,0,0,3.66.18,4,4,0,0,0,1.34-.74,4.57,4.57,0,0,0,1-1.31,46.3,46.3,0,0,0,2.24-5.75,9.52,9.52,0,0,1,3.57-4.91,9.24,9.24,0,0,1,4.54-1.13c1.58-.05,3.17.08,4.74-.06s.43-1.08-.25-1.57A15.43,15.43,0,0,0,360.22,252.68Z"/><path class="cls-33" d="M424.17,235.61c.41.32-3.38,3.27-3.38,3.27s-1.78,3.05-3.58,3.9-15.32,22.93-15.32,22.93l-5.34-4.84,11.52-15.49s3.81-7.3,3.38-10.48c0,0,.23-3.75,1.38-2,.81,1.24.29,3.2,1.25,3.41a.46.46,0,0,0,.3-.07,10.65,10.65,0,0,0,2.17-1.73c1.9-1.81,4.18-4.34,4.18-4.34s1.25-.53,1.09,0-2.45,4.1-2.58,4.29c.22-.2,3.73-3.33,4.29-3.09s-2.73,3.86-2.92,4.07c.21-.15,4-2.76,4.24-2.52.53.44-2.86,3.38-3.14,3.6C421.92,236.4,423.79,235.31,424.17,235.61Z"/><path class="cls-34" d="M420.15,237.87a1.75,1.75,0,0,1-.88.07,25.16,25.16,0,0,0-2.88,0c-.65,0-2,.47-2-.53,0-.27.06-.53.05-.8a2,2,0,0,0-.05-.34,10.65,10.65,0,0,0,2.17-1.73,2.87,2.87,0,0,1,.82.41l1.87,1.22c.34.21.67.43,1,.67a.88.88,0,0,1,.32.37A.61.61,0,0,1,420.15,237.87Z"/><path class="cls-35" d="M327.17,210.82c-.52.05,1.15,4.56,1.15,4.56s-.1,3.53.95,5.19,1,27.22,1,27.22l7.08-1-1.61-19.24s.62-8.21,2.65-10.68c0,0,1.78-3.31-.11-2.43-1.34.63-1.94,2.56-2.86,2.24a.58.58,0,0,1-.22-.22,10.68,10.68,0,0,1-1-2.62c-.67-2.54-1.27-5.89-1.27-5.89s-.76-1.09-.88-.56-.08,4.76-.08,5c-.08-.27-1.43-4.8-2-4.88s.28,4.71.34,5c-.11-.23-1.91-4.42-2.28-4.38-.68.1.67,4.4.77,4.72C328.66,212.67,327.65,210.77,327.17,210.82Z"/><path class="cls-36" d="M329.36,214.86a1.88,1.88,0,0,0,.73.52,25.6,25.6,0,0,1,2.47,1.48c.54.37,1.43,1.47,2,.62.15-.22.22-.48.38-.7a1.44,1.44,0,0,1,.22-.27,10.68,10.68,0,0,1-1-2.62,3.15,3.15,0,0,0-.92-.07l-2.23,0a9.63,9.63,0,0,0-1.2,0,.9.9,0,0,0-.48.14A.63.63,0,0,0,329.36,214.86Z"/><path class="cls-37" d="M302.06,435.47c-1.91,3.89-3.29,6.92-3.29,6.92l-24,1.14s4-10.51,10.44-7.79c2.18.91,10.1-.81,10.1-.81l.25-.79Z"/><path class="cls-6" d="M387,436.65l-3.67,2.06-31.43-33-3.47-44.1-28.65,26s.76,17.9-9.25,31.9c-1.8,2.51-5.45,9.8-8.21,15.5-.09.18-.17.36-.26.53l-.53-.11-1.88-.39-4.06-.84,13.17-53.23,29.93-47.65,19.67,5.24,9.05,2.41s6.11,12.24,0,43.9l-4.05,18.12s16.32,8.7,21.35,25.91l2.27,7.79Z"/><path class="cls-38" d="M387,436.65l3.73,3.9-9.47,9.87H368.88a11.66,11.66,0,0,1,7.92-5.05c5.27-.69,6.53-6.67,6.53-6.67Z"/><path class="cls-39" d="M403.83,267.47s-16.11,20.84-19.16,24.33a63.64,63.64,0,0,0-9.17,14.66l-8.1,34.44-9-2.41s8.45-31.59,11.85-38.29,31.68-34.49,31.68-34.49Z"/><path class="cls-7" d="M387,436.64c-.17-.48-5.55-15.41-13.62-21.67a54.58,54.58,0,0,1-12.95-15.14c-1.91-16.86-2.07-61.34-2.07-61.34l9.05,2.41s6.11,12.24,0,43.9l-4.05,18.12s16.32,8.72,21.35,25.93Z"/><path class="cls-7" d="M319.78,387.55s.76,17.9-9.25,31.9c-1.8,2.51-5.45,9.8-8.21,15.5l-.79.42-1.88-.39h0l15.54-49S334,363.7,337.45,361.57s11,0,11,0Z"/></g></g></svg>