<svg xmlns="http://www.w3.org/2000/svg" viewBox="0 0 18.38 23.81"><defs><style>.cls-1{fill:#8a9899;stroke:#8a9899;stroke-miterlimit:10;stroke-width:0.75px;}</style></defs><title>new-cert-inactive</title><g id="Layer_2" data-name="Layer 2"><g id="Layer_1-2" data-name="Layer 1"><path class="cls-1" d="M17.47,8.24,10.14.92A2.86,2.86,0,0,0,8.65.38H3.77A3.36,3.36,0,0,0,.38,3.77V20a3.36,3.36,0,0,0,3.39,3.39H14.62A3.36,3.36,0,0,0,18,20V9.73A2.07,2.07,0,0,0,17.47,8.24ZM9.87,2.55l6,6H11.9a2.09,2.09,0,0,1-2-2Zm4.75,19.53H3.77a2.09,2.09,0,0,1-2-2V3.77a2.09,2.09,0,0,1,2-2H8.51V6.48A3.36,3.36,0,0,0,11.9,9.87h4.75V20a2.09,2.09,0,0,1-2,2Z"/><path class="cls-1" d="M11.9,14.21h-2v-2a.68.68,0,0,0-1.36,0v2h-2a.68.68,0,0,0,0,1.36h2v2a.68.68,0,0,0,1.36,0v-2h2a.68.68,0,0,0,0-1.36Z"/></g></g></svg>