<svg xmlns="http://www.w3.org/2000/svg" xmlns:xlink="http://www.w3.org/1999/xlink" viewBox="0 0 84.15 107.19"><defs><style>.cls-1,.cls-4{fill:#22bd94;}.cls-2{fill:#38b87e;}.cls-3{fill:#fff;}.cls-4{opacity:0.18;isolation:isolate;}.cls-5{fill:#d7f3ec;}.cls-6{fill:#3f3d56;}.cls-7{fill:url(#linear-gradient);}</style><linearGradient id="linear-gradient" x1="38.44" y1="55.2" x2="37.25" y2="-56.49" gradientUnits="userSpaceOnUse"><stop offset="0" stop-color="#fff" stop-opacity="0"/><stop offset="0.81" stop-color="#fff"/></linearGradient></defs><title>new-certificate</title><g id="Layer_2" data-name="Layer 2"><g id="Layer_1-2" data-name="Layer 1"><path class="cls-1" d="M22.91,27.16h-.64c.09-.26.17-.52.25-.78C22.66,26.63,22.78,26.89,22.91,27.16Z"/><path class="cls-1" d="M22.91,30.18h-.64c.09-.26.17-.53.25-.79C22.66,29.65,22.78,29.91,22.91,30.18Z"/><rect class="cls-2" y="0.55" width="75.86" height="98.46" rx="5.51"/><rect class="cls-3" x="5.54" y="7.46" width="63.89" height="85.3"/><path class="cls-4" d="M13.82,17.3H57a1.16,1.16,0,0,1,1.16,1.15h0A1.16,1.16,0,0,1,57,19.61H13.82a1.16,1.16,0,0,1-1.15-1.16h0A1.16,1.16,0,0,1,13.82,17.3Z"/><path class="cls-4" d="M13.82,21.84H57A1.15,1.15,0,0,1,58.2,23h0A1.15,1.15,0,0,1,57,24.14H13.82A1.15,1.15,0,0,1,12.67,23h0A1.15,1.15,0,0,1,13.82,21.84Z"/><path class="cls-4" d="M14.16,31.82H57.38A1.14,1.14,0,0,1,58.53,33h0a1.14,1.14,0,0,1-1.15,1.15H14.16A1.14,1.14,0,0,1,13,33h0A1.14,1.14,0,0,1,14.16,31.82Z"/><path class="cls-4" d="M14.16,36.35H57.38a1.15,1.15,0,0,1,1.15,1.16h0a1.15,1.15,0,0,1-1.15,1.15H14.16A1.15,1.15,0,0,1,13,37.51h0A1.15,1.15,0,0,1,14.16,36.35Z"/><path class="cls-4" d="M14.16,40.89H57.38A1.15,1.15,0,0,1,58.53,42h0a1.15,1.15,0,0,1-1.15,1.16H14.16A1.15,1.15,0,0,1,13,42h0A1.15,1.15,0,0,1,14.16,40.89Z"/><path class="cls-4" d="M13.91,50.24H57.13a1.16,1.16,0,0,1,1.15,1.15h0a1.16,1.16,0,0,1-1.15,1.16H13.91a1.16,1.16,0,0,1-1.16-1.16h0A1.16,1.16,0,0,1,13.91,50.24Z"/><path class="cls-4" d="M13.91,54.78H57.13a1.15,1.15,0,0,1,1.15,1.15h0a1.15,1.15,0,0,1-1.15,1.15H13.91a1.15,1.15,0,0,1-1.16-1.15h0A1.15,1.15,0,0,1,13.91,54.78Z"/><path class="cls-4" d="M13.91,59.31H57.13a1.16,1.16,0,0,1,1.15,1.16h0a1.16,1.16,0,0,1-1.15,1.15H13.91a1.16,1.16,0,0,1-1.16-1.15h0A1.16,1.16,0,0,1,13.91,59.31Z"/><circle class="cls-5" cx="66.62" cy="89.67" r="17.52"/><rect class="cls-6" x="63.53" y="79.14" width="6.18" height="21.07"/><rect class="cls-6" x="63.53" y="79.14" width="6.18" height="21.07" transform="translate(-23.05 156.3) rotate(-90)"/><path class="cls-7" d="M5.88,0h65A5.54,5.54,0,0,1,76.4,5.54V93.36a5.54,5.54,0,0,1-5.53,5.54h-65A5.54,5.54,0,0,1,.35,93.36V5.54A5.54,5.54,0,0,1,5.88,0Z"/></g></g></svg>