<svg xmlns="http://www.w3.org/2000/svg" xmlns:xlink="http://www.w3.org/1999/xlink" viewBox="0 0 84.15 110.5"><defs><style>.cls-1,.cls-3{fill:#22bd94;}.cls-2{fill:#fff;}.cls-3{opacity:0.18;isolation:isolate;}.cls-4{fill:#d7f3ec;}.cls-5{fill:#3f3d56;}.cls-6{fill:url(#linear-gradient);}</style><linearGradient id="linear-gradient" x1="38.44" y1="58.51" x2="37.25" y2="-53.19" gradientUnits="userSpaceOnUse"><stop offset="0" stop-color="#fff" stop-opacity="0"/><stop offset="0.81" stop-color="#fff"/></linearGradient></defs><title>Asset 61</title><g id="Layer_2" data-name="Layer 2"><g id="Layer_1-2" data-name="Layer 1"><path class="cls-1" d="M22.91,30.47h-.64c.09-.26.17-.53.25-.79C22.66,29.94,22.78,30.2,22.91,30.47Z"/><path class="cls-1" d="M22.91,33.48h-.64c.09-.26.17-.52.25-.78C22.66,33,22.78,33.21,22.91,33.48Z"/><rect class="cls-1" y="3.86" width="75.86" height="98.46" rx="5.51"/><rect class="cls-2" x="5.54" y="10.76" width="63.89" height="85.3"/><rect class="cls-3" x="12.67" y="16.07" width="45.53" height="2.31" rx="1.15"/><rect class="cls-3" x="12.67" y="20.61" width="45.53" height="2.31" rx="1.15"/><rect class="cls-3" x="12.67" y="25.14" width="45.53" height="2.31" rx="1.15"/><rect class="cls-3" x="13.01" y="35.12" width="45.53" height="2.31" rx="1.15"/><rect class="cls-3" x="13.01" y="39.66" width="45.53" height="2.31" rx="1.15"/><rect class="cls-3" x="13.01" y="44.2" width="45.53" height="2.31" rx="1.15"/><rect class="cls-3" x="12.75" y="53.55" width="45.53" height="2.31" rx="1.15"/><rect class="cls-3" x="12.75" y="58.08" width="45.53" height="2.31" rx="1.15"/><rect class="cls-3" x="12.75" y="62.62" width="45.53" height="2.31" rx="1.15"/><circle class="cls-4" cx="66.62" cy="92.98" r="17.52"/><rect class="cls-5" x="63.53" y="82.44" width="6.18" height="21.07"/><rect class="cls-5" x="63.53" y="82.44" width="6.18" height="21.07" transform="translate(-26.35 159.6) rotate(-90)"/><path class="cls-6" d="M5.88,3.31h65A5.54,5.54,0,0,1,76.4,8.85V96.67a5.54,5.54,0,0,1-5.53,5.53h-65A5.54,5.54,0,0,1,.35,96.67V8.85A5.54,5.54,0,0,1,5.88,3.31Z"/><path class="cls-1" d="M27.63,0H48.5c1.72,0,3.12,1.67,3.12,3.73v2.2c0,2.06-1.4,3.73-3.12,3.73H27.63c-1.72,0-3.12-1.67-3.12-3.73V3.73C24.51,1.67,25.91,0,27.63,0Z"/><rect class="cls-2" x="25.28" y="0.64" width="25.5" height="8.35" rx="3.07"/></g></g></svg>