<?xml version="1.0" encoding="utf-8"?>
<!-- Generator: Adobe Illustrator 23.0.1, SVG Export Plug-In . SVG Version: 6.00 Build 0)  -->
<svg version="1.1" id="Layer_1" xmlns="http://www.w3.org/2000/svg" xmlns:xlink="http://www.w3.org/1999/xlink" x="0px" y="0px"
	 viewBox="0 0 436 394" style="enable-background:new 0 0 436 394;" xml:space="preserve">
<style type="text/css">
	.st0{fill:url(#SVGID_1_);}
	.st1{fill:#22BD94;}
	.st2{opacity:0.69;fill:url(#SVGID_2_);enable-background:new    ;}
	.st3{fill:#F4D280;}
	.st4{fill:url(#SVGID_3_);}
	.st5{fill:url(#SVGID_4_);}
	.st6{fill:url(#SVGID_5_);}
	.st7{fill:#156166;}
	.st8{fill:url(#SVGID_6_);}
	.st9{fill:#14ABA1;}
	.st10{fill:url(#SVGID_7_);}
	.st11{fill:#435276;}
	.st12{fill:url(#SVGID_8_);}
	.st13{fill:url(#SVGID_9_);}
	.st14{fill:url(#SVGID_10_);}
	.st15{fill:url(#SVGID_11_);}
	.st16{fill:#FFFFFF;}
	.st17{fill:#38B87E;}
	.st18{fill:url(#SVGID_12_);}
	.st19{fill:url(#SVGID_13_);}
	.st20{fill:url(#SVGID_14_);}
	.st21{fill:#4F898C;}
	.st22{opacity:0.36;fill:#F8F8F8;}
	.st23{opacity:0.25;fill:#FFFFFF;enable-background:new    ;}
	.st24{fill:url(#SVGID_15_);}
	.st25{opacity:0.69;fill:url(#SVGID_16_);enable-background:new    ;}
	.st26{fill:url(#SVGID_17_);}
	.st27{fill:url(#SVGID_18_);}
	.st28{opacity:0.69;fill:url(#SVGID_19_);enable-background:new    ;}
	.st29{fill:url(#SVGID_20_);}
	.st30{fill:#3F3D56;}
	.st31{fill:url(#SVGID_21_);}
	.st32{fill:url(#SVGID_22_);}
	.st33{fill:none;stroke:#424A60;stroke-width:3.1116;stroke-linecap:round;stroke-miterlimit:10;}
	.st34{fill:#424A60;}
</style>
<g>
	<g>
		
			<linearGradient id="SVGID_1_" gradientUnits="userSpaceOnUse" x1="217.4112" y1="318.4" x2="255.4951" y2="318.4" gradientTransform="matrix(1 0 0 -1 -44.82 389.4332)">
			<stop  offset="0" style="stop-color:#ECC4D7"/>
			<stop  offset="0.42" style="stop-color:#EFD4D1"/>
			<stop  offset="1" style="stop-color:#F2EAC9"/>
		</linearGradient>
		<path class="st0" d="M180.48,61.53l3.46,6.02l24.26-10.8l2.47,3.83c0,0-25.19,25.08-26.7,24.73s-11.38-17.87-11.38-17.87
			L180.48,61.53z"/>
		<polygon class="st1" points="171.54,38.52 182.45,59.88 172.94,68.24 		"/>
		
			<linearGradient id="SVGID_2_" gradientUnits="userSpaceOnUse" x1="171.5443" y1="341.4206" x2="182.4502" y2="341.4206" gradientTransform="matrix(1 0 0 -1 0 394.8032)">
			<stop  offset="0.02" style="stop-color:#FFFFFF;stop-opacity:0"/>
			<stop  offset="0.58" style="stop-color:#FFFFFF;stop-opacity:0.39"/>
			<stop  offset="0.68" style="stop-color:#FFFFFF;stop-opacity:0.68"/>
			<stop  offset="1" style="stop-color:#FFFFFF"/>
		</linearGradient>
		<polygon class="st2" points="171.54,38.52 182.45,59.88 172.94,68.24 		"/>
		<polygon class="st3" points="192.75,78.77 198.63,38.52 222.16,38.21 214.42,79.08 		"/>
		<path class="st1" d="M259.01,217.09h6.92v-49.81c0-6.83,5.54-12.36,12.36-12.36h32.27V148h-32.31
			c-10.63,0.01-19.24,8.62-19.25,19.25V217.09z"/>
		
			<linearGradient id="SVGID_3_" gradientUnits="userSpaceOnUse" x1="329.7891" y1="206.4633" x2="331.6438" y2="162.807" gradientTransform="matrix(1 0 0 -1 -44.82 389.4332)">
			<stop  offset="0" style="stop-color:#000000;stop-opacity:0"/>
			<stop  offset="0.99" style="stop-color:#000000"/>
		</linearGradient>
		<path class="st4" d="M259.17,217.09h6.92v-49.81c0-6.83,5.54-12.36,12.36-12.36h32.28V148h-32.32
			c-10.62,0.01-19.23,8.62-19.24,19.25V217.09z"/>
		
			<linearGradient id="SVGID_4_" gradientUnits="userSpaceOnUse" x1="22.5803" y1="169.5898" x2="203.0419" y2="169.5898" gradientTransform="matrix(1 0 0 -1 0 394.8032)">
			<stop  offset="0" style="stop-color:#000000;stop-opacity:0"/>
			<stop  offset="0.99" style="stop-color:#000000"/>
		</linearGradient>
		<path class="st5" d="M51.06,111.56h123.5c15.73,0,28.48,12.75,28.48,28.48v170.35c0,15.73-12.75,28.48-28.48,28.48H51.06
			c-15.73,0-28.48-12.75-28.48-28.48V140.04C22.58,124.31,35.33,111.56,51.06,111.56z"/>
		<path class="st1" d="M193.64,314.19L193.64,314.19c0-1.91,1.55-3.45,3.45-3.45h30.44c6.81-0.02,12.32-5.55,12.32-12.36v-32.24
			h6.92v32.27c0,10.63-8.62,19.25-19.25,19.25l0,0h-30.4c-1.91,0.02-3.48-1.52-3.49-3.43C193.64,314.21,193.64,314.2,193.64,314.19z
			"/>
		<path class="st1" d="M322.68,325.09v-6.92h-49.81c-6.83,0-12.36-5.54-12.36-12.36v-32.24h-6.92v32.27
			c0.01,10.63,8.62,19.24,19.25,19.25H322.68z"/>
		
			<linearGradient id="SVGID_5_" gradientUnits="userSpaceOnUse" x1="266.1976" y1="80.5137" x2="263.4114" y2="125.0933" gradientTransform="matrix(1 0 0 -1 -44.82 389.4332)">
			<stop  offset="0" style="stop-color:#000000;stop-opacity:0"/>
			<stop  offset="0.99" style="stop-color:#000000"/>
		</linearGradient>
		<path class="st6" d="M193.64,314.19L193.64,314.19c0-1.91,1.55-3.45,3.45-3.45h30.44c6.81-0.02,12.32-5.55,12.32-12.36v-32.24
			h6.92v32.27c0,10.63-8.62,19.25-19.25,19.25l0,0h-30.4c-1.91,0.02-3.48-1.52-3.49-3.43C193.64,314.21,193.64,314.2,193.64,314.19z
			"/>
		<path class="st7" d="M322.68,325.09v-6.92h-49.81c-6.83,0-12.36-5.54-12.36-12.36v-32.24h-6.92v32.27
			c0.01,10.63,8.62,19.24,19.25,19.25H322.68z"/>
		<path class="st1" d="M424.84,381.19c0.01,6.46-5.21,11.71-11.67,11.72c-0.01,0-0.02,0-0.02,0H26.07
			c-6.46-0.02-11.68-5.27-11.66-11.73c0.02-5.54,3.92-10.31,9.34-11.42c0.76-0.15,1.54-0.23,2.32-0.23h387.08
			C419.59,369.52,424.83,374.74,424.84,381.19z"/>
		<rect x="29.97" y="324.03" class="st1" width="149.38" height="50.65"/>
		
			<linearGradient id="SVGID_6_" gradientUnits="userSpaceOnUse" x1="104.9039" y1="34.2147" x2="104.2609" y2="80.5831" gradientTransform="matrix(1 0 0 -1 0 394.8032)">
			<stop  offset="0" style="stop-color:#000000;stop-opacity:0"/>
			<stop  offset="0.99" style="stop-color:#000000"/>
		</linearGradient>
		<rect x="29.97" y="324.03" class="st8" width="149.38" height="37.14"/>
		<path class="st9" d="M30.92,111.56h123.5c15.73,0,28.48,12.75,28.48,28.48V310.4c0,15.73-12.75,28.48-28.48,28.48H30.92
			c-15.73,0-28.48-12.75-28.48-28.48V140.04C2.44,124.31,15.19,111.56,30.92,111.56z"/>
		
			<linearGradient id="SVGID_7_" gradientUnits="userSpaceOnUse" x1="135.9749" y1="52.4205" x2="145.7926" y2="432.4597" gradientTransform="matrix(1 0 0 -1 -44.82 389.4332)">
			<stop  offset="0" style="stop-color:#000000;stop-opacity:0"/>
			<stop  offset="0.99" style="stop-color:#000000"/>
		</linearGradient>
		<path class="st10" d="M182.9,246.12v64.3c0,15.73-12.75,28.48-28.48,28.48H30.92c-15.73,0-28.49-12.76-28.48-28.5
			c0,0,0-0.01,0-0.01v-64.3c0-15.73,12.75-28.48,28.48-28.48h123.5c15.73,0,28.48,12.75,28.48,28.48
			C182.9,246.11,182.9,246.11,182.9,246.12z"/>
		<rect x="218.09" y="207.87" class="st11" width="74.5" height="70.27"/>
		<g>
			<path class="st1" d="M219.65,197.89h72.66c4.13,0,7.48,3.35,7.48,7.48v12.79c0,4.13-3.35,7.48-7.48,7.48h-72.66
				c-4.13,0-7.48-3.35-7.48-7.48v-12.79C212.17,201.24,215.52,197.89,219.65,197.89z"/>
			<path class="st1" d="M219.65,229.99h72.66c4.13,0,7.48,3.35,7.48,7.48v12.79c0,4.13-3.35,7.48-7.48,7.48h-72.66
				c-4.13,0-7.48-3.35-7.48-7.48v-12.79C212.17,233.34,215.52,229.99,219.65,229.99z"/>
			<path class="st1" d="M219.65,262.09h72.66c4.13,0,7.48,3.35,7.48,7.48v12.79c0,4.13-3.35,7.48-7.48,7.48h-72.66
				c-4.13,0-7.48-3.35-7.48-7.48v-12.79C212.17,265.44,215.52,262.09,219.65,262.09z"/>
		</g>
		<path class="st1" d="M252.95,198.04h-6.92v-49.81c0-6.83-5.54-12.36-12.36-12.36l0,0h-37c-1.91,0-3.46-1.55-3.46-3.46c0,0,0,0,0,0
			l0,0c0-1.91,1.55-3.45,3.46-3.45h37.04c10.63,0,19.24,8.61,19.25,19.23c0,0.01,0,0.01,0,0.02V198.04z"/>
		
			<linearGradient id="SVGID_8_" gradientUnits="userSpaceOnUse" x1="269.5182" y1="204.3109" x2="270.9113" y2="165.7654" gradientTransform="matrix(1 0 0 -1 -44.82 389.4332)">
			<stop  offset="0" style="stop-color:#000000;stop-opacity:0"/>
			<stop  offset="0.99" style="stop-color:#000000"/>
		</linearGradient>
		<path class="st12" d="M252.95,198.04h-6.92v-49.81c0-6.83-5.54-12.36-12.36-12.36l0,0h-37c-1.91,0-3.46-1.55-3.46-3.46
			c0,0,0,0,0,0l0,0c0-1.91,1.55-3.45,3.46-3.45h37.04c10.63,0,19.24,8.61,19.25,19.23c0,0.01,0,0.01,0,0.02V198.04z"/>
		
			<linearGradient id="SVGID_9_" gradientUnits="userSpaceOnUse" x1="284.2133" y1="183.558" x2="290.099" y2="183.558" gradientTransform="matrix(1 0 0 -1 0 394.8032)">
			<stop  offset="0" style="stop-color:#000000;stop-opacity:0"/>
			<stop  offset="0.99" style="stop-color:#000000"/>
		</linearGradient>
		<circle class="st13" cx="287.16" cy="211.25" r="2.94"/>
		
			<linearGradient id="SVGID_10_" gradientUnits="userSpaceOnUse" x1="276.8273" y1="183.558" x2="282.713" y2="183.558" gradientTransform="matrix(1 0 0 -1 0 394.8032)">
			<stop  offset="0" style="stop-color:#000000;stop-opacity:0"/>
			<stop  offset="0.99" style="stop-color:#000000"/>
		</linearGradient>
		<circle class="st14" cx="279.77" cy="211.25" r="2.94"/>
		
			<linearGradient id="SVGID_11_" gradientUnits="userSpaceOnUse" x1="269.532" y1="183.558" x2="275.4259" y2="183.558" gradientTransform="matrix(1 0 0 -1 0 394.8032)">
			<stop  offset="0" style="stop-color:#000000;stop-opacity:0"/>
			<stop  offset="0.99" style="stop-color:#000000"/>
		</linearGradient>
		<circle class="st15" cx="272.47" cy="211.25" r="2.94"/>
		<path class="st9" d="M257.88,77.23h138.6c7.53,0,13.64-6.1,13.64-13.63c0,0,0-0.01,0-0.01l0,0c0-15.78-12.8-28.58-28.58-28.58
			h-11.69c0-15.78-12.79-28.57-28.57-28.57v0h-18.85c-15.78,0-28.57,12.78-28.58,28.56c0,0,0,0.01,0,0.01v5.84h-15.93
			c-15.38,0-28,12.18-28.55,27.56l0,0c-0.17,4.7,3.5,8.64,8.2,8.81C257.66,77.23,257.77,77.23,257.88,77.23z"/>
		<path class="st1" d="M99.46,77.23H15.38c-3.7,0-6.71-2.99-6.71-6.69c0,0,0-0.01,0-0.01v-1.43c0-9.4,7.61-17.02,17.01-17.04h7.01
			c0-9.41,7.63-17.04,17.04-17.05h11.24c9.41,0,17.04,7.63,17.04,17.04c0,0,0,0.01,0,0.01v3.48h9.5c9.18,0,16.7,7.27,17.03,16.44
			l0,0c0.1,2.8-2.09,5.15-4.89,5.25C99.58,77.23,99.52,77.23,99.46,77.23z"/>
		<path class="st16" d="M33.65,166h118.64c4.66,0,8.44,3.78,8.44,8.44v0c0,4.66-3.78,8.44-8.44,8.44H33.65
			c-4.66,0-8.44-3.78-8.44-8.44v0C25.21,169.78,28.99,166,33.65,166z"/>
		<path class="st17" d="M34.42,169.26h77.44c3.04,0,5.51,2.47,5.51,5.51v0.01c0,3.04-2.47,5.51-5.51,5.51H34.42
			c-3.04,0-5.51-2.47-5.51-5.51v-0.01C28.91,171.73,31.38,169.26,34.42,169.26z"/>
		<g>
			<path class="st7" d="M320.48,111.56h57.36c7.3,0,13.22,5.92,13.22,13.22v79.12c0,7.3-5.92,13.22-13.22,13.22h-57.36
				c-7.3,0-13.22-5.92-13.22-13.22v-79.12C307.26,117.48,313.18,111.56,320.48,111.56z"/>
			
				<linearGradient id="SVGID_12_" gradientUnits="userSpaceOnUse" x1="329.1473" y1="231.344" x2="526.1448" y2="227.0163" gradientTransform="matrix(1 0 0 -1 0 394.8032)">
				<stop  offset="0" style="stop-color:#000000;stop-opacity:0"/>
				<stop  offset="0.99" style="stop-color:#000000"/>
			</linearGradient>
			<path class="st18" d="M360.74,111.56h17.09c7.3,0,13.22,5.92,13.22,13.22v79.12c0,7.3-5.92,13.22-13.22,13.22h-17.09
				c-7.3,0-13.22-5.92-13.22-13.22v-79.12C347.52,117.48,353.44,111.56,360.74,111.56z"/>
			
				<linearGradient id="SVGID_13_" gradientUnits="userSpaceOnUse" x1="319.8091" y1="272.7453" x2="684.4333" y2="264.7328" gradientTransform="matrix(1 0 0 -1 -44.82 389.4332)">
				<stop  offset="0" style="stop-color:#000000;stop-opacity:0"/>
				<stop  offset="0.99" style="stop-color:#000000"/>
			</linearGradient>
			<path class="st19" d="M391.06,124.79h-83.8c-0.02-7.28,5.86-13.21,13.15-13.23c0.01,0,0.03,0,0.04,0h57.35
				c7.28-0.04,13.22,5.83,13.26,13.11C391.06,124.71,391.06,124.75,391.06,124.79z"/>
			
				<linearGradient id="SVGID_14_" gradientUnits="userSpaceOnUse" x1="393.8406" y1="188.5752" x2="396.8659" y2="127.0888" gradientTransform="matrix(1 0 0 -1 -44.82 389.4332)">
				<stop  offset="0" style="stop-color:#000000;stop-opacity:0"/>
				<stop  offset="0.99" style="stop-color:#000000"/>
			</linearGradient>
			<path class="st20" d="M391.06,203.9c0,7.28-5.9,13.19-13.19,13.19c-0.01,0-0.03,0-0.04,0h-57.35c-7.28,0-13.19-5.91-13.19-13.19
				L391.06,203.9z"/>
		</g>
		<path class="st21" d="M414.37,363.51h-95.42V242.48l70.82-0.82l25.69,19.14L414.37,363.51z M322.6,359.94h88.2l1.06-97.27
			l-23.25-17.31l-66.01,0.74L322.6,359.94z"/>
		<path class="st21" d="M415.53,263.74l-21.65,0.35l-3.78-21.14L415.53,263.74z M396.92,260.44l10.61-0.59l-12.11-8.49
			L396.92,260.44z"/>
		<path class="st22" d="M339.48,268.82h59.67c1.16,0,2.09,0.94,2.09,2.09v0.01c0,1.16-0.94,2.09-2.09,2.09h-59.67
			c-1.16,0-2.09-0.94-2.09-2.09v-0.01C337.38,269.76,338.32,268.82,339.48,268.82z"/>
		<path class="st22" d="M339.48,282.68h59.67c1.16,0,2.09,0.94,2.09,2.09v0.01c0,1.16-0.94,2.09-2.09,2.09h-59.67
			c-1.16,0-2.09-0.94-2.09-2.09v-0.01C337.38,283.62,338.32,282.68,339.48,282.68z"/>
		<path class="st22" d="M339.48,296.54h59.67c1.16,0,2.09,0.94,2.09,2.09v0.01c0,1.16-0.94,2.09-2.09,2.09h-59.67
			c-1.16,0-2.09-0.94-2.09-2.09v-0.01C337.38,297.48,338.32,296.54,339.48,296.54z"/>
		<path class="st22" d="M339.48,310.39h59.67c1.16,0,2.09,0.94,2.09,2.09v0.01c0,1.16-0.94,2.09-2.09,2.09h-59.67
			c-1.16,0-2.09-0.94-2.09-2.09v-0.01C337.38,311.32,338.32,310.39,339.48,310.39z"/>
		<path class="st22" d="M339.48,324.24h59.67c1.16,0,2.09,0.94,2.09,2.09v0.01c0,1.16-0.94,2.09-2.09,2.09h-59.67
			c-1.16,0-2.09-0.94-2.09-2.09v-0.01C337.38,325.18,338.32,324.24,339.48,324.24z"/>
		<path class="st22" d="M339.48,338.1h59.67c1.16,0,2.09,0.94,2.09,2.09v0.01c0,1.16-0.94,2.09-2.09,2.09h-59.67
			c-1.16,0-2.09-0.94-2.09-2.09v-0.01C337.38,339.04,338.32,338.1,339.48,338.1z"/>
		<path class="st1" d="M212.51,178.36h-18.2c-0.85,0-1.53-0.69-1.53-1.54l0,0c0-0.85,0.69-1.53,1.53-1.53h18.2
			c7.86,0,14.23-6.38,14.23-14.24v-30.59c0-9.2,7.46-16.66,16.66-16.66h36.46c8.44,0,15.29-6.85,15.29-15.29V73.78h3.07v24.73
			c0,10.14-8.22,18.36-18.37,18.37h-36.46c-7.5,0-13.58,6.08-13.58,13.58l0,0v30.59C229.81,170.61,222.06,178.36,212.51,178.36z"/>
		<path class="st1" d="M104.69,110.36h3.07v-1.8c-0.01-9.18-7.45-16.61-16.63-16.63H75.13c-7.08-0.01-12.81-5.75-12.82-12.83v-2.52
			h-3.07v2.52c0.01,8.78,7.12,15.89,15.89,15.9h16.02c7.48,0,13.55,6.07,13.55,13.55L104.69,110.36z"/>
		<rect x="318.98" y="134.39" class="st23" width="61.7" height="41.56"/>
		
			<linearGradient id="SVGID_15_" gradientUnits="userSpaceOnUse" x1="499.1714" y1="-13.4359" x2="-165.2108" y2="40.8624" gradientTransform="matrix(1 0 0 -1 -44.82 389.4332)">
			<stop  offset="0" style="stop-color:#000000;stop-opacity:0"/>
			<stop  offset="0.41" style="stop-color:#000000;stop-opacity:0.41"/>
			<stop  offset="0.99" style="stop-color:#000000"/>
		</linearGradient>
		<path class="st24" d="M367.26,381.42c0.02,5.56-3.88,10.37-9.33,11.49H26.07c-6.46-0.02-11.68-5.27-11.66-11.73
			c0.02-5.54,3.92-10.31,9.34-11.42h331.82C362.01,369.75,367.24,374.97,367.26,381.42z"/>
		<path class="st1" d="M136.56,54.11v46.16h38.08V50.98c0,0,0.39-15.94-7.97-15.24C158.31,36.44,140.11,32.68,136.56,54.11z"/>
		
			<linearGradient id="SVGID_16_" gradientUnits="userSpaceOnUse" x1="181.3799" y1="321.4383" x2="219.4584" y2="321.4383" gradientTransform="matrix(1 0 0 -1 -44.82 389.4332)">
			<stop  offset="0.02" style="stop-color:#FFFFFF;stop-opacity:0"/>
			<stop  offset="0.58" style="stop-color:#FFFFFF;stop-opacity:0.39"/>
			<stop  offset="0.68" style="stop-color:#FFFFFF;stop-opacity:0.68"/>
			<stop  offset="1" style="stop-color:#FFFFFF"/>
		</linearGradient>
		<path class="st25" d="M136.56,54.11v46.16h38.08V50.98c0,0,0.39-15.94-7.97-15.24C158.31,36.44,140.11,32.68,136.56,54.11z"/>
		<path class="st16" d="M174.64,100.21c0,0,24.73,0.77,31.74,12.36s16.72,40.87,16.72,40.87l-8.83,3.48l-15.79-19.97L174.64,100.21z
			"/>
		
			<linearGradient id="SVGID_17_" gradientUnits="userSpaceOnUse" x1="257.1344" y1="263.5876" x2="200.7092" y2="254.9982" gradientTransform="matrix(1 0 0 -1 -44.82 389.4332)">
			<stop  offset="0" style="stop-color:#000000;stop-opacity:0"/>
			<stop  offset="0.99" style="stop-color:#000000"/>
		</linearGradient>
		<path class="st26" d="M174.64,100.21c0,0,24.73,0.77,31.74,12.36s16.72,40.87,16.72,40.87l-8.83,3.48l-15.79-19.97L174.64,100.21z
			"/>
		<path class="st16" d="M136.56,100.21c0,0-3.41,17.03,5.57,19.78s36.53,5.57,36.53,5.57l13.63,45.2l11.3-5.11
			c0,0-4.18-49.07-9.75-55.23c-5.57-6.16-19.2-10.21-19.2-10.21H136.56z"/>
		
			<linearGradient id="SVGID_18_" gradientUnits="userSpaceOnUse" x1="195.8716" y1="363.1891" x2="220.7827" y2="363.1891" gradientTransform="matrix(1 0 0 -1 -44.82 389.4332)">
			<stop  offset="0" style="stop-color:#ECC4D7"/>
			<stop  offset="0.42" style="stop-color:#EFD4D1"/>
			<stop  offset="1" style="stop-color:#F2EAC9"/>
		</linearGradient>
		<path class="st27" d="M155.92,21.8c0.39-2.36,1.09-4.66,2.06-6.84c2.02-3.79,5.88-6.25,10.17-6.46c0.51-0.03,1.02,0,1.53,0.11
			c0.54,0.14,1.05,0.36,1.52,0.67c2.32,1.62,3.89,4.1,4.37,6.88c0.45,2.76,0.52,5.57,0.21,8.34c-0.21,3.03-0.76,6.59-3.46,7.97
			c-1.88,0.95-4.12,0.46-6.16-0.16c-0.41-0.19-0.88-0.19-1.29,0c-0.29,0.25-0.46,0.61-0.48,1c-0.46,2.95,0.49,6.02-0.19,8.92
			c-0.09,0.68-0.47,1.28-1.05,1.65c-0.53,0.19-1.12,0.19-1.65,0c-2.66-0.69-5.11-2.02-7.14-3.87c-0.82-0.77-2.99-2.09-3.3-3.18
			c-0.3-1.09,1.25-3.44,1.65-4.51C154.02,28.89,155.1,25.37,155.92,21.8z"/>
	</g>
	
		<linearGradient id="SVGID_19_" gradientUnits="userSpaceOnUse" x1="181.8491" y1="326.4528" x2="207.2301" y2="338.3726" gradientTransform="matrix(1 0 0 -1 -44.82 389.4332)">
		<stop  offset="0.02" style="stop-color:#FFFFFF;stop-opacity:0"/>
		<stop  offset="0.58" style="stop-color:#FFFFFF;stop-opacity:0.39"/>
		<stop  offset="0.68" style="stop-color:#FFFFFF;stop-opacity:0.68"/>
		<stop  offset="1" style="stop-color:#FFFFFF"/>
	</linearGradient>
	<path class="st28" d="M136.96,54.15l11.76,22.26l12.54-9.28c0,0-9.3-23.19-11.11-24.12c-1.81-0.93-6.27-3.71-8.36-0.69
		C139.7,45.33,136.56,50.2,136.96,54.15z"/>
	
		<linearGradient id="SVGID_20_" gradientUnits="userSpaceOnUse" x1="196.3909" y1="319.252" x2="246.4774" y2="319.252" gradientTransform="matrix(1 0 0 -1 -44.82 389.4332)">
		<stop  offset="0" style="stop-color:#ECC4D7"/>
		<stop  offset="0.42" style="stop-color:#EFD4D1"/>
		<stop  offset="1" style="stop-color:#F2EAC9"/>
	</linearGradient>
	<path class="st29" d="M151.57,74.98c0,0,5.11,9.07,7.42,9.29s35.3-14.17,35.3-14.17l5.11-1.65c0,0,1.16-5.57,1.39-6.73
		c0.23-1.16,2.09-5.1-0.47-5.57c-2.56-0.47-6.49,2.81-6.49,2.81l-1.86,4.65l-27.86,8.59l-2.86-5.03L151.57,74.98z"/>
	<path class="st30" d="M181.28,9.43c1.16-2.65,0.11-6.36-2.65-7.25c-2.28-0.74-4.69,0.55-7.08,0.6c-2.04,0-3.98-0.82-6-1.06
		c-4.94-0.42-9.47,2.78-10.72,7.58c-0.11,0.72-0.31,1.42-0.6,2.09c-0.82,1.49-2.93,2.11-3.35,3.77c-0.12,0.81-0.01,1.65,0.33,2.4
		l2.62,7.81c0.3,0.87,0.96,1.95,1.84,1.65c0.49-0.16,0.72-0.71,0.9-1.2l1.76-4.89c1.58-0.14,1.24,3.54,2.81,3.3
		c1.02-0.16,0.82-1.65,0.57-2.69c-0.48-2.85,1.43-5.55,4.28-6.04c0.01,0,0.02,0,0.03,0c0.77,0.01,1.53-0.11,2.25-0.37
		c0.45-0.34,0.91-0.64,1.39-0.92c1.94-0.73,3.99,0.9,6.2,0.06C178.22,13.39,180.16,11.67,181.28,9.43z"/>
	<polygon class="st1" points="199.87,167.15 201.49,171.57 214.03,171.34 198.24,178.54 195.23,168.78 	"/>
	
		<linearGradient id="SVGID_21_" gradientUnits="userSpaceOnUse" x1="194.1804" y1="221.3781" x2="212.9832" y2="221.3781" gradientTransform="matrix(1 0 0 -1 0 394.8032)">
		<stop  offset="0" style="stop-color:#000000;stop-opacity:0"/>
		<stop  offset="0.99" style="stop-color:#000000"/>
	</linearGradient>
	<polygon class="st31" points="198.82,167.74 200.45,172.15 212.98,171.92 197.2,179.11 194.18,169.36 	"/>
	<polygon class="st1" points="221.93,153.92 223.55,158.33 236.09,158.1 220.3,165.3 217.29,155.55 	"/>
	
		<linearGradient id="SVGID_22_" gradientUnits="userSpaceOnUse" x1="216.2393" y1="234.6126" x2="235.0504" y2="234.6126" gradientTransform="matrix(1 0 0 -1 0 394.8032)">
		<stop  offset="0" style="stop-color:#000000;stop-opacity:0"/>
		<stop  offset="0.99" style="stop-color:#000000"/>
	</linearGradient>
	<polygon class="st32" points="220.88,154.5 222.5,158.92 235.05,158.68 219.26,165.88 216.24,156.12 	"/>
</g>
<g>
	<path class="st33" d="M409.28,317.88V305.9c0-4.54,4.03-8.25,8.95-8.25l0,0c4.92,0,8.95,3.71,8.95,8.25v11.98H409.28z"/>
	<rect x="402.28" y="315.55" class="st3" width="32.67" height="24.89"/>
	<path class="st34" d="M418.61,331.11L418.61,331.11c-1.28,0-2.33-1.05-2.33-2.33v-4.67c0-1.28,1.05-2.33,2.33-2.33l0,0
		c1.28,0,2.33,1.05,2.33,2.33v4.67C420.95,330.06,419.9,331.11,418.61,331.11z"/>
	<rect x="402.28" y="335.78" class="st30" width="32.67" height="4.67"/>
</g>
</svg>
