<svg xmlns="http://www.w3.org/2000/svg" viewBox="0 0 12.25 14.69"><defs><style>.cls-1{fill:#8a9899;}</style></defs><title>Asset 59</title><g id="Layer_2" data-name="Layer 2"><g id="Layer_1-2" data-name="Layer 1"><path class="cls-1" d="M6,7.08A3.43,3.43,0,0,0,8.54,6a3.45,3.45,0,0,0,1-2.5,3.44,3.44,0,0,0-1-2.5A3.43,3.43,0,0,0,6,0a3.42,3.42,0,0,0-2.5,1,3.44,3.44,0,0,0-1,2.5,3.45,3.45,0,0,0,1,2.5A3.42,3.42,0,0,0,6,7.08ZM4.14,1.64A2.59,2.59,0,0,1,6,.86a2.6,2.6,0,0,1,1.9.78,2.6,2.6,0,0,1,.78,1.9,2.59,2.59,0,0,1-.78,1.89A2.56,2.56,0,0,1,6,6.21a2.55,2.55,0,0,1-1.89-.78,2.55,2.55,0,0,1-.78-1.89A2.56,2.56,0,0,1,4.14,1.64Z"/><path class="cls-1" d="M12.22,11.29c0-.28-.06-.59-.11-.92a7.61,7.61,0,0,0-.23-.94,5.16,5.16,0,0,0-.39-.87,3.37,3.37,0,0,0-.57-.75,2.54,2.54,0,0,0-.84-.52A2.78,2.78,0,0,0,9,7.09a1.11,1.11,0,0,0-.57.25l-.6.38a3.2,3.2,0,0,1-.78.35,3.05,3.05,0,0,1-1.89,0,4.2,4.2,0,0,1-.78-.34l-.6-.39a1.11,1.11,0,0,0-.57-.25,2.82,2.82,0,0,0-1.06.2,2.44,2.44,0,0,0-.83.52,3.4,3.4,0,0,0-.58.75,4.42,4.42,0,0,0-.38.87,6.16,6.16,0,0,0-.23.94,8.63,8.63,0,0,0-.12.92q0,.44,0,.87A2.45,2.45,0,0,0,.72,14a2.64,2.64,0,0,0,1.87.68H9.66A2.62,2.62,0,0,0,11.53,14a2.45,2.45,0,0,0,.72-1.85C12.25,11.87,12.24,11.57,12.22,11.29Zm-1.28,2.09a1.77,1.77,0,0,1-1.28.45H2.59a1.74,1.74,0,0,1-1.27-.45,1.58,1.58,0,0,1-.46-1.22q0-.4,0-.81A7.05,7.05,0,0,1,1,10.52a5.79,5.79,0,0,1,.2-.82A3.4,3.4,0,0,1,1.51,9a2.48,2.48,0,0,1,.42-.56,1.65,1.65,0,0,1,.56-.34A1.82,1.82,0,0,1,3.16,8a.68.68,0,0,1,.17.1l.61.39a4.66,4.66,0,0,0,1,.44,4.25,4.25,0,0,0,1.22.19,4.24,4.24,0,0,0,1.21-.19,4.43,4.43,0,0,0,1-.44l.61-.39L9.09,8a1.87,1.87,0,0,1,.68.13,1.6,1.6,0,0,1,.55.34,2.51,2.51,0,0,1,.43.56,4,4,0,0,1,.31.71,5.79,5.79,0,0,1,.2.82c.05.3.09.58.11.83h0c0,.26,0,.54,0,.81A1.61,1.61,0,0,1,10.94,13.38Z"/></g></g></svg>