<svg xmlns="http://www.w3.org/2000/svg" viewBox="0 0 138.35 133.65"><defs><style>.cls-1{fill:#38b87e;opacity:0.1;}.cls-2{fill:#22bd94;}</style></defs><title>Asset 51</title><g id="Layer_2" data-name="Layer 2"><g id="Layer_1-2" data-name="Layer 1"><path class="cls-1" d="M46.62,12.2c-2.8,6.74-3.4,14.4-7.27,20.6-5.87,9.4-17.6,13-26.18,20.05s-13.93,18-13.08,29,8.47,21.44,19,24.58c3.66,1.09,7.63,1.36,10.93,3.29,7.34,4.3,8.45,14.88,15,20.29,5.88,4.83,14.53,4.23,21.81,2s14.27-5.84,21.86-6.29c4.53-.28,9.09.59,13.6.12,5.75-.59,11-3.33,16.1-6.14,8.79-4.88,18.25-11.41,19.71-21.36,1.68-11.47-8.17-21.87-8-33.45.07-5.39,2.34-10.58,2.55-16a21.57,21.57,0,0,0-10-18.81c-5.18-3.2-11.5-4-16.92-6.81C98.39,19.49,93.34,12.49,87.1,7.08,75.83-2.7,53.15-3.54,46.62,12.2Z"/><path class="cls-2" d="M64.3,91a6.32,6.32,0,0,0,4.75,5.65,6.76,6.76,0,0,0,5.76-1.59c5.74-4.41-1.88-11.84,11.94-20.87s20.79-31.57,1.1-37.53-28,15.14-28,15.14l9.79,6.66S76.59,47,83,50.11,80.46,63,75.22,66.25C63.63,73.47,63.79,85.3,64.3,91Z"/><circle class="cls-2" cx="68.61" cy="105.75" r="6.2"/></g></g></svg>