<svg xmlns="http://www.w3.org/2000/svg" xmlns:xlink="http://www.w3.org/1999/xlink" viewBox="0 0 110.67 76.21"><defs><style>.cls-1{fill:#38b87e;}.cls-2{fill:#1d2741;opacity:0.18;isolation:isolate;}.cls-3{fill:url(#linear-gradient);}.cls-4{fill:url(#linear-gradient-2);}.cls-5{fill:url(#linear-gradient-3);}.cls-6{fill:#fff;}.cls-7{fill:#f4d280;}.cls-8{fill:url(#linear-gradient-4);}</style><linearGradient id="linear-gradient" x1="4.65" y1="-174.45" x2="4.1" y2="-150.9" gradientTransform="translate(0.01 172.8)" gradientUnits="userSpaceOnUse"><stop offset="0" stop-opacity="0"/><stop offset="0.91" stop-opacity="0.8"/><stop offset="1"/></linearGradient><linearGradient id="linear-gradient-2" x1="7.62" y1="-174.38" x2="7.08" y2="-150.84" xlink:href="#linear-gradient"/><linearGradient id="linear-gradient-3" x1="10.6" y1="-174.31" x2="10.05" y2="-150.77" xlink:href="#linear-gradient"/><linearGradient id="linear-gradient-4" x1="55.34" y1="72.47" x2="55.34" y2="-33.54" gradientUnits="userSpaceOnUse"><stop offset="0" stop-color="#fff" stop-opacity="0"/><stop offset="0.2" stop-color="#fff" stop-opacity="0.26"/><stop offset="0.41" stop-color="#fff" stop-opacity="0.52"/><stop offset="0.61" stop-color="#fff" stop-opacity="0.73"/><stop offset="0.78" stop-color="#fff" stop-opacity="0.88"/><stop offset="0.91" stop-color="#fff" stop-opacity="0.97"/><stop offset="1" stop-color="#fff"/></linearGradient></defs><title>Asset 72</title><g id="Layer_2" data-name="Layer 2"><g id="Layer_1-2" data-name="Layer 1"><path class="cls-1" d="M110.66,4.88V71.33a4.88,4.88,0,0,1-4.88,4.88H4.9A4.88,4.88,0,0,1,0,71.35V4.88A4.89,4.89,0,0,1,4.88,0H105.77a4.88,4.88,0,0,1,4.89,4.88Z"/><path class="cls-2" d="M110.66,4.88V6.49H0V4.88A4.88,4.88,0,0,1,4.88,0H105.77a4.88,4.88,0,0,1,4.89,4.88Z"/><path class="cls-3" d="M5.57,3.59a1,1,0,1,1-1-1h0a1,1,0,0,1,1,1Z"/><path class="cls-4" d="M8.55,3.59a1,1,0,1,1-2.07,0,1,1,0,0,1,1-1h0a1,1,0,0,1,1,1Z"/><path class="cls-5" d="M11.52,3.59a1,1,0,1,1-1-1h0a1,1,0,0,1,1,1Z"/><path class="cls-6" d="M59.83,44.43a17.55,17.55,0,0,0,0-8.56l2.61-2.29a1.14,1.14,0,0,0,.21-1.46l-2.71-4.8a1.16,1.16,0,0,0-1.46-.53l-3.34,1.15a17.61,17.61,0,0,0-7.41-4.28L47,20.22a1.22,1.22,0,0,0-1.15-.94H40.43a1.23,1.23,0,0,0-1.15.94l-.73,3.44a18.3,18.3,0,0,0-7.41,4.28l-3.33-1.15a1.2,1.2,0,0,0-1.46.53l-2.72,4.8a1.1,1.1,0,0,0,.21,1.46l2.61,2.29a17.87,17.87,0,0,0,0,8.56l-2.61,2.29a1.14,1.14,0,0,0-.21,1.46L26.35,53a1.16,1.16,0,0,0,1.46.52l3.33-1.15a17.52,17.52,0,0,0,7.41,4.28l.73,3.44a1.22,1.22,0,0,0,1.15.94H46a1.22,1.22,0,0,0,1.15-.94l.73-3.44a18,18,0,0,0,7.4-4.28l3.34,1.15A1.2,1.2,0,0,0,60,53l2.72-4.8a1.11,1.11,0,0,0-.21-1.46ZM43.14,53.08A12.94,12.94,0,1,1,56.08,40.15,13,13,0,0,1,43.14,53.08Z"/><circle class="cls-6" cx="43.14" cy="40.15" r="6.16"/><path class="cls-7" d="M86.58,51.6a11.45,11.45,0,0,0,0-5.54l1.69-1.48a.73.73,0,0,0,.13-.95l-1.75-3.1a.76.76,0,0,0-1-.34l-2.16.74a11.35,11.35,0,0,0-4.79-2.76l-.47-2.23a.8.8,0,0,0-.74-.61H74a.8.8,0,0,0-.75.61l-.47,2.23A11.8,11.8,0,0,0,68,40.93l-2.16-.74a.79.79,0,0,0-1,.34l-1.75,3.1a.72.72,0,0,0,.13.95L65,46.06a11.45,11.45,0,0,0,0,5.54l-1.69,1.48a.74.74,0,0,0-.13,1l1.75,3.1a.75.75,0,0,0,1,.34L68,56.73a11.37,11.37,0,0,0,4.79,2.77l.47,2.22a.8.8,0,0,0,.75.61H77.6a.8.8,0,0,0,.75-.61l.47-2.22a11.82,11.82,0,0,0,4.79-2.77l2.16.74a.78.78,0,0,0,1-.34L88.47,54a.72.72,0,0,0-.13-1Zm-10.8,5.6a8.37,8.37,0,1,1,8.37-8.37A8.41,8.41,0,0,1,75.78,57.2Z"/><circle class="cls-7" cx="75.78" cy="48.83" r="3.98"/><path class="cls-6" d="M91.43,31.49A6.22,6.22,0,0,0,91,30.14a6.38,6.38,0,0,0-.75-1.2l.46-1.05a.36.36,0,0,0-.14-.46L89.1,26.37a.38.38,0,0,0-.5,0l-.84.81A5.75,5.75,0,0,0,85,27l-.7-.93a.4.4,0,0,0-.47-.12l-1.62.75a.4.4,0,0,0-.21.44l.25,1.13a6,6,0,0,0-1.62,2.3l-1.15.11a.4.4,0,0,0-.37.36l-.15,1.81a.35.35,0,0,0,.27.4l1.09.33a6.86,6.86,0,0,0,.44,1.35,6,6,0,0,0,.74,1.2l-.46,1a.37.37,0,0,0,.14.46l1.47,1.06a.37.37,0,0,0,.51,0l.84-.81a5.73,5.73,0,0,0,2.8.26l.69.93a.41.41,0,0,0,.47.12l1.66-.76a.41.41,0,0,0,.21-.44l-.26-1.13a6,6,0,0,0,1.62-2.3l1.16-.12a.39.39,0,0,0,.36-.35l.15-1.81a.36.36,0,0,0-.26-.41Zm-3.79,4.89a4.26,4.26,0,1,1,2.08-5.65A4.28,4.28,0,0,1,87.64,36.38Z"/><circle class="cls-6" cx="85.93" cy="32.39" r="4.39"/><path class="cls-8" d="M0,6.66V71.05a4.89,4.89,0,0,0,4.9,4.86H105.79A4.88,4.88,0,0,0,110.67,71V6.66Z"/></g></g></svg>