<svg xmlns="http://www.w3.org/2000/svg" viewBox="0 0 6.09 8.37"><defs><style>.cls-1{fill:#333;opacity:0.25;}</style></defs><title>Asset 63</title><g id="Layer_2" data-name="Layer 2"><g id="Layer_1-2" data-name="Layer 1"><path class="cls-1" d="M.38,3.42H5.71A.33.33,0,0,0,6,3.31.36.36,0,0,0,6.09,3,.34.34,0,0,0,6,2.78L3.31.11A.39.39,0,0,0,3,0a.36.36,0,0,0-.26.11L.11,2.78A.36.36,0,0,0,0,3a.39.39,0,0,0,.11.27A.36.36,0,0,0,.38,3.42Z"/><path class="cls-1" d="M5.71,4.94H.38a.37.37,0,0,0-.27.12A.36.36,0,0,0,0,5.32a.37.37,0,0,0,.11.27L2.78,8.25A.34.34,0,0,0,3,8.37a.36.36,0,0,0,.27-.12L6,5.59a.34.34,0,0,0,.12-.27.41.41,0,0,0-.38-.38Z"/></g></g></svg>