<svg xmlns="http://www.w3.org/2000/svg" xmlns:xlink="http://www.w3.org/1999/xlink" viewBox="0 0 397.62 297.74"><defs><style>.cls-1,.cls-2{fill:#38b87e;}.cls-1{opacity:0.18;}.cls-1,.cls-10,.cls-3,.cls-9{isolation:isolate;}.cls-3{opacity:0.61;fill:url(#linear-gradient);}.cls-4{fill:url(#linear-gradient-2);}.cls-10,.cls-5{fill:#fff;}.cls-6{fill:url(#linear-gradient-3);}.cls-7{fill:url(#linear-gradient-4);}.cls-8{fill:url(#linear-gradient-5);}.cls-9{fill:#000405;opacity:0.05;}.cls-10{opacity:0.22;}.cls-11{fill:#3f3d56;}</style><linearGradient id="linear-gradient" x1="95.37" y1="-370.35" x2="97.35" y2="-375.72" gradientTransform="translate(-0.33 456.27)" gradientUnits="userSpaceOnUse"><stop offset="0.36" stop-color="#00272e"/><stop offset="0.75" stop-color="#3f80a1" stop-opacity="0.25"/><stop offset="1" stop-color="#69b9eb" stop-opacity="0"/></linearGradient><linearGradient id="linear-gradient-2" x1="229.52" y1="-9332.15" x2="167.07" y2="-9554.09" gradientTransform="matrix(1, 0, 0, -1, 0, -9326.24)" gradientUnits="userSpaceOnUse"><stop offset="0" stop-opacity="0"/><stop offset="0.91" stop-opacity="0.8"/><stop offset="1"/></linearGradient><linearGradient id="linear-gradient-3" x1="209.47" y1="-9393.17" x2="171.8" y2="-9573.82" xlink:href="#linear-gradient-2"/><linearGradient id="linear-gradient-4" x1="212.91" y1="-9393.88" x2="175.23" y2="-9574.53" xlink:href="#linear-gradient-2"/><linearGradient id="linear-gradient-5" x1="217.28" y1="-9394.8" x2="179.61" y2="-9575.45" xlink:href="#linear-gradient-2"/></defs><title>success-sent</title><g id="Layer_2" data-name="Layer 2"><g id="Layer_1-2" data-name="Layer 1"><path class="cls-1" d="M67.77,54.11c-12.56,2.67-25.62,5.56-35.71,13.51-8.51,6.71-21.79,19.1-25.81,29.16-17,42.52,2.23,94.25,39.61,120.71,17.58,12.44,39.49,18.47,55.29,33.12,10,9.26,17,21.53,27.62,30,15.54,12.44,36.52,15.19,56.37,16.52,13.79.93,28.12,1.34,40.91-3.91,9.25-3.79,17.09-10.29,24.78-16.69L301.78,234c8.18-6.83,15.84-17.7,26.5-17.63,95.93.69,102.39-112.21-44.84-162.21-13-4.41-21.87-16.67-34.06-22.95-25.19-13-54.17-8.77-79.57.21C137.56,42.87,101.24,47,67.77,54.11Z"/><path class="cls-2" d="M318.63,93.13V227.62a12.82,12.82,0,0,1-12.83,12.82H104.66a12.82,12.82,0,0,1-12.83-12.83h0V93.13a12.83,12.83,0,0,1,12.81-12.84H305.8a12.83,12.83,0,0,1,12.83,12.83Z"/><path class="cls-2" d="M315.15,84.4H95L96.76,83a2.43,2.43,0,0,1,.25-.2L201.75,2.53,205.06,0,311.63,81.7Z"/><path class="cls-2" d="M318.63,93.13,316,95.06h0l-19.5,14.13-94.7,68.59-91.07-70.14L91.83,93.13l.24-2.49a12.7,12.7,0,0,1,3.19-6.24A11.37,11.37,0,0,1,96.75,83a2.43,2.43,0,0,1,.25-.2,12.81,12.81,0,0,1,7.66-2.54H305.8a12.85,12.85,0,0,1,12.77,11.6C318.61,92.3,318.63,92.72,318.63,93.13Z"/><path class="cls-3" d="M96.75,83a12,12,0,0,0-1.49,1.37H95Z"/><path class="cls-4" d="M318.63,93.13,316,95.07h0l-19.5,14.12-94.7,68.59-91.07-70.13L91.83,93.13l.24-2.49A12.87,12.87,0,0,1,96.75,83l.25-.2L201.75,2.53,205.06,0,311.63,81.7a12.8,12.8,0,0,1,6.94,10.2Q318.63,92.52,318.63,93.13Z"/><path class="cls-5" d="M296.45,83.19v26L261.5,134.49l-8,5.82-51.74,37.47-48.66-37.47-7.54-5.8-34.88-26.84V83.19a7.62,7.62,0,0,1,7.62-7.62H288.83A7.63,7.63,0,0,1,296.45,83.19Z"/><path class="cls-6" d="M270.84,106H133a2.9,2.9,0,0,1-2.9-2.9h0a2.9,2.9,0,0,1,2.9-2.9H270.84a2.9,2.9,0,0,1,2.9,2.9h0A2.9,2.9,0,0,1,270.84,106Z"/><path class="cls-7" d="M270.84,123.15H133a2.9,2.9,0,0,1-2.9-2.9h0a2.9,2.9,0,0,1,2.9-2.9H270.84a2.9,2.9,0,0,1,2.9,2.9h0A2.9,2.9,0,0,1,270.84,123.15Z"/><polygon class="cls-8" points="261.5 134.51 253.49 140.31 153.09 140.31 145.56 134.51 261.5 134.51"/><polygon class="cls-9" points="201.75 177.78 117.69 240.45 287.55 240.45 201.75 177.78"/><polygon class="cls-10" points="92.21 100.19 197.33 181.08 201.75 177.78 91.83 93.13 92.21 100.19"/><polygon class="cls-10" points="205.23 180.56 318.63 98.93 318.63 93.36 201.75 178.01 205.23 180.56"/><path class="cls-10" d="M318.57,92.12l-.31.87L316,95.3C317.58,92.5,313,86,313,86l-1.83-1.37-5.49-4.13L201.75,2.77,205.06.23,311.63,81.92A12.84,12.84,0,0,1,318.57,92.12Z"/><polygon class="cls-11" points="165.39 124.18 199.41 155.15 309.92 42.2 201.81 130.83 178.73 107.75 165.39 124.18"/></g></g></svg>