<svg xmlns="http://www.w3.org/2000/svg" viewBox="0 0 36.8 36.8"><defs><style>.cls-1{fill:#38b87e;}</style></defs><title>Asset 64</title><g id="Layer_2" data-name="Layer 2"><g id="Layer_1-2" data-name="Layer 1"><path class="cls-1" d="M18.4,0A18.4,18.4,0,1,0,36.8,18.4,18.39,18.39,0,0,0,18.4,0Zm0,34.64A16.36,16.36,0,0,1,2.16,18.4,16.37,16.37,0,0,1,18.4,2.16,16.36,16.36,0,0,1,34.64,18.4,16.36,16.36,0,0,1,18.4,34.64Z"/><path class="cls-1" d="M23,15.59,17.1,21.43c0,.22-.21.22-.43.22s-.22,0-.43-.22l-2.38-2.38a1.07,1.07,0,0,0-1.52,1.52L14.72,23a2.1,2.1,0,0,0,2,.86A2.74,2.74,0,0,0,18.62,23l5.84-5.85A1.07,1.07,0,0,0,23,15.59Z"/></g></g></svg>