<svg xmlns="http://www.w3.org/2000/svg" xmlns:xlink="http://www.w3.org/1999/xlink" viewBox="0 0 137.58 108.88"><defs><style>.cls-1{fill:#25233a;}.cls-2{fill:#d7f3ec;}.cls-3{fill:url(#linear-gradient);}.cls-4{fill:url(#linear-gradient-2);}.cls-5{fill:url(#linear-gradient-3);}.cls-6{fill:url(#linear-gradient-4);}.cls-7{fill:url(#linear-gradient-5);}.cls-8{fill:#f4d280;}.cls-9{fill:#38b87e;}.cls-10{fill:#3f3d56;}.cls-11{fill:#000405;opacity:0.05;isolation:isolate;}.cls-12{fill:#22bd94;}.cls-13{fill:url(#linear-gradient-6);}.cls-14{fill:url(#linear-gradient-7);}.cls-15{fill:url(#linear-gradient-8);}.cls-16{fill:url(#linear-gradient-9);}.cls-17{fill:url(#linear-gradient-10);}.cls-18{fill:url(#linear-gradient-11);}.cls-19{fill:url(#linear-gradient-12);}</style><linearGradient id="linear-gradient" x1="21.76" y1="-5198.09" x2="33.43" y2="-5198.09" gradientTransform="matrix(1, 0, 0, -1, -21.76, -5176.58)" gradientUnits="userSpaceOnUse"><stop offset="0" stop-color="#ecc4d7"/><stop offset="0.42" stop-color="#efd4d1"/><stop offset="1" stop-color="#f2eac9"/></linearGradient><linearGradient id="linear-gradient-2" x1="78.83" y1="-5279.65" x2="88.88" y2="-5279.65" xlink:href="#linear-gradient"/><linearGradient id="linear-gradient-3" x1="55.89" y1="-5202.47" x2="72.69" y2="-5202.47" xlink:href="#linear-gradient"/><linearGradient id="linear-gradient-4" x1="69.81" y1="-5202.5" x2="71.23" y2="-5202.73" xlink:href="#linear-gradient"/><linearGradient id="linear-gradient-5" x1="63.92" y1="-5206.92" x2="67.18" y2="-5233.51" xlink:href="#linear-gradient"/><linearGradient id="linear-gradient-6" x1="4123.86" y1="-5153.98" x2="4134.17" y2="-5153.98" gradientTransform="translate(4223.64 -5122.88) rotate(180)" xlink:href="#linear-gradient"/><linearGradient id="linear-gradient-7" x1="4129.32" y1="-5148.38" x2="4127.24" y2="-5171.69" gradientTransform="translate(4223.64 -5122.88) rotate(180)" xlink:href="#linear-gradient"/><linearGradient id="linear-gradient-8" x1="4114.64" y1="-5140.11" x2="4136.52" y2="-5140.11" gradientTransform="translate(4223.64 -5122.88) rotate(180)" xlink:href="#linear-gradient"/><linearGradient id="linear-gradient-9" x1="4121.03" y1="-5190.56" x2="4135.11" y2="-5190.56" gradientTransform="translate(4223.64 -5122.88) rotate(180)" xlink:href="#linear-gradient"/><linearGradient id="linear-gradient-10" x1="4086.06" y1="-5147.4" x2="4097.29" y2="-5147.4" gradientTransform="translate(4223.64 -5122.88) rotate(180)" xlink:href="#linear-gradient"/><linearGradient id="linear-gradient-11" x1="4128.36" y1="-5185.68" x2="4131.66" y2="-5185.68" gradientTransform="translate(4223.64 -5122.88) rotate(180)" xlink:href="#linear-gradient"/><linearGradient id="linear-gradient-12" x1="92.58" y1="68.41" x2="115.1" y2="68.41" gradientUnits="userSpaceOnUse"><stop offset="0" stop-color="#fff" stop-opacity="0"/><stop offset="0.99" stop-color="#fff"/></linearGradient></defs><title>Asset 74</title><g id="Layer_2" data-name="Layer 2"><g id="Layer_1-2" data-name="Layer 1"><path class="cls-1" d="M32.33,15.89c-.25,3.46.83,5.72,2.26,8.88-.51-3.2,1.39-6.24,2.11-9.4.21-.92,2.09-3.49,1.74-4.36C37.69,9,32.72,10.32,32.33,15.89Z"/><path class="cls-2" d="M67.29,96a2.7,2.7,0,0,1-.3,1,1.51,1.51,0,0,1-.21.23,1.75,1.75,0,0,1-1,.33c-.69.09-2,.29-3.31.46a2.34,2.34,0,0,1-2.64-2,2.42,2.42,0,0,1,0-.89c2.61-10.56,2.86-22.3-2.69-31.42-1,15.08-1.81,20.24-1.91,25A2.56,2.56,0,0,1,55,90.11v0a2.37,2.37,0,0,1-1,.67,22.28,22.28,0,0,1-8.62,1.56A64,64,0,0,1,33.83,91c-2.13-.38-4.4-.83-6-2.35-2.31-2.26-2.21-5.93-2-9.15C26.21,72,28.17,52.83,28,53.09c-2.6,3-9.65,8.62-13.1,9a4.56,4.56,0,0,1-3.26-.65,3.15,3.15,0,0,1-.6-.61c-1-1.24-2.26-5.18-2.61-6.71L4.15,35.88A5.29,5.29,0,0,1,4,34.63v-.31c.29-3.28,4-3.61,6.79-3.42q2,9.85,4.67,19.57c2.26-2.31,9.6-11.86,17.12-13.95a91,91,0,0,1,16-2.48,5.08,5.08,0,0,1,.67,0c5.13.6,14.76,8.6,18.34,24.63C70.35,71,69.52,83.61,67.29,96Z"/><path class="cls-3" d="M1.82,26.67a10.69,10.69,0,0,1-.86-2,18.43,18.43,0,0,1-.91-7.22A5.24,5.24,0,0,1,.8,14.85c.1-.15.21-.28.31-.43a7.44,7.44,0,0,0,.34-.76A5.38,5.38,0,0,1,3.09,12,6.1,6.1,0,0,1,4,11.44a6.63,6.63,0,0,1,1.3-.37,1,1,0,0,1,.42,0A.79.79,0,0,1,6,11.3,6.14,6.14,0,0,1,7,13.64a53.82,53.82,0,0,1,1.64,6.74c.06.36.3.85.64.7a.57.57,0,0,0,.25-.28l.5-.88a1.25,1.25,0,0,1,.64-.64c.45-.12.89.35.92.82a2.62,2.62,0,0,1-.4,1.33,17.45,17.45,0,0,0-1.8,8.22,1.93,1.93,0,0,1-.1.89c-.37.75-1.64.89-2.36,1.13s-1.46.55-2.13,0a6.57,6.57,0,0,1-1.2-2.08C3.14,28.51,2.39,27.67,1.82,26.67Z"/><path class="cls-4" d="M57.07,103.56a3.62,3.62,0,0,0,3.39-.94,10.64,10.64,0,0,1-.9,5c-.12.26-.24.59-.06.82a.67.67,0,0,0,.25.19,3.16,3.16,0,0,0,2.45,0,9.23,9.23,0,0,0,2.18-1.24,7,7,0,0,0,2.09-1.93A6.13,6.13,0,0,0,67,101.7a26.72,26.72,0,0,0-.63-3.77,1.11,1.11,0,0,0-.19-.45c-.35-.43-1-.15-1.51.08-1.67.75-3.38-.54-4.49,1.06a26.86,26.86,0,0,1-1.63,2.46A4.33,4.33,0,0,0,57.07,103.56Z"/><path class="cls-5" d="M50.51,26c-1,3.57-.49,1.72-1.66,6.29s-1.8,6.36-3,7.54c-2.33,2.42-3.77,2.8-4.71,2.33-1.37-.67-1.51-3.19-1.45-3.51.26-1.38,1.58-3.92,1.13-5.24-.08-.24-.31-.26-.62-.23-.87.06-2.43.51-3.78-2-2.37-4.31-2.38-9.13-2.26-13.92a7.65,7.65,0,0,1,6.87-7.81,8,8,0,0,1,7.84,3.93A19.69,19.69,0,0,1,50.51,26Z"/><path class="cls-1" d="M38.57,7.17a4.66,4.66,0,0,0-2.48,2.12,2.81,2.81,0,0,0,.35,3.12c.83.86,2.14.94,3.32,1.11A10.17,10.17,0,0,1,44,15.12a6.43,6.43,0,0,1,2.63,3.66c.58,2.33-.4,4.87.33,7.16a10.82,10.82,0,0,0,1.08-1.44A1.34,1.34,0,0,1,49.64,24c1.29,1.42-.11,3.45-1.58,4.18a.71.71,0,0,0-.38.3.69.69,0,0,0,.11.61c.7,1.57-.25,3.66.83,5l1.75-3a26.39,26.39,0,0,0,2.31-4.6A8.85,8.85,0,0,0,53,21.37l.57.13a4.37,4.37,0,0,0-.43-1.8,1.72,1.72,0,0,0,1.51.43,6.43,6.43,0,0,1-1-1.43,1.7,1.7,0,0,0,1.25.32,5.64,5.64,0,0,1-1.36-2.66,17.68,17.68,0,0,0-3.92-7.47C46.62,5.84,42.38,5.65,38.57,7.17Z"/><path class="cls-6" d="M48.15,26a2.43,2.43,0,0,0,.1-.59.92.92,0,0,1,.24-.54.51.51,0,0,1,.56-.11.65.65,0,0,1,.26.61A2.1,2.1,0,0,1,48.56,27a.75.75,0,0,1-.62.2.58.58,0,0,1-.38-.41C47.42,26.2,48,26.42,48.15,26Z"/><path class="cls-7" d="M44.66,35.58a32.05,32.05,0,0,0-3.51,6.59c-1.37-.67-1.51-3.19-1.45-3.52.27-1.38,1.59-3.91,1.13-5.23-.08-.24-.31-.27-.62-.24h0s3.49-.79,4.27-2.95S47,32.2,44.66,35.58Z"/><path class="cls-8" d="M48.14,33s-1.75,6.79-4.58,8.3-3.4-2.3-3.4-2.3l.76-4.33-.76.41s-1.23,3-.92,4.66,1.59,4.69,4.89,2.52,4.49-8.12,4.49-8.12Z"/><path class="cls-9" d="M72.57,64.09c.26-9.92,2.1-8.87,2.84-19.52.31-4.51.27-8.78,3.09-10.49.45-.27.91-.44,4.2-1.2,2.74-.64,5-1.13,6.54-1.45l8.46.79,10.37,2.53,3.8,4.61c1.13,1.26,2.39,2.57,3.8,3.88a60.35,60.35,0,0,0,9.63,7.35l1-20.43,7.23,2.18a70.25,70.25,0,0,0-1,10.3c-.1,4.42.27,6.9-.37,11.45-.61,4.26-1.06,7.11-3.09,7.95-2.5,1-5.8-1.64-6.42-2.16l-14.33-9.53.87,17q2.06,12,4.1,24.07c-7,5.75-32.52-.32-32.52-.32L81,78.72a4,4,0,0,1-1.72.45,5.67,5.67,0,0,1-3.49-1.46C73.79,76.06,72.4,70.89,72.57,64.09Z"/><path class="cls-10" d="M89,31c.45,4.55,3.41,9.57,7.59,10.16,7.9,1.11,2.38-8.27,2.38-8.27l-.28.14a6.74,6.74,0,0,1-8.84-3.18Z"/><path class="cls-11" d="M92.2,67.73s10.62-3.16,4.32-5.46C83.59,57.53,83,47.68,83,47.68S80.32,65.5,81,65.93s5.61-.84,7.43-1.29c.4-.1,1.48-.14,1.76.16Z"/><path class="cls-11" d="M92.27,71.16c-1.51-7.23-.53-6.08-.53-6.08l20.68,2.39.16,1.39S104.92,80,104.92,81.68,81,86.85,81,86.85V78.7c1.35-1,6.76-4,9.32-5.42C91.14,72.84,92.45,72.05,92.27,71.16Z"/><polygon class="cls-12" points="92.47 80.2 110.96 81.57 115 57.1 96.5 55.34 94.83 63.49 92.47 80.2"/><path class="cls-13" d="M99.26,30a13.85,13.85,0,0,0,.43,7.44c.2.72.17,1.93-.81,2.28-2,.73-4.67-1.33-5.78-2.44a10.18,10.18,0,0,1-3.19-6.81c-.08-1.54-.18-3.35-.26-4.87-.1-1.81-.18-3.19-.18-3.19S100.5,26.87,99.26,30Z"/><path class="cls-14" d="M99.24,30a13.42,13.42,0,0,0-.31,3.34c-3.3-.44-6.59-2.62-7.39-4-.4-.69-1.12-2.07-1.89-3.75-.1-1.81-.18-3.19-.18-3.19S100.5,26.87,99.24,30Z"/><path class="cls-15" d="M87.66,10.31c-2.24,3,3.08,13.7,4.46,16.07s10.09,7.09,13.54,1.35a34.21,34.21,0,0,0,3.25-12.09c0-.23,0-.47.07-.71A10.39,10.39,0,0,0,99.08,4C93.45,3.79,89.2,8.25,87.66,10.31Z"/><path class="cls-16" d="M89.21,68.89a2.65,2.65,0,0,1-.52-.83,2.53,2.53,0,0,1,1.53-3.28,17,17,0,0,1,7.07-1.45,7.34,7.34,0,0,1,5.13,4.06,1.72,1.72,0,0,1,.07.21,2.6,2.6,0,0,1-1.81,3.25A20.43,20.43,0,0,1,93.83,72,11,11,0,0,1,89.21,68.89Z"/><path class="cls-17" d="M133.55,32.35a32.11,32.11,0,0,1,3-5.57c1.11-1.24,1.73-4.63-.27-8.44s-4.94.13-5.76,0a8,8,0,0,1-2.23-1.09c-1.73,1-1.11,4.19-1.25,5.84s-.68,7.08-.68,7.08Z"/><path class="cls-18" d="M94.81,63.49,92,64.28a28.74,28.74,0,0,0,1.94-2.18,2.6,2.6,0,0,1,1.35-.78Z"/><path class="cls-10" d="M84.48,8.72c-.4,1.83-.49,3.7-.92,5.51a7.26,7.26,0,0,1-3.31,4.89,8.11,8.11,0,0,1-1.78.66l.75-1.47a4.82,4.82,0,0,1-1,.6h0a4.59,4.59,0,0,1-6-2.23,1.19,1.19,0,0,0,1.22.93,2.23,2.23,0,0,0,1.49-.72,3.84,3.84,0,0,0,.8-1.11c.85-1.73.34-3.75.25-5.66A12,12,0,0,1,76.2,7a4.18,4.18,0,0,1,1-2.23,3.92,3.92,0,0,1,2.65-.89A5.4,5.4,0,0,1,83.54,5,3.53,3.53,0,0,1,84.48,8.72Z"/><path class="cls-12" d="M86.1,8.46a6.85,6.85,0,0,1-.53,1.43.46.46,0,0,1-.5.35c-.35,0-.72,0-1.08,0a2.84,2.84,0,0,1-1.15-.19A1.59,1.59,0,0,1,82,8.59a1.69,1.69,0,0,1,1-1.4A3,3,0,0,1,84.08,7C85.33,7,86.39,6.92,86.1,8.46Z"/><path class="cls-10" d="M110.34,11.75a1.7,1.7,0,0,1-.61.72c-.86.49-1.83-.39-2.5-1.1a12.55,12.55,0,0,0-9-3.8,7.14,7.14,0,0,0-5.06,1.8C91,11.55,91.38,15.05,92,18a3.59,3.59,0,0,0-1.07-1.88c-.6-.44-1.64-.37-1.91.31a1.47,1.47,0,0,0,.1,1.09c.76,1.83,2.69,3.5,2.06,5.38a17,17,0,0,1-5.55-6.85,11.65,11.65,0,0,1-.27-8.63,11.84,11.84,0,0,1,7-6.55,16.31,16.31,0,0,1,9.8-.28C106.19,1.72,112.89,6.82,110.34,11.75Z"/><path class="cls-10" d="M95.52,7.41c-.61.43-1.63,1.25-.22,1.37s2.83,0,4.24.06a8.37,8.37,0,0,1,4.08,1,8.37,8.37,0,0,1,3.2,4.29,38.91,38.91,0,0,0,2,5,3.85,3.85,0,0,0,.86,1.15,3.39,3.39,0,0,0,1.2.64,4.07,4.07,0,0,0,3.28-.15,2.44,2.44,0,0,0,1.22-2.8,1.17,1.17,0,0,1-1.17,1,1.89,1.89,0,0,1-1.43-.77c-.88-1.14-.7-2.71-.3-4.06a9.61,9.61,0,0,0,.42-1.66,5.82,5.82,0,0,0-.29-2.31,8.58,8.58,0,0,0-1.71-3.24,8.43,8.43,0,0,0-6.26-2.47A17.15,17.15,0,0,0,98,6.13,13.11,13.11,0,0,0,95.52,7.41Z"/><polygon class="cls-19" points="92.58 80.16 111.07 81.53 115.1 57.06 96.61 55.3 94.94 63.45 92.58 80.16"/></g></g></svg>