<svg xmlns="http://www.w3.org/2000/svg" viewBox="0 0 36.8 36.8"><defs><style>.cls-1{fill:#ff4a4a;}</style></defs><title>Asset 83</title><g id="Layer_2" data-name="Layer 2"><g id="Layer_1-2" data-name="Layer 1"><path class="cls-1" d="M18.4,0A18.4,18.4,0,1,0,36.8,18.4,18.39,18.39,0,0,0,18.4,0Zm0,34.64A16.36,16.36,0,0,1,2.16,18.4,16.37,16.37,0,0,1,18.4,2.16,16.36,16.36,0,0,1,34.64,18.4,16.36,16.36,0,0,1,18.4,34.64Z"/><path class="cls-1" d="M18.27,9.3c-1.16,0-2,.6-2,1.57l-.05,9c0,1,.86,1.59,2,1.6s2.05-.62,2.05-1.57l.05-9C20.31,9.94,19.4,9.31,18.27,9.3Zm-.08,14.16a2,2,0,1,0,2,2A2,2,0,0,0,18.19,23.46Z"/></g></g></svg>