<?xml version="1.0" encoding="utf-8"?>
<!-- Generator: Adobe Illustrator 23.0.1, SVG Export Plug-In . SVG Version: 6.00 Build 0)  -->
<svg version="1.1" id="Layer_1" xmlns="http://www.w3.org/2000/svg" xmlns:xlink="http://www.w3.org/1999/xlink" x="0px" y="0px"
	 viewBox="0 0 1920 1080" style="enable-background:new 0 0 1920 1080;" xml:space="preserve">
<style type="text/css">
	.st0{clip-path:url(#SVGID_2_);fill:#14ABA1;}
	.st1{clip-path:url(#SVGID_2_);}
	.st2{clip-path:url(#SVGID_4_);fill:#F4D280;}
	.st3{clip-path:url(#SVGID_4_);fill:#38B87E;}
	.st4{clip-path:url(#SVGID_4_);fill:url(#SVGID_5_);}
	.st5{clip-path:url(#SVGID_4_);fill:url(#SVGID_6_);}
	.st6{clip-path:url(#SVGID_2_);fill:url(#SVGID_7_);}
</style>
<g>
	<defs>
		<rect id="SVGID_1_" x="-0.21" y="0.08" width="1920" height="1080.25"/>
	</defs>
	<clipPath id="SVGID_2_">
		<use xlink:href="#SVGID_1_"  style="overflow:visible;"/>
	</clipPath>
	<path class="st0" d="M1648.06,633.72c-211.03,45.11-373.75,166.28-576.64,224.85c-155.93,45.02-325.13,61.14-489.91,45.7
		c-173.94-16.3-343.69-40.35-516.32,3.44c-75.33,19.11-86.96,54.55-89.11,112.09c-2.72,72.76-4.62,145.55-5.63,218.36
		c-1.45,104.7,372.99,90.47,449.62,93.21c300.33,10.75,598.84-9.72,898.95-7.67c207.37,1.41,419.73,13.6,625.14-14.49
		c6.2-166.27,12.4-332.55,18.6-498.82c1.55-41.56,3.55-83.13,4.65-124.71c1.09-41.22,3.18-49.3-45-58.01
		C1825.06,610.08,1734.51,615.24,1648.06,633.72z"/>
	<g class="st1">
		<defs>
			<path id="SVGID_3_" d="M1483.44,698.23c-79.56,41.91-123.65,76.18-232.38,180.1c-155.31,148.44-450.64,22.72-627.08,64.68
				c-292.18,69.47-250.21,252.2-402.6,305.46C41.23,1311.44,7.21,1496.63,84.33,1600.32c71.12,95.62,225.16,162.12,400.59,205.39
				c190.01,46.86,419.23,69.05,652.3,32.16c233.07-36.89,464.36-143.26,522.02-265.91c28.88-61.43,110.82-71.03,309.97-127.63
				c276.66-78.62,384.64-216.18,386.91-356.34c2.29-141.32-39.81-289.73-209.87-387.11
				C1978.82,605.01,1678.13,595.67,1483.44,698.23z"/>
		</defs>
		<clipPath id="SVGID_4_">
			<use xlink:href="#SVGID_3_"  style="overflow:visible;"/>
		</clipPath>
		<path class="st2" d="M690.21,747.08c-64.19-1.67-136.83,14.48-188.94,42.02c-71.41,37.73-97.96,90.54-102.28,137.74
			c-5.22,57.01-580.95,532.97-503.82,636.66c71.12,95.62,409.32,197.95,584.75,241.22c190.01,46.86,419.23,69.05,652.3,32.16
			c233.07-36.89,464.36-143.26,522.02-265.91c28.88-61.43,316.89-9.71,418.21-51.78c507.17-210.6,280.69-466.53,253.01-605.66
			c-10.64-53.46-59.16-98.31-89.75-147.39c-74.08-118.84,35.79-234.52,17.66-355.69c-10.62-70.98-111.5-113.39-249.37-112.36
			C1555.17,301.43,891.89,752.33,690.21,747.08z"/>
		<path class="st3" d="M775.51,482.61l-1125.74,1038.8l1850.75,326.81c0,0,102.19-45.94,82.92-140.95
			c-6.39-31.48-29-59.98-25.18-92.99c10.15-87.68,182.91-184.61,150.22-264.85c-24.67-60.57-136.84-89.61-218.3-128.98
			c-217.23-105.01,99.23-205.44,176.83-335.12C1872.44,542,1107.49,527.33,775.51,482.61z"/>
		
			<linearGradient id="SVGID_5_" gradientUnits="userSpaceOnUse" x1="35.9935" y1="-692.3041" x2="1849.9424" y2="-692.3041" gradientTransform="matrix(-0.0539 -0.9879 1.1343 -0.0619 69.6273 2271.5986)">
			<stop  offset="0.1622" style="stop-color:#F8425C"/>
			<stop  offset="0.3606" style="stop-color:#FA7C8E;stop-opacity:0.7601"/>
			<stop  offset="0.5735" style="stop-color:#FCB4BE;stop-opacity:0.5026"/>
			<stop  offset="0.757" style="stop-color:#FEDDE2;stop-opacity:0.2807"/>
			<stop  offset="0.9015" style="stop-color:#FFF6F7;stop-opacity:0.106"/>
			<stop  offset="0.9892" style="stop-color:#FFFFFF;stop-opacity:0"/>
		</linearGradient>
		<path class="st4" d="M-792.8,1707.94c29.29,13.3,58.44,26.84,87.95,39.77v-42.53C-734.16,1706.03-763.48,1706.93-792.8,1707.94z"
			/>
		
			<radialGradient id="SVGID_6_" cx="-1088.1732" cy="2686.3137" r="270.3972" gradientTransform="matrix(4.6537 -1.355 -0.4695 -1.4803 7391.6934 3293.679)" gradientUnits="userSpaceOnUse">
			<stop  offset="0.176" style="stop-color:#25B190"/>
			<stop  offset="0.2188" style="stop-color:#34B698;stop-opacity:0.9474"/>
			<stop  offset="0.4308" style="stop-color:#7CD0BC;stop-opacity:0.6867"/>
			<stop  offset="0.6213" style="stop-color:#B4E4D9;stop-opacity:0.4524"/>
			<stop  offset="0.7837" style="stop-color:#DDF3EE;stop-opacity:0.2526"/>
			<stop  offset="0.9116" style="stop-color:#F6FCFA;stop-opacity:0.0954"/>
			<stop  offset="0.9892" style="stop-color:#FFFFFF;stop-opacity:0"/>
		</radialGradient>
		<path class="st5" d="M2160.5,733.42c-160.95-101.61-524.77-121.13-654.09,6.33c-60.39,59.52-93.73,154.07-185.53,240.14
			c-118.03,110.67-270.08,50.52-449.21,6.66c-211.49-51.79-378.89-3.76-476.18,105.78c-76.69,86.35-140.94,131.97-225.48,199.64
			c15.84-14.89,48.21-124.47,75.12-188.04c54.88-129.64,369.06-210.59,555.29-202.87c109.92,4.56,603.46-160.91,683.02-202.82
			c194.68-102.56,495.38-93.22,662.81,2.65c90.12,51.61,144.3,117.55,174.99,189.18C2285.86,833.64,2234.32,780.02,2160.5,733.42z"
			/>
	</g>
	
		<radialGradient id="SVGID_7_" cx="-457.9991" cy="-799.861" r="266.3681" gradientTransform="matrix(4.2568 -0.0818 7.514957e-03 0.7627 3263.0317 1489.734)" gradientUnits="userSpaceOnUse">
		<stop  offset="0.1671" style="stop-color:#14ABA1"/>
		<stop  offset="0.6548" style="stop-color:#A2DEDA;stop-opacity:0.4068"/>
		<stop  offset="0.9892" style="stop-color:#FFFFFF;stop-opacity:0"/>
	</radialGradient>
	<ellipse class="st6" cx="1303.66" cy="1043.14" rx="653.55" ry="65.98"/>
</g>
</svg>
