<svg xmlns="http://www.w3.org/2000/svg" viewBox="0 0 24.8 24.8"><defs><style>.cls-1{fill:#fff;}.cls-2{fill:#333;}</style></defs><title>Asset 78</title><g id="Layer_2" data-name="Layer 2"><g id="Layer_1-2" data-name="Layer 1"><circle class="cls-1" cx="12.4" cy="12.4" r="12.4"/><path class="cls-2" d="M13.33,12.39l4.11-4.1a.66.66,0,1,0-.93-.93l-4.1,4.11L8.31,7.36a.65.65,0,1,0-.92.93l4.1,4.1-4.1,4.1a.64.64,0,0,0,0,.92.62.62,0,0,0,.46.19.63.63,0,0,0,.46-.19l4.1-4.1,4.1,4.1a.65.65,0,1,0,.93-.92Z"/></g></g></svg>