<svg xmlns="http://www.w3.org/2000/svg" viewBox="0 0 20.02 20.02"><defs><style>.cls-1{opacity:0.42;}</style></defs><title>Asset 68</title><g id="Layer_2" data-name="Layer 2"><g id="Layer_1-2" data-name="Layer 1"><g class="cls-1"><path d="M11.78,10l7.87-7.87A1.25,1.25,0,1,0,17.88.37L10,8.24,2.14.37A1.25,1.25,0,0,0,.37,2.14L8.24,10,.37,17.88a1.25,1.25,0,0,0,0,1.77,1.21,1.21,0,0,0,.88.37,1.25,1.25,0,0,0,.89-.37L10,11.78l7.87,7.87a1.25,1.25,0,0,0,.89.37,1.21,1.21,0,0,0,.88-.37,1.25,1.25,0,0,0,0-1.77Z"/></g></g></g></svg>