<svg xmlns="http://www.w3.org/2000/svg" viewBox="0 0 86.23 91.51"><defs><style>.cls-1,.cls-2{opacity:0.31;}</style></defs><title>Asset 50</title><g id="Layer_2" data-name="Layer 2"><g id="Layer_1-2" data-name="Layer 1"><g class="cls-1"><path d="M85.74,24.77,62.43.54A1.74,1.74,0,0,0,61.16,0H26.41a7.05,7.05,0,0,0-7,7.05V31.68H5.28A5.28,5.28,0,0,0,0,37V63.36a5.29,5.29,0,0,0,5.28,5.28H19.36V84.48a7,7,0,0,0,7.05,7H79.18a7,7,0,0,0,7-7V26A1.72,1.72,0,0,0,85.74,24.77ZM61.6,4.75,80.74,24.64H61.6ZM5.28,65.12a1.76,1.76,0,0,1-1.76-1.76V37A1.76,1.76,0,0,1,5.28,35.2H52.8A1.76,1.76,0,0,1,54.56,37V63.36a1.76,1.76,0,0,1-1.76,1.76ZM82.71,84.48A3.52,3.52,0,0,1,79.18,88H26.41a3.52,3.52,0,0,1-3.53-3.51V68.64H52.8a5.29,5.29,0,0,0,5.28-5.28V37a5.28,5.28,0,0,0-5.28-5.27H22.88V7.05a3.53,3.53,0,0,1,3.53-3.53H58.08V26.4a1.76,1.76,0,0,0,1.76,1.76H82.71V84.48Z"/></g><rect class="cls-2" x="28.42" y="41.96" width="3.05" height="15.12"/><polygon class="cls-2" points="17.99 54.53 26.27 44.33 26.27 41.96 15.2 41.96 15.2 44.52 22.25 44.52 14.31 54.32 14.31 57.08 26.59 57.08 26.59 54.53 17.99 54.53"/><g class="cls-1"><path d="M45.09,43.67a3.94,3.94,0,0,0-2.18-1.48A17,17,0,0,0,39.28,42h-4.9V57.08h3.06V51.37h2a18,18,0,0,0,3.17-.21,4.47,4.47,0,0,0,1.58-.72A4.19,4.19,0,0,0,45.46,49a5,5,0,0,0,.5-2.34A4.71,4.71,0,0,0,45.09,43.67Zm-2.62,4.16a2.07,2.07,0,0,1-.95.74,7.81,7.81,0,0,1-2.41.24H37.44V44.52h1.47a14.75,14.75,0,0,1,2.2.1,2.09,2.09,0,0,1,1.22.67,1.93,1.93,0,0,1,.49,1.36A2.05,2.05,0,0,1,42.47,47.83Z"/></g></g></g></svg>